<svg viewBox="0 0 800 800" xmlns="http://www.w3.org/2000/svg">
  <defs>
    <linearGradient x1="50%" y1="0%" x2="50%" y2="100%" id="a">
      <stop stop-color="#BA8063" offset="0%"/>
      <stop stop-color="#7E5A48" offset="99.265%"/>
    </linearGradient>
  </defs>
  <g fill="none" fill-rule="evenodd">
    <path d="M441 781.703c183 0 120.433-80.487 183-155.168 40.653-48.523 132.097-76.627 139.034-139.895C780.646 326 424.774 252 274 252S57 325.372 57 476.145c0 150.774 233.226 305.558 384 305.558z" fill="#F0FDFA"/>
    <g transform="translate(31.796 151.957)">
      <rect fill="#BAE6FD" x="678.204" y="100.043" width="19" height="4" rx="2"/>
      <rect fill="#BAE6FD" x="552.204" y="33.043" width="15" height="4" rx="2"/>
      <rect fill="#BAE6FD" x="369.204" y="14.043" width="15" height="4" rx="2"/>
      <rect fill="#BAE6FD" x="315.204" y="33.043" width="27" height="4" rx="2"/>
      <rect fill="#BAE6FD" x="638.204" y="100.043" width="27" height="4" rx="2"/>
      <path d="M626.244 87.1h70.96c2.076.834 3.115-1.32 3.115-6.461s-5.963-9.254-17.887-12.338c-2.3-12.532-9.33-18.798-21.09-18.798s-19.06 7.808-21.9 23.424c-11.385.846-17.078 3.416-17.078 7.712 0 4.295 1.293 6.45 3.88 6.461z" stroke="#BAE6FD" stroke-width="3" fill="#F0F9FF"/>
      <rect fill="#BAE6FD" x="235.204" y="23.043" width="19" height="4" rx="2"/>
      <rect fill="#BAE6FD" x="36.204" y="103.043" width="27" height="4" rx="2"/>
      <rect fill="#BAE6FD" x="80.204" y="103.043" width="41" height="4" rx="2"/>
      <path d="M72.737 45.642H2.893C1.034 45.378.07 43.59.001 40.278-.103 35.31 10.218 4.326 32.458 6.54c14.827 1.477 22.859 9.715 24.095 24.714C67.991 32.872 74 35 74.581 37.637c.58 2.638-.034 5.306-1.844 8.005zM116.585 89.399h128.119c3.704-1.354 5.079-4.333 4.126-8.937-.953-4.603-5.374-6.208-13.264-4.814-3.406-5.42-6.563-8.776-9.472-10.067-2.908-1.29-7.552-1.817-13.93-1.58-.954-3.804-2.345-6.439-4.174-7.902-1.829-1.463-5.076-2.54-9.742-3.231-5.467-17.537-15.944-25.481-31.43-23.832-15.486 1.649-24.096 8.787-25.83 21.414-4.205.805-7.733 2.423-10.583 4.853-2.85 2.43-4.416 5.155-4.698 8.176-10.63-1.457-16.66 1.93-18.09 10.163-1.43 8.233 1.56 13.485 8.968 15.757zM517.396 55.388H388.452c-4.993.022-6.603-3.176-4.83-9.594 1.773-6.417 9.734-9.334 23.884-8.751-1.779-4.526-.265-8.476 4.54-11.848s9.101-3.696 12.889-.972C429.72 8.966 441.715.906 460.917.043c19.202-.863 33.027 11.24 41.476 36.309 8.05-.57 13.758 1.28 17.125 5.552 3.366 4.272 2.66 8.767-2.122 13.484z" stroke="#BAE6FD" stroke-width="3" fill="#F0F9FF"/>
    </g>
    <g transform="translate(57 196)">
      <rect stroke="#94A3B8" stroke-width="3" fill="#CBD5E1" x="251.5" y="1.5" width="123" height="316" rx="3"/>
      <rect stroke="#94A3B8" stroke-width="3" fill="#F8FAFC" x="460.5" y="174.5" width="123" height="143" rx="3"/>
      <rect stroke="#94A3B8" stroke-width="3" fill="#F8FAFC" x="1.5" y="208.5" width="123" height="109" rx="3"/>
      <g transform="translate(196 76)">
        <path stroke="#94A3B8" stroke-width="3" fill="#FFF" d="M10.5 13.668h102V240.5h-102z"/>
        <rect stroke="#94A3B8" stroke-width="3" fill="#FEFCE8" x="25.5" y="29.891" width="15" height="42.966" rx="3"/>
        <rect stroke="#94A3B8" stroke-width="3" x="25.5" y="106.953" width="15" height="42.966" rx="3"/>
        <rect stroke="#94A3B8" stroke-width="3" x="25.5" y="182.662" width="15" height="42.966" rx="3"/>
        <rect stroke="#94A3B8" stroke-width="3" fill="#FEFCE8" x="54.5" y="29.891" width="15" height="42.966" rx="3"/>
        <rect stroke="#94A3B8" stroke-width="3" fill="#FEFCE8" x="54.5" y="106.953" width="15" height="42.966" rx="3"/>
        <rect stroke="#94A3B8" stroke-width="3" fill="#FDA4AF" x="54.5" y="182.662" width="15" height="57.838" rx="3"/>
        <rect stroke="#94A3B8" stroke-width="3" fill="#FEFCE8" x="83.5" y="29.891" width="15" height="42.966" rx="3"/>
        <rect stroke="#94A3B8" stroke-width="3" fill="#FEFCE8" x="83.5" y="106.953" width="15" height="42.966" rx="3"/>
        <rect stroke="#94A3B8" stroke-width="3" fill="#FEFCE8" x="83.5" y="182.662" width="15" height="42.966" rx="3"/>
        <rect stroke="#94A3B8" stroke-width="3" fill="#F1F5F9" x="1.5" y="1.5" width="119" height="13.223" rx="3"/>
        <path fill="#94A3B8" d="M12 85.173h99v5.408H12zM12 163.587h99v5.408H12z"/>
      </g>
      <g transform="translate(335 30)">
        <path stroke="#94A3B8" stroke-width="3" fill="#FFF" d="M11.5 13.654h121V287.5h-121z"/>
        <rect stroke="#94A3B8" stroke-width="3" fill="#E2E8F0" x="1.5" y="1.5" width="141" height="13.206" rx="3"/>
        <path fill="#94A3B8" d="M13 210.673h119v5.402H13zM13 270.093h50v4.051H13zM83 270.093h50v4.051H83z"/>
        <rect stroke="#94A3B8" stroke-width="3" fill="#FEFCE8" x="30.5" y="40.664" width="17" height="24.009" rx="3"/>
        <rect stroke="#94A3B8" stroke-width="3" fill="#FEFCE8" x="29.5" y="170.308" width="17" height="24.009" rx="3"/>
        <rect stroke="#94A3B8" stroke-width="3" fill="#FEFCE8" x="29.5" y="127.093" width="17" height="24.009" rx="3"/>
        <rect stroke="#94A3B8" stroke-width="3" fill="#FEFCE8" x="29.5" y="83.879" width="17" height="24.009" rx="3"/>
        <rect stroke="#94A3B8" stroke-width="3" fill="#FEFCE8" x="30.5" y="248.636" width="17" height="24.009" rx="3"/>
        <rect stroke="#94A3B8" stroke-width="3" fill="#FEFCE8" x="64.5" y="40.664" width="17" height="24.009" rx="3"/>
        <rect stroke="#94A3B8" stroke-width="3" fill="#FEFCE8" x="64.5" y="170.308" width="17" height="24.009" rx="3"/>
        <rect stroke="#94A3B8" stroke-width="3" fill="#FEFCE8" x="64.5" y="127.093" width="17" height="24.009" rx="3"/>
        <rect stroke="#94A3B8" stroke-width="3" fill="#FEFCE8" x="64.5" y="83.879" width="17" height="24.009" rx="3"/>
        <rect stroke="#94A3B8" stroke-width="3" fill="#5D6587" x="64.5" y="229.729" width="17" height="57.771" rx="3"/>
        <rect stroke="#94A3B8" stroke-width="3" fill="#FEFCE8" x="99.5" y="40.664" width="17" height="24.009" rx="3"/>
        <rect stroke="#94A3B8" stroke-width="3" fill="#FEFCE8" x="99.5" y="170.308" width="17" height="24.009" rx="3"/>
        <rect stroke="#94A3B8" stroke-width="3" fill="#FEFCE8" x="99.5" y="127.093" width="17" height="24.009" rx="3"/>
        <rect stroke="#94A3B8" stroke-width="3" fill="#FEFCE8" x="99.5" y="83.879" width="17" height="24.009" rx="3"/>
        <rect stroke="#94A3B8" stroke-width="3" fill="#FEFCE8" x="99.5" y="248.636" width="17" height="24.009" rx="3"/>
      </g>
      <g transform="translate(567 231)" stroke="#94A3B8" stroke-width="3">
        <path fill="#F1F5F9" d="M7.5 12.331h94V86.5h-94z"/>
        <rect fill="#E9D5FF" x="24.5" y="28.577" width="17" height="56.569" rx="3"/>
        <rect fill="#CBD5E1" x="1.5" y="1.5" width="106" height="11.892" rx="3"/>
        <rect fill="#FEFCE8" x="53.5" y="31.285" width="35" height="40.323" rx="3"/>
      </g>
      <g stroke-width="3">
        <path stroke="#E2E8F0" fill="#E2E8F0" d="M546.726 316l6.863-.001v-32.457h-6.863z"/>
        <path d="M550.421 68.5c6.76 0 13.278 3.744 19.403 9.908 7.121 7.164 13.69 17.606 19.415 29.656 13.476 28.36 22.261 65.626 22.261 90.633 0 22.453-7.118 43.346-18.387 58.625-11.129 15.089-26.32 24.72-42.692 24.72-16.359 0-31.502-9.618-42.59-24.69-11.243-15.281-18.331-36.188-18.331-58.655 0-25.02 8.746-62.31 22.19-90.677 5.707-12.039 12.255-22.469 19.36-29.626 6.11-6.155 12.617-9.894 19.371-9.894z" stroke="#2DD4BF" fill="#CCFBF1"/>
      </g>
      <g transform="translate(105 162)">
        <rect stroke="#94A3B8" stroke-width="3" fill="#F1F5F9" x="1.5" y="1.5" width="155" height="13.241" rx="3"/>
        <rect stroke="#94A3B8" stroke-width="3" fill="#FFF" x="6.5" y="13.681" width="144" height="141.819" rx="3"/>
        <rect stroke="#94A3B8" stroke-width="3" fill="#FEFCE8" x="19.5" y="35.336" width="30" height="120.164" rx="3"/>
        <rect stroke="#94A3B8" stroke-width="3" fill="#FEFCE8" x="109.5" y="35.336" width="30" height="120.164" rx="3"/>
        <rect stroke="#C084FC" stroke-width="3" fill="#D8B4FE" x="63.5" y="96.241" width="32" height="59.259" rx="3"/>
        <path fill="#94A3B8" d="M62 152.94h35V157H62z"/>
        <rect stroke="#94A3B8" stroke-width="3" fill="#FEFCE8" x="63.5" y="33.983" width="32" height="51.138" rx="3"/>
      </g>
      <g stroke-width="3">
        <path stroke="#E2E8F0" fill="#E2E8F0" d="M82.386 282.562h6.878V315l-6.878-.133z"/>
        <path d="M86.09 109.5c16.219 0 30.843 10.927 41.639 27.184 11.58 17.44 18.771 41.073 18.771 64.549 0 22.808-6.814 43.465-17.866 58.415-10.91 14.76-25.964 23.957-42.634 23.957s-31.723-9.197-42.634-23.957C32.314 244.698 25.5 224.04 25.5 201.233c0-23.46 7.227-47.075 18.839-64.511 10.84-16.278 25.517-27.222 41.75-27.222z" stroke="#2DD4BF" fill="#CCFBF1"/>
      </g>
    </g>
    <g transform="translate(233 300.418)">
      <rect fill="#CCFBF1" x="8" y="426.582" width="282" height="2" rx="1"/>
      <path fill="#E2E8F0" d="M78.786 193.6l37.695-8.616 17.592 65.588L93 258.442z"/>
      <g transform="translate(0 84.582)" stroke="#334155" stroke-width="3">
        <path d="M109.433 101.362c1.985 8.777-2.627 14.952-15.482 14.489-12.855-.464-43.782-15.883-61.196-37.443-11.61-14.374-19.902-31.994-24.88-52.862 2.988-13.352 9.612-16.853 19.871-10.503 2.576 18.205 11.778 36.26 27.606 54.167 23.74 26.86 52.095 23.376 54.08 32.152z" fill="#14B8A6"/>
        <circle fill="#FDC6A2" cx="16" cy="16" r="14.5"/>
      </g>
      <g transform="matrix(-1 0 0 1 276.875 84.582)" stroke="#334155" stroke-width="3">
        <path d="M109.433 101.362c1.985 8.777-2.627 14.952-15.482 14.489-12.855-.464-43.782-15.883-61.196-37.443-11.61-14.374-19.902-31.994-24.88-52.862 2.988-13.352 9.612-16.853 19.871-10.503 2.576 18.205 11.778 36.26 27.606 54.167 23.74 26.86 52.095 23.376 54.08 32.152z" fill="#14B8A6"/>
        <circle fill="#FDC6A2" cx="16" cy="16" r="14.5"/>
      </g>
      <path d="M137.5 160.082c10.493 0 19.993 4.253 26.87 11.13 6.877 6.876 11.13 16.376 11.13 26.87h0v86h-76v-86c0-10.494 4.253-19.994 11.13-26.87 6.877-6.877 16.377-11.13 26.87-11.13z" stroke="#334155" stroke-width="3" fill="#14B8A6"/>
      <path d="M211 280.082c4.153 0 7.492.433 10.009 1.338 2.197.79 3.736 1.928 4.51 3.523.482.99.85 3.057 1.443 6.112.697 3.59 1.646 8.47 3.235 14.55 2.62 10.022 7.88 31.599 15.778 64.73-3.888-.008-6.875.115-8.962.364-1.349.161-2.356.384-3.03.64h0l-.024-.1c-.578-2.356-1.538-5.329-2.697-8.88l-.195-.598c-3.878-11.886-9.783-29.96-14.003-39.028-2.126-4.567-3.669-12.458-4.7-23.651h0H121a20.436 20.436 0 01-14.496-6.005 20.434 20.434 0 01-5.95-12.995h0z" stroke="#334155" stroke-width="3" fill="#CBD5E1"/>
      <path d="M68.125 179.09c2.847.176 4.972.915 6.375 2.216 1.403 1.302 2.196 3.27 2.379 5.904L95 272.585c.745-3.387 2.513-5.683 5.305-6.887 2.791-1.204 16.356-1.856 40.695-1.954 8.06-.055 15.258-.084 21.595-.086h1.633c20.176.009 31.193.303 33.053.882 3.719 1.158 7.359 6.173 7.78 10.764.137 1.5.207 6.807.21 15.922v1.135c-.003 9.425-.073 22.657-.21 39.697 8.834 28.706 13.48 43.31 13.939 43.81.11.12 1.107.171 2.707.177h.628c8.95-.025 32.815-1.157 33.399-.177.712 1.196.712 11.645 0 12.575-.712.93-42.978 2.43-46.734-1.757-2.504-2.792-10.504-16.16-24-40.104-48.9 2.043-75.228 1.64-78.982-1.207C100.386 341.104 95 329.763 93 323.786c-1.333-3.984-10.049-46.598-26.147-127.841-17.056 1.676-27.714 2.527-31.974 2.555h-.307c-.838-.002-1.386-.042-1.645-.12-2.266-.675-5.122-2.435-5.724-5.488-.602-3.053.288-7.488 2.297-8.422 1.34-.623 14.214-2.417 38.625-5.38zM150.178 269h-5.077c-19.842.008-38.691.105-40.101.301-3 .417-4.57 2.818-4.86 5.218-.089.728-.137 2.89-.145 6.486v2.329c.008 4.17.056 9.774.144 16.812h98.24c.565-15.256.565-23.798 0-25.627-.85-2.742-3.452-4.83-5.944-5.218-1.22-.19-21.518-.294-42.257-.301z" fill="#64748B"/>
      <g transform="translate(29 270.582)">
        <circle stroke="#94A3B8" stroke-width="5" cx="78" cy="78" r="68.5"/>
        <circle stroke="#FEF08A" stroke-width="7" cx="78" cy="78" r="74.5"/>
        <path fill="#CBD5E1" d="M12 76h132v5H12z"/>
        <path fill="#CBD5E1" d="M76 12h5v132h-5z"/>
        <path fill="#CBD5E1" d="M123.401 29.563l3.536 3.536-93.338 93.338-3.536-3.536z"/>
        <path fill="#CBD5E1" d="M30.063 33.099l3.536-3.536 93.338 93.338-3.536 3.536z"/>
        <circle fill="#FEF08A" cx="78" cy="78" r="14"/>
      </g>
      <g transform="translate(129 148.582)">
        <rect stroke="#334155" stroke-width="3" fill="#FDC6A2" x="1.5" y="1.5" width="15" height="18" rx="7"/>
        <path fill="#CFA589" d="M3 8.95L15 13V3H3z"/>
      </g>
      <g transform="translate(8)">
        <g stroke="#334155" stroke-width="3">
          <path d="M182.5 87.093l.234.01a12.46 12.46 0 018.105 3.64 12.46 12.46 0 013.661 8.839c0 3.451-1.4 6.576-3.661 8.838a12.46 12.46 0 01-8.105 3.64l-.234.01V87.093z" fill="#FDC6A2"/>
          <path d="M183.713 98.407l4.042 2.592"/>
        </g>
        <g stroke="#334155" stroke-width="3">
          <path d="M94.5 112.07l-.234-.01a12.46 12.46 0 01-8.105-3.64 12.46 12.46 0 01-3.661-8.838c0-3.452 1.4-6.577 3.661-8.84a12.46 12.46 0 018.105-3.64l.234-.008v24.977z" fill="#FDC6A2"/>
          <path d="M89.246 100.757l4.042-2.592"/>
        </g>
        <rect stroke="#334155" fill="#FFC4A4" x="94.5" y="25.082" width="87" height="131" rx="43.5"/>
        <path d="M107 141.582c4.667-18.617 8.667-28.525 12-29.723 5-1.797 32.5-.579 37.5-.277 3.333.2 7.288 10.867 11.865 32-6.91 8.152-17.365 12.152-31.365 12-14-.153-24-4.82-30-14z" stroke="#E7AC92" fill="#E7AC92"/>
        <path d="M138 25.582c-24.85 1.333-37.274 24-37.274 68s12.425 64.666 37.274 62c-23.748 0-43-19.252-43-43v-44c0-23.749 19.252-43 43-43z" fill-opacity=".4" fill="#FFD9C5"/>
        <path d="M138 25.582c23.748 0 43 19.251 43 43v45c0 23.748-19.252 43-43 43 24.758-4.667 37.136-26.5 37.136-65.5S162.758 30.248 138 25.582z" fill-opacity=".4" fill="#FFA473"/>
        <g transform="translate(107 82.582)">
          <path d="M12.5.5c3.314 0 6.314 1.343 8.485 3.515A11.962 11.962 0 0124.5 12.5h0v4H.5v-4c0-3.314 1.343-6.314 3.515-8.485A11.962 11.962 0 0112.5.5z" stroke="#334155" fill="#FFF"/>
          <ellipse fill="#334155" cx="12" cy="8.5" rx="6" ry="7.5"/>
          <circle fill="#FFF" cx="10" cy="6" r="2"/>
        </g>
        <g transform="translate(143 82.582)">
          <path d="M12.5.5c3.314 0 6.314 1.343 8.485 3.515A11.962 11.962 0 0124.5 12.5h0v4H.5v-4c0-3.314 1.343-6.314 3.515-8.485A11.962 11.962 0 0112.5.5z" stroke="#334155" fill="#FFF"/>
          <ellipse fill="#334155" cx="12" cy="8.5" rx="6" ry="7.5"/>
          <circle fill="#FFF" cx="10" cy="6" r="2"/>
        </g>
        <path d="M140.041 67.661c1.39-1.34 5.007-.79 8.95-.166l.66.104h0l.665.104c.333.051.666.102 1 .15h0l1.472.214c2.977.425 6.28 1.363 8.872 2.473 1.914.82 3.628 1.615 3.912 2.5.24.75-.183 1.744-.656 2.582-.325.577-.723 1.102-1.128 1.473-1.035.317-2.657-.268-4.577-.896-.534-.175-1.088-.356-1.655-.538h0l-.683-.216c-1.767-.555-3.577-1.07-5.111-1.342-1.737-.308-3.925-.178-6.037-.035-1.633.111-3.214.234-4.424.06h0l-.28-.038c-.323-.045-.619-.106-.767-.33-.654-.999-1.073-2.346-1.073-3.623 0-.932.213-1.851.86-2.476zM131.488 67.572c2.019 1.305 1.138 5.003 0 6.269s-8.524.411-12.244.903c-3.72.491-8.244 3.468-9.744 3.468s-3.985-3.468-3.5-5.346c.485-1.877 6.973-3.69 11.5-4.616 4.527-.926 11.97-1.982 13.988-.678z" stroke="#353535" stroke-width="3" fill="#BA8063"/>
        <path d="M135 92.962c.888-1.47 3.545-1.47 4 0 .455 1.47-.455 10.893 0 13.596.455 2.702 1.358 2.702 1 4.049-.358 1.347-2.624 1.49-3.5.98-.876-.51-.562-.296-1.5-3.893-.938-3.598-.888-13.262 0-14.732z" fill="#334155"/>
        <path d="M123 128.582h28c0 7.18-5.82 13-13 13h-2c-7.18 0-13-5.82-13-13z" fill="#E11D48"/>
        <path d="M130 128.582h14a7 7 0 01-14 0z" fill="#BE123C"/>
        <path d="M150 122.082a1.495 1.495 0 011.5 1.5h0v8a9.47 9.47 0 01-2.782 6.717 9.47 9.47 0 01-6.718 2.783h0-10a9.47 9.47 0 01-6.718-2.783 9.47 9.47 0 01-2.782-6.717h0v-8c0-.415.168-.79.44-1.061.27-.271.646-.44 1.06-.44h0z" stroke="#334155" stroke-width="3"/>
        <path fill="#FFF" d="M124 123.582h26v4h-26z"/>
        <path fill="#F0F9FF" d="M124 127.582h26v1h-26z"/>
        <rect fill="#CBD5E1" y="422.582" width="282" height="4" rx="2"/>
        <path d="M107 38.582c8.8 5.546 18.468 8.32 29.006 8.32s21.536-2.774 32.994-8.32l3 2.5c-12.85 6.416-24.848 9.583-35.994 9.5-11.146-.084-21.481-3.417-31.006-10l2-2z" fill="url(#a)"/>
        <path d="M104.938 41.582c-4.889 7.16-8.201 13.76-9.938 19.8-1.737 6.04-2.64 14.106-2.713 24.2h1.762c-.487-6.77.497-14.442 2.951-23.017s5.621-15.403 9.5-20.483l-1.562-.5z" fill="#936B57"/>
        <path d="M171 41.582c4.377 4.76 7.54 10.666 9.489 17.718 1.949 7.052 3.023 16.479 3.224 28.282H182c.278-10.342-.722-19.602-3-27.78-2.278-8.18-5.457-13.92-9.535-17.22l1.535-1z" fill="#855F4D"/>
        <path d="M92 86.582c-6-12.667-6.667-25.56-2-38.68l-8 7.524c-2-16.537 2-28.818 12-36.844s23-7.026 39 3c-5.79-10.026-14.81-15.822-27.062-17.387C115.945.357 125.3-.847 134 .582c8.7 1.429 16.367 5.429 23 12 11.807-.353 21.27 5.98 28.387 19 7.117 13.02 6.821 31.686-.887 56-.444-23.555-5.61-40.055-15.5-49.5-10.334 6.25-20.667 9.416-31 9.5-10.333.083-20.701-2.917-31.106-9-9.403 12.466-14.367 28.466-14.894 48z" stroke="#BA8063" fill="#BA8063"/>
      </g>
      <path d="M259 360.082c2.071 0 3.946.84 5.303 2.196a7.477 7.477 0 012.197 5.304h0v4c0 .966-.392 1.841-1.025 2.475a3.489 3.489 0 01-2.475 1.025h0-28a3.489 3.489 0 01-2.475-1.025 3.489 3.489 0 01-1.025-2.475h0v-4c0-2.071.84-3.946 2.197-5.304a7.477 7.477 0 015.303-2.196h0z" stroke="#334155" fill="#14B8A6"/>
      <path fill="#0D9488" d="M234 369.582h32v1h-32z"/>
    </g>
  </g>
</svg>