<svg viewBox="0 0 800 800" xmlns="http://www.w3.org/2000/svg"><g fill="none" fill-rule="evenodd"><path d="M368.19 706c117.054 13.172 184.782 92.291 315.727 20.828C859.507 631 727.292 404.78 727.292 355c0-67.995 17.03-171-60.514-258-77.544-87-282.487-24.027-382.61 15.215C89.557 188.489 13.48 482 44.48 615.052 76.94 754.357 196.443 686.673 368.19 706z" fill-opacity=".11" fill="#C084FC"/><g transform="translate(415 177)" fill-rule="nonzero"><path fill="#314E5D" d="M50.684 82.455l-6.87 4.918-10.18-14.218 6.869-4.919z"/><path d="M43.111 73.605l-2.736 1.97c-4.98 3.586-11.922 2.457-15.508-2.523-3.586-4.979-2.456-11.922 2.523-15.508l2.736-1.97c4.979-3.586 11.922-2.456 15.508 2.523 3.586 4.979 2.456 11.922-2.523 15.508z" fill="#E7E7E7"/><path d="M46 60.888a10.18 10.18 0 00-11.34.377l-4.056 2.928c-4.55 3.272-5.585 9.593-2.312 14.134l.486.673a10.056 10.056 0 01-2.88-2.692l-.987-1.346c-3.273-4.541-2.239-10.862 2.312-14.135L31.28 57.9c4.563-3.253 10.91-2.224 14.2 2.302l.52.687z" fill="#FFF"/><path d="M32.468 82c-4.018.007-7.792-1.973-10.141-5.318l-.974-1.38c-4.027-5.74-2.758-13.745 2.835-17.879l4.033-2.993a12.233 12.233 0 019.298-2.267c3.27.541 6.196 2.394 8.134 5.15l.974 1.38a13.071 13.071 0 012.21 9.575c-.535 3.366-2.356 6.375-5.06 8.358l-4.031 2.994A12.196 12.196 0 0132.468 82zm3.044-25.17a7.582 7.582 0 00-4.502 1.504l-4.033 2.993a8.009 8.009 0 00-3.167 5.194 8.145 8.145 0 001.353 5.967l.974 1.38c2.511 3.573 7.368 4.385 10.854 1.813l4.032-2.993a8.012 8.012 0 003.131-5.194 8.144 8.144 0 00-1.364-5.946l-.974-1.38a7.697 7.697 0 00-5.06-3.214 7.654 7.654 0 00-1.244-.124zM186.434 68.276l6.881 4.956-10.258 14.245-6.882-4.956z" fill="#314E5D"/><path d="M196.373 55.568l2.736 1.97c4.979 3.586 6.109 10.53 2.523 15.508-3.586 4.98-10.53 6.11-15.508 2.523l-2.736-1.97c-4.98-3.586-6.109-10.529-2.523-15.508 3.586-4.98 10.529-6.109 15.508-2.523z" fill="#E7E7E7"/><path d="M180 60.888a10.18 10.18 0 0111.34.377l4.056 2.928c4.55 3.272 5.585 9.593 2.312 14.134l-.486.673c1.129-.7 2.108-1.614 2.88-2.692l.987-1.346c3.273-4.541 2.239-10.862-2.312-14.135L194.72 57.9c-4.563-3.253-10.91-2.224-14.2 2.302l-.52.687z" fill="#FFF"/><path d="M193.532 82a12.213 12.213 0 01-7.285-2.414l-4.036-2.992c-2.696-1.983-4.512-4.984-5.047-8.341a13.056 13.056 0 012.195-9.554l.975-1.38c4.033-5.736 11.84-7.036 17.436-2.903l4.036 2.993c5.599 4.133 6.87 12.135 2.84 17.874l-.976 1.38c-2.344 3.348-6.117 5.335-10.138 5.337zM189 75.676c3.486 2.577 8.35 1.768 10.863-1.806l.976-1.38a8.134 8.134 0 001.365-5.944 8.008 8.008 0 00-3.134-5.192l-4.037-2.993a7.636 7.636 0 00-5.798-1.4 7.76 7.76 0 00-5.065 3.213l-.976 1.38a8.134 8.134 0 00-1.365 5.944 8.008 8.008 0 003.134 5.193L189 75.676z" fill="#314E5D"/><path fill="#CED0D0" d="M103 45h20v22h-20z"/><path d="M128.993 73H101V42h28l-.007 31zm-19.795-8.267h11.59V50.267h-11.583l-.007 14.466z" fill="#314E5D"/><rect fill="#E7E7E7" x="87" y="4" width="53" height="46" rx="15.07"/><path d="M141 10.626c-1.44-.771-9.202-3.944-10.949-3.944L105 11.458c-5.657 0-10.243 4.603-10.243 10.281v25.652c.008 1.234.239 2.457.68 3.609A10.28 10.28 0 0190 41.933V16.281C90 10.603 94.586 6 100.242 6h32.528c4.39 0 6.776.73 8.23 4.626z" fill="#FFF"/><circle fill="#E7E7E7" cx="112.5" cy="173.5" r="109.5"/><path d="M223 175.5a109.518 109.518 0 01-38.537 83.303A109.844 109.844 0 0196 283.635c57.112-.213 104.5-44.164 108.923-101.025C209.346 125.749 169.324 75.017 112.93 66h.416a109.732 109.732 0 0177.537 32.072A109.422 109.422 0 01223 175.499z" fill="#CED0D0"/><path d="M113.5 287C50.915 287 0 236.085 0 173.5S50.915 60 113.5 60 227 110.901 227 173.5 176.085 287 113.5 287zm0-218.82C55.428 68.18 8.18 115.428 8.18 173.5c0 58.072 47.248 105.32 105.32 105.32 58.072 0 105.32-47.261 105.32-105.32 0-58.059-47.248-105.32-105.32-105.32z" fill="#314E5D"/><circle fill="#FECDD3" cx="113" cy="174" r="87"/><path d="M203 172.98c.017 27.645-13.18 53.646-35.54 70.02 32.918-31.845 35.476-83.639 5.856-118.55C143.696 89.54 92.004 83.425 55 110.455c25.194-24.271 62.516-31.181 94.783-17.549 32.266 13.633 53.22 45.165 53.217 80.08v-.007z" fill="#FFF" opacity=".8"/><path d="M186 222.343c-20.622 30.93-58.63 45.294-94.536 35.726-35.905-9.567-61.742-40.944-64.263-78.04C24.681 142.93 46.036 108.342 80.316 94c-21.22 31.863-19.09 73.872 5.242 103.423 24.334 29.55 65.132 39.673 100.442 24.92z" fill="#FB7185"/><path d="M114 265c-50.178 0-91-40.822-91-91s40.822-91 91-91 91 40.822 91 91.034S164.178 265 114 265zm0-173.836c-45.744 0-82.83 37.08-82.836 82.825-.006 45.744 37.069 82.834 82.813 82.847 45.745.012 82.84-37.058 82.859-82.802-.034-45.74-37.096-82.817-82.836-82.87z" fill="#314E5D"/><path fill="#314E5D" d="M110 87h8v24h-8zM110 233h8v24h-8zM50.05 115.982l5.78-5.78 16.857 16.859-5.78 5.78zM153.124 219.065l5.78-5.78 16.858 16.858-5.78 5.78zM151.766 127.078l16.858-16.859 5.78 5.78-16.858 16.859zM48.69 230.125l16.859-16.858 5.78 5.78-16.859 16.858zM175 170h24v8h-24zM26 170h24v8H26z"/><circle fill="#E7E7E7" cx="109" cy="175" r="17"/><path d="M127 175c0 9.389-7.717 17-17.236 17-1.074 0-2.145-.1-3.2-.3 7.336-2.57 12.014-9.672 11.414-17.328-.6-7.656-6.329-13.964-13.978-15.393 1.85-.652 3.8-.984 5.764-.979 9.52 0 17.236 7.611 17.236 17z" fill="#CED0D0"/><path d="M127.639 163.515l18.875-18.877c4.604-4.604-2.542-11.757-7.153-7.153l-18.875 18.877c-4.604 4.604 2.542 11.757 7.153 7.153z" fill="#314E5D"/><path d="M111 194c-11.598 0-21-9.402-21-21s9.402-21 21-21 21 9.402 21 21-9.402 21-21 21zm0-33.871c-7.108 0-12.871 5.763-12.871 12.871 0 7.108 5.763 12.871 12.871 12.871 7.108 0 12.871-5.763 12.871-12.871 0-7.108-5.763-12.871-12.871-12.871z" fill="#314E5D"/><path d="M139 14.422v25.726c-.002 4.521-3.011 8.515-7.425 9.852-2.622-5.83-4.411-11.87-4.565-18.254-.21-9.113 2.957-17.693 7.516-25.746 2.808 1.923 4.479 5.068 4.474 8.422z" fill="#CED0D0"/><path d="M130.72 54H98.28c-7.883-.007-14.273-6.391-14.28-14.269V14.27C84.007 6.39 90.397.007 98.28 0h32.44c7.883.007 14.273 6.391 14.28 14.269V39.73c-.007 7.878-6.397 14.262-14.28 14.269zM98.28 8.126a6.152 6.152 0 00-6.147 6.143V39.73a6.152 6.152 0 006.148 6.143h32.438a6.152 6.152 0 006.148-6.143V14.27a6.152 6.152 0 00-6.148-6.143H98.281z" fill="#314E5D"/><path d="M107.017 74.056c-6.742.19-13.606 1.754-20.062 3.624a106.64 106.64 0 00-40.69 22.26 109.663 109.663 0 00-21.96 27.011c-1.36 2.28 2.19 4.342 3.524 2.048 15.627-26.69 42.302-45.523 72.915-50.22a51.596 51.596 0 016.287-.682c2.619-.075 2.632-4.171 0-4.096l-.014.055z" fill="#FFF"/></g><g fill-rule="nonzero"><path fill="#E7E7E7" d="M335.895 310.68L562.06 530.001l-40.122 41.375-226.166-219.323z"/><path d="M558 527.585L517.966 569l-83.728-81.409c16.153 12.793 33.337 25.973 51.886 29.992 9.184 1.99 19.192 1.06 23.34-5.84 3.414-5.686 1.906-14.215-2.087-21.387-3.993-7.171-10.15-13.322-16.268-19.073-48.691-45.317-109.76-78.824-147.489-132.748A123.324 123.324 0 01329 311.399l3.285-3.399L558 527.585z" fill="#CED0D0"/><path d="M522.139 583L285 352.572 335.861 300 573 530.428 522.139 583zm-215.25-230.738l214.914 208.802 29.32-30.3-214.926-208.828-29.307 30.326z" fill="#314E5D"/><path d="M533.849 523.441l-34.263-33.335c-3.55-3.46-8.973 1.993-5.435 5.453l34.263 33.335c3.55 3.46 8.973-1.993 5.435-5.453zM484.86 477.363l-17.338-17.244c-3.516-3.5-8.886 2.017-5.382 5.518l17.338 17.244c3.516 3.5 8.886-2.017 5.382-5.518z" fill="#FFF"/><path d="M230.978 208.293l6.125 5.94c5.816 5.64 5.959 14.927.319 20.744l-20.587 21.229c-5.64 5.816-14.928 5.959-20.744.319l-6.125-5.94c-5.817-5.64-5.96-14.928-.32-20.744l20.588-21.23c5.64-5.816 14.928-5.958 20.744-.318z" fill="#E7E7E7"/><path d="M240.997 221.684a19.08 19.08 0 01-2.726 10.164L228.53 242c5.016-8.255 3.071-19.002-4.512-24.93-7.583-5.927-18.368-5.131-25.018 1.847l9.74-10.152c5.29-5.51 13.345-7.258 20.408-4.427 7.062 2.832 11.74 9.684 11.85 17.359v-.013z" fill="#FFF"/><path d="M222 250.73l-6.936 7.19c-8.023 5.282-18.685 3.624-24.77-3.853-6.087-7.478-5.656-18.39 1-25.351l14.551-15.186a18.664 18.664 0 016.783-4.53l-9.91 10.384c-6.013 6.268-7.04 15.873-2.491 23.298 4.548 7.425 13.503 10.764 21.722 8.099l.051-.052z" fill="#CED0D0"/><path d="M205.773 265a26.695 26.695 0 01-18.633-7.505 26.526 26.526 0 01-8.137-18.694 26.515 26.515 0 017.554-18.934l14.707-15.061c10.343-10.289 27.084-10.424 37.594-.303 10.51 10.12 10.895 26.748.866 37.338l-14.708 15.062a26.687 26.687 0 01-18.815 8.084l-.428.013zm14.747-52.831a11.232 11.232 0 00-8.073 3.386l-14.72 15.061a11.122 11.122 0 00-3.168 7.942 11.126 11.126 0 003.414 7.84 11.195 11.195 0 007.775 3.154h.181a11.205 11.205 0 007.93-3.424l14.695-15.036a11.106 11.106 0 002.279-12.1c-1.75-4.122-5.81-6.808-10.313-6.823z" fill="#314E5D"/><path d="M662.634 626.877l6.125 5.94c5.816 5.64 5.959 14.928.318 20.744l-20.587 21.23c-5.64 5.816-14.927 5.958-20.744.318l-6.125-5.94c-5.816-5.64-5.959-14.928-.318-20.744l20.587-21.23c5.64-5.815 14.928-5.958 20.744-.318z" fill="#E7E7E7"/><path d="M671.997 639.677a19.092 19.092 0 01-2.726 10.168L659.53 660c4.991-8.257 3.036-18.987-4.537-24.906-7.574-5.919-18.341-5.131-24.993 1.828l9.74-10.155c5.29-5.513 13.345-7.26 20.408-4.428 7.062 2.832 11.74 9.686 11.85 17.364v-.026z" fill="#FFF"/><path d="M653 668.73l-6.905 7.19c-8.031 5.282-18.705 3.624-24.797-3.853-6.093-7.478-5.662-18.39 1.001-25.351l14.568-15.186a18.685 18.685 0 016.79-4.53l-9.922 10.384c-6.018 6.268-7.046 15.873-2.493 23.298 4.553 7.425 13.518 10.764 21.745 8.099l.013-.052z" fill="#CED0D0"/><path d="M636.655 683a26.658 26.658 0 01-18.563-7.463c-10.559-10.196-10.818-26.966-.58-37.48l14.68-15.002c6.631-6.799 16.408-9.564 25.647-7.254 9.238 2.31 16.536 9.344 19.143 18.452a26.394 26.394 0 01-6.505 25.705l-14.64 15.002a26.665 26.665 0 01-19.182 8.04zm-7.74-18.516c4.438 4.267 11.513 4.158 15.815-.244l14.55-15.027a11.081 11.081 0 003.154-7.911 11.086 11.086 0 00-3.398-7.81 11.285 11.285 0 00-7.96-3.141 11.151 11.151 0 00-7.855 3.372l-14.641 15.002a11.083 11.083 0 00.245 15.72l.09.04z" fill="#314E5D"/><path d="M379.818 209.47l11.132 10.796c10.562 10.242 10.821 27.108.579 37.67L244.172 409.89c-10.242 10.562-27.108 10.821-37.67.579l-11.132-10.796c-10.562-10.242-10.821-27.108-.578-37.67L342.148 210.05c10.243-10.562 27.108-10.821 37.67-.578zM299.09 192.694l11.132 10.795c10.562 10.242 10.82 27.108.578 37.67l-85.873 88.553c-10.243 10.562-27.108 10.821-37.67.579l-11.133-10.796c-10.562-10.242-10.82-27.108-.578-37.67l85.874-88.553c10.242-10.562 27.108-10.82 37.67-.578z" fill="#747679"/><path d="M316.994 216.945a34.458 34.458 0 01-9.71 24.633L289.468 260a34.608 34.608 0 008.398-33.5c-3.37-11.868-12.798-21.033-24.734-24.042A34.387 34.387 0 00240 211.915l17.881-18.474c9.703-9.99 24.444-13.148 37.371-8.008 12.927 5.14 21.503 17.57 21.742 31.512zM388.224 257.544L370.385 276a34.551 34.551 0 008.39-33.445c-3.363-11.85-12.775-21.003-24.692-24.008A34.335 34.335 0 00321 227.985l17.852-18.43a34.327 34.327 0 0133.113-9.522c11.942 2.999 21.375 12.17 24.731 24.045a34.542 34.542 0 01-8.472 33.48v-.014z" fill="#87898D"/><path d="M331 222a34.197 34.197 0 01-7.096 10.576l-75.448 77.1A34.546 34.546 0 01238 317l93-95zM236 318.761l-8.536 8.77c-13.31 13.663-35.226 13.996-48.949.744-13.723-13.252-14.057-35.07-.747-48.733l19.06-19.571a34.58 34.58 0 005.95-4.89l8.536-8.77a34.617 34.617 0 006.497-3.311l-19.021 19.57c-11.29 11.609-12.967 29.466-4.034 42.956 8.934 13.49 26.08 18.992 41.244 13.235z" fill="#595A5B"/><path d="M254.767 398.708l-8.51 8.786c-8.557 8.847-21.21 12.462-33.174 9.477-11.964-2.984-21.414-12.112-24.777-23.933a34.227 34.227 0 018.488-33.325l40.67-41.79a34.437 34.437 0 0010.423-7.343l75.211-77.294a34.296 34.296 0 007.048-10.602l3.44-3.53A34.138 34.138 0 01346 211L217.717 342.76c-11.267 11.557-12.948 29.366-4.04 42.813 8.907 13.447 26.005 18.91 41.103 13.135h-.013z" fill="#595A5B"/><path d="M223.148 419a42.053 42.053 0 01-29.353-11.859c-16.695-16.206-17.106-42.852-.917-59.563L329.55 206.799c16.215-16.7 42.914-17.111 59.636-.916 16.72 16.195 17.131 42.862.917 59.563l-136.66 140.78A42.077 42.077 0 01223.148 419zm-18.552-22.969c10.582 10.222 27.45 9.962 37.71-.58L378.98 254.67c10.253-10.56 9.993-27.424-.581-37.665-10.574-10.24-27.458-9.98-37.711.58L204.014 358.354c-10.233 10.569-9.973 27.416.582 37.665v.013z" fill="#314E5D"/><path d="M204.032 339c-16.886-.002-32.132-10.149-38.71-25.763-6.578-15.614-3.212-33.664 8.548-45.83l74.904-77.58c10.457-10.827 25.872-15.23 40.438-11.551 14.567 3.678 26.072 14.88 30.182 29.384 4.11 14.504.201 30.107-10.255 40.933l-74.905 77.58A41.69 41.69 0 01204.702 339h-.67zm74.931-146.446a26.454 26.454 0 00-19.074 8.095l-74.905 77.58a26.744 26.744 0 00-7.498 18.992 26.738 26.738 0 008.078 18.75c10.539 10.256 27.362 9.995 37.581-.581l74.905-77.58c7.438-7.693 9.567-19.11 5.403-28.982-4.164-9.872-13.81-16.283-24.49-16.274z" fill="#314E5D"/><path d="M475.038 670.823l-11.132-10.796c-10.562-10.242-10.821-27.108-.579-37.67l147.357-151.954c10.242-10.562 27.108-10.82 37.67-.578l11.132 10.795c10.562 10.242 10.821 27.108.579 37.67L512.708 670.244c-10.243 10.562-27.108 10.821-37.67.579zM555.778 687.602l-11.132-10.795c-10.562-10.243-10.822-27.108-.579-37.67l85.874-88.553c10.242-10.562 27.108-10.821 37.67-.579l11.132 10.795c10.562 10.243 10.821 27.108.579 37.67l-85.874 88.553c-10.243 10.563-27.108 10.822-37.67.58z" fill="#747679"/><path d="M654.023 544.004a34.217 34.217 0 00-24.175 10.485L612 572.97a34.327 34.327 0 0133.372-10.103c12.127 2.955 21.708 12.269 25.038 24.338 3.33 12.07-.114 25.002-9 33.795l17.874-18.43c9.695-10.024 12.414-24.924 6.89-37.747-5.525-12.823-18.206-21.04-32.125-20.819h-.026zM610.829 473.553L593 492.006a34.34 34.34 0 0133.12-9.52c11.943 2.997 21.377 12.167 24.735 24.04A34.528 34.528 0 01642.38 540l17.841-18.452a34.528 34.528 0 008.474-33.474c-3.357-11.874-12.79-21.043-24.735-24.04a34.34 34.34 0 00-33.12 9.52h-.012z" fill="#87898D"/><path d="M648 531a34.556 34.556 0 00-10.459 7.324l-75.469 77.1A34.195 34.195 0 00555 626l93-95zM555.063 628l-8.46 8.752c-13.118 13.645-12.75 35.356.821 48.548 13.572 13.191 35.232 12.89 48.434-.672l18.89-19.53a34.377 34.377 0 014.688-6.054l8.46-8.752a34.373 34.373 0 013.104-6.596l-18.89 19.53c-11.207 11.567-28.924 13.78-42.62 5.323-13.694-8.457-19.692-25.314-14.427-40.549z" fill="#595A5B"/><path d="M474.23 610.834l-8.475 8.764a34.437 34.437 0 00-8.454 33.39c3.35 11.845 12.762 20.991 24.678 23.981a34.266 34.266 0 0033.044-9.496l40.509-41.873a34.38 34.38 0 017.02-10.623l74.912-77.446a34.301 34.301 0 0110.382-7.358l3.426-3.536A34.076 34.076 0 00659 514L531.278 646.072c-11.204 11.588-28.942 13.81-42.648 5.344-13.707-8.466-19.695-25.345-14.4-40.582z" fill="#595A5B"/><path d="M496.148 684a42.053 42.053 0 01-29.353-11.859c-16.695-16.205-17.106-42.852-.917-59.563L602.55 471.8a42.207 42.207 0 0140.563-11.527 42.15 42.15 0 0130.276 29.324 42.087 42.087 0 01-10.287 40.85L526.43 671.225A42.077 42.077 0 01496.148 684zm-18.565-22.981c10.582 10.22 27.45 9.961 37.71-.581l136.673-140.779c10.253-10.561 9.992-27.424-.582-37.665-10.574-10.24-27.458-9.98-37.71.58L477 623.353c-10.233 10.569-9.973 27.417.582 37.666z" fill="#314E5D"/><path d="M577.033 701c-16.887-.002-32.133-10.149-38.711-25.763-6.578-15.614-3.212-33.664 8.548-45.831l74.905-77.58c16.164-16.736 42.781-17.147 59.45-.919 16.67 16.228 17.079 42.95.915 59.686l-74.906 77.58A41.69 41.69 0 01577.702 701h-.67zm74.93-146.447a26.455 26.455 0 00-19.125 8.108l-74.905 77.58a26.745 26.745 0 00-7.498 18.992 26.738 26.738 0 008.077 18.751 26.526 26.526 0 0018.918 7.528 26.533 26.533 0 0018.677-8.11l74.905-77.58c7.439-7.693 9.567-19.109 5.403-28.982-4.164-9.872-13.81-16.283-24.49-16.274l.039-.013z" fill="#314E5D"/><path d="M580.559 571.837l33.335-34.253c3.46-3.55-1.993-8.97-5.453-5.433l-33.335 34.265c-3.46 3.55 1.993 8.97 5.453 5.433v-.012zM627.65 522.86l17.231-17.338c3.5-3.516-2.017-8.886-5.518-5.382l-17.244 17.338c-3.5 3.516 2.017 8.886 5.518 5.382h.013z" fill="#FFF"/></g></g></svg>