<svg viewBox="0 0 800 800" xmlns="http://www.w3.org/2000/svg">
  <defs>
    <linearGradient x1="115.855%" y1="55.79%" x2="20.957%" y2="43.268%" id="a">
      <stop stop-color="#FDAABB" offset="0%"/>
      <stop stop-color="#FB7185" offset="100%"/>
    </linearGradient>
  </defs>
  <g fill="none" fill-rule="evenodd">
    <path d="M105.193 366.558C92.021 483.612 12.902 551.341 84.365 682.286c95.828 175.589 322.047 43.375 371.828 43.375 67.995 0 171 17.03 258-60.515 87-77.543 24.027-282.486-15.215-382.61C622.704 87.928 329.193 11.849 196.141 42.85 56.836 75.308 124.52 194.812 105.193 366.558z" fill-opacity=".15" fill="#7DD3FC"/>
    <g stroke="#64748B" stroke-linecap="round" stroke-linejoin="round" stroke-width="4">
      <path d="M497 539h97M431 514h58M279 379v-30M177 526h446"/>
    </g>
    <path d="M261.137 524.813h-28.32c-5.522 0-10-4.477-10-10V280.46c0-10.582 8.579-19.16 19.16-19.16h0l19.16 263.513z" stroke="#64748B" stroke-width="4" fill="#E2E8F0"/>
    <path d="M229.6 509.8V281.3c0-11.046 8.954-20 20-20h85.647c11.046 0 20 8.954 20 20v.8h48.458v237.7H239.6c-5.523 0-10-4.477-10-10z" stroke="#64748B" stroke-width="4" fill="#EAB308"/>
    <path stroke="#64748B" stroke-width="4" fill="#FFF" d="M238.3 299.8v220h12.071v-220z"/>
    <path stroke="#64748B" stroke-width="4" fill="#FFF" d="M246.3 299.8v220h12.071v-220z"/>
    <path stroke="#64748B" stroke-width="4" fill="#FFF" d="M254.3 299.8v220h12.071v-220z"/>
    <path d="M391.908 282.1l-5.423.035c-5.497.036-9.935 4.503-9.935 10v6.065h15.358v-16.1zM280.379 296.8h-5.86c-5.522 0-10 4.477-10 10v213h15.86v-223z" stroke="#64748B" stroke-width="4" fill="#E2E8F0"/>
    <path d="M261.137 522.687H568c5.523 0 10-4.477 10-10V292.1c0-5.523-4.477-10-10-10H395.13c-5.522 0-10 4.477-10 10v4.7h0-102.548c-5.491 0-9.955 4.428-10 9.919-1.09 134.378-1.636 203.181-1.636 206.409 0 3.306-3.27 6.492-9.81 9.56z" stroke="#64748B" stroke-width="4" fill="#FEF08A"/>
    <path d="M570.053 365.989L556.4 305l-147.3-21.042h157.89c2.597.379 4.591 1.071 5.985 2.077 1.393 1.006 2.403 2.685 3.03 5.036v74.918h-5.952z" fill="#FEF9C3"/>
    <path d="M276.16 305.339L292.1 509.3l283.613 4.9-6.29 6.887H269.011c2.737-2.623 4.105-4.454 4.105-5.492 0-1.039.368-69.454 1.103-205.247l1.94-5.01z" fill="#FDE047"/>
    <g transform="translate(418 368)" stroke="#64748B" stroke-width="4">
      <path d="M10 0h150v115H10c-5.523 0-10-4.477-10-10V10C0 4.477 4.477 0 10 0z" fill="url(#a)"/>
      <rect fill="#F1F5F9" x="28" y="29" width="85" height="12" rx="6"/>
      <rect fill="#F1F5F9" x="28" y="51" width="110" height="12" rx="6"/>
      <rect fill="#F1F5F9" x="28" y="74" width="99" height="12" rx="6"/>
    </g>
  </g>
</svg>