<svg viewBox="0 0 800 800" xmlns="http://www.w3.org/2000/svg"><g fill="none" fill-rule="evenodd"><path d="M207.256 24.013C72.493 60.123 7.628 255.027 62.374 459.344c54.747 204.318 208.375 340.677 343.137 304.568 56.392-15.11 78.725-107.74 151.442-153.424 101.06-63.489 243.516-93.894 211.678-212.714C713.885 193.457 342.02-12.096 207.256 24.013z" fill-opacity=".09" fill="#FB7185"/><g transform="translate(214 342)"><rect stroke="#0D9488" stroke-width="10" fill="#99F6E4" x="5" y="5" width="459" height="192" rx="20"/><circle stroke="#5EEAD4" stroke-width="10" fill="#99F6E4" cx="234.5" cy="100.5" r="57.5"/><path d="M19 10h49c0 32.033-25.967 58-58 58V19a9 9 0 019-9zM10 134c32.033 0 58 25.967 58 58H20c-5.523 0-10-4.477-10-10v-48zM401 10h49a9 9 0 019 9v49c-32.033 0-58-25.967-58-58zM459 134v49a9 9 0 01-9 9h-49c0-32.033 25.967-58 58-58z" fill="#5EEAD4"/><path d="M249.681 82.094l1.73-4.317a2 2 0 00-1.346-2.678l-9.753-2.578.277-7.169a2.001 2.001 0 00-1.921-2.076l-5.017-.195a2 2 0 00-2.077 1.998v7.442c-7.202.635-11.432 5.365-12.69 14.19-1.886 13.238 22.754 16.472 22.754 25.482 0 5.752-6.738 6.332-20.215 1.741a2 2 0 00-2.517 1.19l-2.136 5.679a2 2 0 001.34 2.631l11.01 3.045V134a2 2 0 002 2h4.738a2 2 0 002-2v-7.521C247.953 124.895 253 119.73 253 110.987c0-13.116-21.426-16.013-21.426-24.276 0-5.23 5.236-6.374 15.71-3.435a2 2 0 002.397-1.182z" fill="#2DD4BF"/><rect fill="#F0FDFA" x="37" y="168" width="91" height="9" rx="4.5"/><rect fill="#F0FDFA" x="143" y="168" width="35" height="9" rx="4.5"/><rect fill="#F0FDFA" x="290" y="25" width="91" height="9" rx="4.5"/><rect fill="#F0FDFA" x="396" y="25" width="35" height="9" rx="4.5"/></g><path d="M214 177.5c37.693 0 71.818 15.278 96.52 39.98 24.702 24.702 39.98 58.827 39.98 96.52s-15.278 71.818-39.98 96.52c-24.702 24.702-58.827 39.98-96.52 39.98s-71.818-15.278-96.52-39.98C92.778 385.818 77.5 351.693 77.5 314s15.278-71.818 39.98-96.52c24.455-24.455 58.145-39.673 95.39-39.975l1.13-.005h0zm0 56.372c-22.127 0-42.159 8.969-56.659 23.469-14.5 14.5-23.469 34.532-23.469 56.659 0 22.127 8.969 42.159 23.469 56.659 14.5 14.5 34.532 23.469 56.659 23.469 22.127 0 42.159-8.969 56.659-23.469 14.5-14.5 23.469-34.532 23.469-56.659 0-22.127-8.969-42.159-23.469-56.659-14.5-14.5-34.532-23.469-56.659-23.469z" stroke="#5D6587" stroke-width="3" fill="#FFF"/><path d="M91 257.56l52.492 16.476C135.831 291.372 132 305.693 132 317c0 11.307 3 22.524 9 33.65l-47.831 23.938C83.84 356.224 79.176 337.028 79.176 317S83.117 277.158 91 257.56z" fill="#EBEFF7"/><path d="M256 384.422l7 12.29c-26.55 12.739-53.408 15.573-80.571 8.503-12.374-3.221-30.986-13.806-38.692-23.807-6.14-7.969-9.196-23.168-9.166-45.596 10.226 25.065 25.281 42.563 45.165 52.493s45.305 8.636 76.264-3.883z" fill="#BBD2E6"/><path d="M148.18 212.048c22.462-11.673 44.403-17.351 65.82-17.035 21.417.317 42.75 6.311 64 17.983l-17.371 33.277c-15.114-9.935-30.657-14.766-46.629-14.491-15.972.274-31.174 5.105-45.605 14.491l-20.216-34.225zM318.879 264c14.09 18.95 22.524 36.782 25.305 53.495 2.781 16.714-1.548 35.215-12.987 55.505l-43.612-22.797c5.477-9.149 8.216-19.846 8.216-32.09 0-12.246-2.425-24.984-7.275-38.215L318.879 264z" stroke="#EBEFF7" fill="#EBEFF7"/><path d="M91 256.548L142.385 273l10.817-12.172L167 247.005 139.005 200c-11.243 5.66-20.917 13.857-29.02 24.59-8.104 10.733-14.432 21.386-18.985 31.958zM141.916 429L171 382.801l-14.65-13.365L141.114 351 93 376.399c4.873 10.766 11.379 20.647 19.516 29.643 8.138 8.996 17.938 16.649 29.4 22.958zM286.758 200.5L262.5 247.696l13.65 16.096 10.608 16.708 50.742-23.533c-5.787-13.864-12.857-25.72-21.21-35.567-8.352-9.848-18.196-16.815-29.532-20.9zM335 375.896L285.018 351c-2.869 7.058-6.709 13.213-11.52 18.464-4.811 5.252-10.644 9.655-17.498 13.21L282.088 432c11.12-6.69 21.22-14.179 30.297-22.468 9.077-8.29 16.615-19.502 22.615-33.636z" stroke="#5D6587" stroke-width="3" fill="#FF7077"/><g transform="translate(205 164)"><rect stroke="#5D6587" stroke-width="3" fill="#EFC69A" x="1.5" y="1.5" width="18" height="81" rx="9"/><path d="M8.692 4.154v76a6 6 0 01-6-6v-64a6 6 0 016-6z" fill="#9B8261"/></g><g transform="rotate(-90 304 23.5)"><rect stroke="#5D6587" stroke-width="3" fill="#EFC69A" x="1.5" y="1.5" width="18" height="81" rx="9"/><path d="M9.692 3.154v78a6 6 0 01-6-6v-66a6 6 0 016-6z" fill="#9B8261"/></g><g transform="rotate(-90 195 132.5)"><rect stroke="#5D6587" stroke-width="3" fill="#EFC69A" x="1.5" y="1.5" width="18" height="81" rx="9"/><path d="M9.692 3.154v77a6 6 0 01-6-6v-65a6 6 0 016-6z" fill="#9B8261"/></g><g transform="rotate(-180 113 231.5)"><rect stroke="#5D6587" stroke-width="3" fill="#EFC69A" x="1.5" y="1.5" width="18" height="81" rx="9"/><path d="M9.692 3.154v78a7 7 0 01-7-7v-64a7 7 0 017-7z" fill="#9B8261"/></g></g></svg>