<svg viewBox="0 0 800 800" xmlns="http://www.w3.org/2000/svg">
  <g fill="none" fill-rule="evenodd">
    <path d="M137.11 473.56c41.863 95.914 11.075 183.17 124.226 252.174 151.73 92.53 267.052-109.685 305.353-131.798 52.316-30.205 139.133-62.859 171.625-161.168 32.492-98.31-106.998-228.02-181.668-287.623C411.513 29.295 151.89 101.142 63.29 184.098c-92.764 86.855 12.398 148.735 73.82 289.463z" fill-opacity=".11" fill="#C084FC"/>
    <g transform="translate(193 164.706)">
      <g transform="translate(77 374.294)">
        <rect stroke="#475569" stroke-width="4" fill="#0EA5E9" x="2" y="2" width="70" height="33" rx="16.5"/>
        <path d="M4.222 16C7.176 22.844 18.102 26.267 37 26.267c18.898 0 29.627-1.59 32.188-4.767a13.377 13.377 0 01-13.225 11.364h-37.5c-7.978 0-14.445-6.467-14.445-14.445 0-.81.068-1.62.204-2.419z" fill="#0284C7"/>
      </g>
      <g transform="translate(254 374.294)">
        <rect stroke="#475569" stroke-width="4" fill="#0EA5E9" x="2" y="2" width="70" height="33" rx="16.5"/>
        <path d="M4.222 16C7.176 22.844 18.102 26.267 37 26.267c18.898 0 29.627-1.59 32.188-4.767a13.377 13.377 0 01-13.225 11.364h-37.5c-7.978 0-14.445-6.467-14.445-14.445 0-.81.068-1.62.204-2.419z" fill="#0284C7"/>
      </g>
      <rect stroke="#475569" stroke-width="6" fill="#38BDF8" x="3" y="31.294" width="399" height="356" rx="30"/>
      <rect fill="#0EA5E9" x="6" y="47.294" width="393" height="337" rx="23"/>
      <path d="M6 328.294c27.034 15.683 75.867 23.525 146.5 23.525s152.8-7.842 246.5-23.525v33c0 12.703-10.297 23-23 23H29c-12.703 0-23-10.297-23-23v-33z" fill="#0284C7"/>
      <path d="M94.675 30.294c-.138-10.404 2.382-18.338 7.559-23.803 7.766-8.197 70.888-9.101 77.888 0 4.667 6.068 7.293 14.002 7.878 23.803H94.675z" stroke="#475569" stroke-width="4" fill="#F8FAFC"/>
      <path d="M98.427 18.224c1.66-6.721 5.149-11.006 10.463-12.855 5.315-1.85 16.13-2.875 32.445-3.075 15.632-.237 26.247.788 31.847 3.075 5.6 2.286 8.675 5.546 9.226 9.778-4.101-6.407-17.737-9.342-40.908-8.805-23.17.537-37.529 4.498-43.073 11.882z" fill="#E2E8F0"/>
    </g>
    <g transform="translate(223 219)">
      <path d="M340.5 125.316c22.333 4.231 35.167 8.805 38.5 13.72 5 7.371 3.077 44.035 0 48.909-2.052 3.25-14.885 6.984-38.5 11.206v-73.835z" stroke="#475569" stroke-width="4" fill="#F8FAFC"/>
      <path d="M367.977 134.718c6.104 1.521 9.779 4.406 11.023 8.654 1.866 6.371 1.866 36.917 0 41.356s-8.061 5.386-7.912 5.138c6.65-11.056 5.17-35.921 3.912-42.533-1.311-6.89-3.652-11.094-7.023-12.615z" fill="#E2E8F0"/>
      <rect stroke="#475569" stroke-width="6" fill="#7DD3FC" x="3" y="3" width="339" height="303" rx="30"/>
      <path d="M6.021 112.055C30.964 92 66.112 75.98 111.467 64c68.033-17.972 112.835 7.578 156.528 3 29.128-3.052 52.797-12.052 71.005-27v181.75c-22.079-7.84-45.747-9.423-71.005-4.75-37.887 7.009-141.03 50-181.995 50.002-27.31 0-53.97-3.407-79.979-10.222V112.055z" fill="#0284C7"/>
      <g transform="translate(323 203)">
        <rect stroke="#475569" stroke-width="4" fill="#7DD3FC" x="2" y="2" width="31" height="66" rx="10"/>
        <path d="M6.009 5.189C9.489 1.809 24.232 3.205 28 4.603c2.512.931 3.512 2.4 3 4.403-6-1.526-11.34-1.17-16.021 1.068-4.68 2.238-8.336 5.439-10.967 9.603C3.023 12.27 3.69 7.442 6.01 5.189z" fill="#38BDF8"/>
      </g>
      <g transform="translate(323 34)">
        <rect stroke="#475569" stroke-width="4" fill="#7DD3FC" x="2" y="2" width="31" height="66" rx="10"/>
        <path d="M6.009 5.189C9.489 1.809 24.232 3.205 28 4.603c2.512.931 3.512 2.4 3 4.403L4.012 19.676C3.023 12.272 3.69 7.443 6.01 5.19z" fill="#38BDF8"/>
      </g>
    </g>
    <g transform="translate(298.935 276.193)">
      <circle stroke="#475569" stroke-width="4" fill="#38BDF8" cx="98.065" cy="96.807" r="85"/>
      <circle stroke="#475569" stroke-width="4" fill="#E0F2FE" cx="97.065" cy="95.807" r="58"/>
      <path d="M126.065 109.17c16.725 12.425 29.878 18.97 39.46 19.637 14.373 1 20.788-8.755 16.547-19.636-2.828-7.255-8.343-11.209-16.547-11.864l-39.46-2v13.864z" fill-opacity=".3" fill="#475569"/>
      <path d="M123.065 82.021c28.413-8.92 46.545-12.549 54.397-10.885 11.779 2.495 16.603 12.171 16.603 20.671s-6.399 19.973-16.603 21.805c-6.803 1.22-24.957-1.88-54.462-9.305l.065-22.286z" stroke="#475569" stroke-width="4" fill="#EFC69A"/>
      <path d="M125.707 94.807c25.09-8.814 41.249-13.481 48.475-14 7.227-.518 13.186 2.476 17.878 8.982-.893-5.217-2.482-8.778-4.766-10.683-3.426-2.858-2.711-6.523-15.237-6.523-8.35 0-24.014 3.575-46.992 10.724l.642 11.5z" fill="#A98A61"/>
      <path d="M112.328 122.343c12.425 16.725 18.97 29.878 19.637 39.46 1 14.373-8.756 20.789-19.637 16.547-7.254-2.828-11.208-8.343-11.863-16.547l-2-39.46h13.863z" fill-opacity=".3" fill="#475569"/>
      <path d="M108.322 119.343c8.92 28.413 12.55 46.545 10.886 54.398-2.496 11.778-12.172 16.602-20.672 16.602s-19.973-6.398-21.804-16.602c-1.221-6.803 1.88-24.957 9.304-54.463l22.286.065z" stroke="#475569" stroke-width="4" fill="#EFC69A"/>
      <path d="M95.536 121.986c8.815 25.09 13.481 41.248 14 48.475.519 7.226-2.475 13.186-8.982 17.877 5.218-.893 8.779-2.481 10.684-4.766 2.857-3.426 6.523-2.71 6.523-15.237 0-8.35-3.575-24.014-10.725-46.992l-11.5.643z" fill="#A98A61"/>
      <g>
        <path d="M68 107.606c-16.724 12.425-29.878 18.97-39.46 19.637-14.373 1-20.788-8.756-16.547-19.637 2.828-7.254 8.344-11.208 16.547-11.863l39.46-2v13.863z" fill-opacity=".3" fill="#475569"/>
        <path d="M71 103.6c-28.413 8.92-46.545 12.55-54.397 10.886C4.824 111.99 0 102.314 0 93.814S6.399 73.842 16.603 72.01c6.803-1.221 24.957 1.88 54.462 9.304L71 103.6z" stroke="#475569" stroke-width="4" fill="#EFC69A"/>
        <path d="M68.358 90.814c-25.09 8.815-41.249 13.482-48.475 14-7.227.519-13.186-2.475-17.878-8.982.893 5.218 2.482 8.779 4.766 10.684 3.426 2.858 2.711 6.523 15.237 6.523 8.35 0 24.015-3.575 46.992-10.725l-.642-11.5z" fill="#A98A61"/>
      </g>
      <g>
        <path d="M109.614 68c12.425-16.724 18.97-29.878 19.637-39.46 1-14.373-8.756-20.788-19.637-16.547-7.254 2.828-11.208 8.344-11.863 16.547l-2 39.46h13.863z" fill-opacity=".3" fill="#475569"/>
        <path d="M85.465 71c-8.92-28.413-12.55-46.545-10.886-54.397C77.074 4.824 86.751 0 95.251 0s19.972 6.399 21.804 16.603c1.221 6.803-1.88 24.957-9.304 54.462L85.465 71z" stroke="#475569" stroke-width="4" fill="#EFC69A"/>
        <path d="M98.25 68.358c-8.814-25.09-13.48-41.249-14-48.475-.518-7.227 2.476-13.186 8.983-17.878-5.218.893-8.779 2.482-10.684 4.766-2.857 3.426-6.523 2.711-6.523 15.237 0 8.35 3.575 24.015 10.725 46.992l11.5-.642z" fill="#A98A61"/>
      </g>
      <circle stroke="#475569" stroke-width="4" fill="#7DD3FC" cx="97.065" cy="94.807" r="27"/>
    </g>
  </g>
</svg>