<svg viewBox="0 0 800 800" xmlns="http://www.w3.org/2000/svg">
  <g fill="none" fill-rule="evenodd">
    <path d="M484.99 782c139.517 0 252.618-171.475 252.618-383S624.508 16 484.99 16C426.609 16 381.064 99.694 299 125 184.952 160.17 39.48 152.668 39.48 275.68 39.48 487.203 345.474 782 484.99 782z" fill-opacity=".093" fill="#FB7185"/>
    <path fill="#E8B091" d="M178 222h39v22h-39z"/>
    <path d="M196 241.26c38.66 0 70 31.34 70 70V315H126v-3.74c0-38.66 31.34-70 70-70z" fill="#0EA5E9"/>
    <path d="M196 239c38.66 0 70 31.34 70 70v3.74H126V309c0-38.66 31.34-70 70-70z" fill="#38BDF8"/>
    <path d="M228.36 273.542c8.546-9.002-2.24-20.516-32.36-34.542 38.66 0 70 31.34 70 70v3.74h-28.251c-14.804-17.13-17.934-30.196-9.388-39.198z" fill="#0EA5E9"/>
    <g transform="translate(136 93)">
      <path d="M16.657 63.426v25.972h-3.17a12.945 12.945 0 01-9.183-3.803A12.945 12.945 0 01.5 76.412c0-3.586 1.454-6.832 3.804-9.182a12.945 12.945 0 019.182-3.804h3.17zM111.514 63.426c3.586 0 6.832 1.454 9.182 3.804a12.945 12.945 0 013.804 9.182c0 3.586-1.454 6.833-3.804 9.183a12.945 12.945 0 01-9.182 3.803h0-3.17V63.426z" stroke="#DDA183" fill="#E8B091"/>
      <rect fill="#BF9279" x="20.616" y="28.187" width="90.133" height="114.813" rx="33"/>
      <rect fill="#E8B091" x="14.706" y="26.146" width="95.588" height="115.245" rx="33"/>
      <path d="M46.569 107.063H78.43v1.232c0 8.799-7.132 15.932-15.931 15.932s-15.931-7.133-15.931-15.932v-1.232z" fill="#FFF"/>
      <path d="M16.334 69.693c2.9-12.973 9.248-23.372 19.044-31.2 8.768 1.938 17.4 2.907 25.897 2.907 8.496 0 16.991-.969 25.485-2.906 11.829 7.526 19.38 17.063 22.651 28.61 2.043-11.055 2.043-21.112 0-30.17-3.063-13.588-11.882-26.57-15.4-27.536-2.346-.643-6.722.602-13.129 3.735L92.577 0c-8.734.559-18.636 3.691-29.704 9.398L69.384 0C61.271.86 53.26 5.238 45.351 13.133l3.125-8.171C34.952 10.409 24.958 18.49 18.492 29.203c-6.466 10.714-7.185 24.21-2.158 40.49z" stroke="#475569" fill="#334155"/>
    </g>
    <path fill="#E8B091" d="M379 222h39v22h-39z"/>
    <path d="M400 241.269c38.66 0 70 31.34 70 70V315H330v-3.731c0-38.66 31.34-70 70-70z" fill="#14B8A6"/>
    <path d="M400 239c38.66 0 70 31.34 70 70v3.731H330V309c0-38.66 31.34-70 70-70z" fill="#2DD4BF"/>
    <path d="M432.36 273.538c8.546-9-2.24-20.513-32.36-34.538 38.66 0 70 31.34 70 70v3.731h-28.251c-14.804-17.127-17.934-30.192-9.388-39.193z" fill="#14B8A6"/>
    <g transform="translate(338 93)">
      <path d="M16.657 63.14v25.849h-3.232c-3.57 0-6.8-1.447-9.14-3.786A12.884 12.884 0 01.5 76.064c0-3.569 1.447-6.8 3.786-9.139a12.884 12.884 0 019.139-3.785h3.232zM111.575 63.14c3.57 0 6.8 1.446 9.14 3.785a12.884 12.884 0 013.785 9.14c0 3.568-1.447 6.8-3.786 9.138a12.884 12.884 0 01-9.139 3.786h0-3.232v-25.85z" stroke="#DDA183" fill="#E8B091"/>
      <rect fill="#BF9279" x="20.161" y="28.28" width="90.133" height="114.72" rx="33"/>
      <rect fill="#E8B091" x="14.706" y="26.027" width="95.588" height="114.72" rx="33"/>
      <path d="M46.569 106.575H78.43v1.155c0 8.798-7.132 15.93-15.931 15.93s-15.931-7.132-15.931-15.93v-1.155z" fill="#FFF"/>
      <path d="M16.334 69.376c2.9-12.914 9.248-23.266 19.044-31.058 8.768 1.929 17.4 2.893 25.897 2.893 8.496 0 16.991-.964 25.485-2.893 11.829 7.493 19.38 16.986 22.651 28.481 2.043-11.005 2.043-21.016 0-30.033-3.063-13.526-11.882-26.45-15.4-27.41-2.346-.641-6.722.598-13.129 3.717L92.577 0c-8.734.556-18.636 3.675-29.704 9.356L69.384 0C61.271.857 53.26 5.214 45.351 13.073l3.125-8.134C34.952 10.362 24.958 18.406 18.492 29.07c-6.466 10.665-7.185 24.1-2.158 40.306z" stroke="#475569" fill="#334155"/>
    </g>
    <g>
      <path fill="#E8B091" d="M379 620h39v22h-39z"/>
      <path d="M400 640.269c38.66 0 70 31.34 70 70V714H330v-3.731c0-38.66 31.34-70 70-70z" fill="#64748B"/>
      <path d="M400 638c38.66 0 70 31.34 70 70v3.731H330V708c0-38.66 31.34-70 70-70z" fill="#94A3B8"/>
      <path d="M432.36 672.538c8.546-9-2.24-20.513-32.36-34.538 38.66 0 70 31.34 70 70v3.731h-28.251c-14.804-17.127-17.934-30.192-9.388-39.193z" fill="#64748B"/>
      <g transform="translate(337 491)">
        <path d="M16.794 63.247v25.895h-3.346c-3.576 0-6.813-1.449-9.156-3.792A12.907 12.907 0 01.5 76.195c0-3.576 1.45-6.813 3.792-9.156a12.907 12.907 0 019.156-3.792h3.346zM112.552 63.247c3.576 0 6.813 1.45 9.156 3.792a12.907 12.907 0 013.792 9.156c0 3.575-1.45 6.812-3.792 9.155a12.907 12.907 0 01-9.156 3.792h0-3.346V63.247z" stroke="#DDA183" fill="#E8B091"/>
        <rect fill="#BF9279" x="20.98" y="27.083" width="90.854" height="114.917" rx="33"/>
        <rect fill="#E8B091" x="14.824" y="26.071" width="96.353" height="114.917" rx="33"/>
        <path d="M46.941 106.758H79.06v1.056c0 8.869-7.19 16.059-16.059 16.059s-16.059-7.19-16.059-16.06v-1.055z" fill="#FFF"/>
        <path d="M16.465 69.494c2.923-12.935 9.322-23.305 19.196-31.11 8.838 1.932 17.54 2.898 26.104 2.898s17.127-.966 25.689-2.898c11.924 7.505 19.535 17.015 22.833 28.53 2.058-11.025 2.058-21.053 0-30.085-3.088-13.55-11.978-26.494-15.524-27.457-2.365-.642-6.776.599-13.234 3.724L93.318 0c-8.805.557-18.785 3.68-29.942 9.372L69.939 0c-8.178.858-16.253 5.223-24.226 13.096l3.15-8.149C35.232 10.38 25.157 18.437 18.64 29.12c-6.518 10.683-7.243 24.141-2.175 40.374z" stroke="#475569" fill="#334155"/>
      </g>
    </g>
    <g>
      <path fill="#E8B091" d="M583 222h39v22h-39z"/>
      <path d="M604 241.269c38.66 0 70 31.34 70 70V315H534v-3.731c0-38.66 31.34-70 70-70z" fill="#C084FC"/>
      <path d="M604 239c38.66 0 70 31.34 70 70v3.731H534V309c0-38.66 31.34-70 70-70z" fill="#D8B4FE"/>
      <path d="M636.36 273.538c8.546-9-2.24-20.513-32.36-34.538 38.66 0 70 31.34 70 70v3.731h-28.251c-14.804-17.127-17.934-30.192-9.388-39.193z" fill="#C084FC"/>
      <g transform="translate(542 93)">
        <path d="M16.657 63.14v25.849h-3.232c-3.57 0-6.8-1.447-9.14-3.786A12.884 12.884 0 01.5 76.064c0-3.569 1.447-6.8 3.786-9.139a12.884 12.884 0 019.139-3.785h3.232zM111.575 63.14c3.57 0 6.8 1.446 9.14 3.785a12.884 12.884 0 013.785 9.14c0 3.568-1.447 6.8-3.786 9.138a12.884 12.884 0 01-9.139 3.786h0-3.232v-25.85z" stroke="#DDA183" fill="#E8B091"/>
        <rect fill="#BF9279" x="20.161" y="28.28" width="90.133" height="114.72" rx="33"/>
        <rect fill="#E8B091" x="14.706" y="26.027" width="95.588" height="114.72" rx="33"/>
        <path d="M46.569 106.575H78.43v1.155c0 8.798-7.132 15.93-15.931 15.93s-15.931-7.132-15.931-15.93v-1.155z" fill="#FFF"/>
        <path d="M16.334 69.376c2.9-12.914 9.248-23.266 19.044-31.058 8.768 1.929 17.4 2.893 25.897 2.893 8.496 0 16.991-.964 25.485-2.893 11.829 7.493 19.38 16.986 22.651 28.481 2.043-11.005 2.043-21.016 0-30.033-3.063-13.526-11.882-26.45-15.4-27.41-2.346-.641-6.722.598-13.129 3.717L92.577 0c-8.734.556-18.636 3.675-29.704 9.356L69.384 0C61.271.857 53.26 5.214 45.351 13.073l3.125-8.134C34.952 10.362 24.958 18.406 18.492 29.07c-6.466 10.665-7.185 24.1-2.158 40.306z" stroke="#475569" fill="#334155"/>
      </g>
    </g>
    <path stroke="#CBD5E1" stroke-width="3" stroke-linecap="round" stroke-dasharray="0,10" d="M196 330.086v60.828M400 330.086v60.828M400 403.086v60.828M604 330.086v60.828M199.5 396.5h403"/>
  </g>
</svg>