<svg viewBox="0 0 800 800" xmlns="http://www.w3.org/2000/svg">
  <g fill="none" fill-rule="evenodd">
    <path d="M105.193 366.558C92.021 483.612 12.902 551.341 84.365 682.286c95.828 175.589 322.047 43.375 371.828 43.375 67.995 0 171 17.03 258-60.515 87-77.543 24.027-282.486-15.215-382.61C622.704 87.928 329.193 11.849 196.141 42.85 56.836 75.308 124.52 194.812 105.193 366.558z" fill-opacity=".11" fill="#C084FC"/>
    <g transform="translate(168 93)">
      <rect stroke="#94A3B8" stroke-width="10" fill="#E2E8F0" x="5" y="5" width="410" height="628" rx="20"/>
      <rect stroke="#94A3B8" stroke-width="10" fill="#F1F5F9" x="27" y="5" width="410" height="628" rx="20"/>
      <rect stroke="#94A3B8" stroke-width="10" fill="#FFF" x="49" y="5" width="410" height="628" rx="20"/>
      <path d="M53.902 39.36C61.939 391.952 74.659 575.833 92.062 591c17.405 15.166 125.6 27.532 324.587 37.098H62.902a9 9 0 01-9-9V39.36z" fill="#E2E8F0"/>
    </g>
    <g transform="translate(272 142)">
      <rect fill="#64748B" y="161" width="231.507" height="16" rx="8"/>
      <rect fill="#64748B" x="10" y="403" width="29" height="16" rx="8"/>
      <rect stroke="#64748B" stroke-width="7" fill="#CCFBF1" x="3.5" y="261.5" width="293" height="94" rx="10"/>
      <path d="M194.307 281.938l58.084 68.593a1.5 1.5 0 01-1.144 2.469H136.269a1.5 1.5 0 01-1.155-2.458l56.894-68.592a1.5 1.5 0 012.299-.012z" fill-opacity=".5" fill="#05CCFF"/>
      <circle fill-opacity=".5" fill="#FDE047" cx="75.5" cy="292.5" r="23.5"/>
      <path d="M132.657 301.808l41.26 48.723a1.5 1.5 0 01-1.145 2.469H91.1a1.5 1.5 0 01-1.154-2.458l40.412-48.722a1.5 1.5 0 012.3-.012z" fill-opacity=".5" fill="#21DCBE"/>
      <rect fill="#64748B" x="146" y="27" width="154" height="25" rx="8"/>
      <rect fill="#64748B" x="146" y="72" width="123.58" height="25" rx="8"/>
      <rect stroke="#FB7185" stroke-width="5" fill="#FFE4E6" x="2.5" y="2.5" width="120" height="120" rx="10"/>
      <rect fill="#64748B" x="69" y="403" width="197.172" height="16" rx="8"/>
      <rect fill="#64748B" x="69" y="444" width="231" height="16" rx="8"/>
      <rect fill="#64748B" x="69" y="485" width="167.209" height="16" rx="8"/>
      <rect fill="#64748B" y="202" width="300" height="16" rx="8"/>
      <rect fill="#64748B" x="10" y="444" width="29" height="16" rx="8"/>
      <rect fill="#64748B" x="10" y="485" width="29" height="16" rx="8"/>
    </g>
    <path d="M264 96.265V122.5a7.5 7.5 0 0015 0V93h0M279 93v-7.5a6.5 6.5 0 10-13 0v3.292h0" stroke="#788495" stroke-width="4" stroke-linecap="round"/>
  </g>
</svg>