<svg viewBox="0 0 800 800" xmlns="http://www.w3.org/2000/svg">
  <g fill="none" fill-rule="evenodd">
    <path d="M105.193 366.558C92.021 483.612 12.902 551.341 84.365 682.286c95.828 175.589 322.047 43.375 371.828 43.375 67.995 0 171 17.03 258-60.515 87-77.543 24.027-282.486-15.215-382.61C622.704 87.928 329.193 11.849 196.141 42.85 56.836 75.308 124.52 194.812 105.193 366.558z" fill-opacity=".153" fill="#7DD3FC"/>
    <path fill="#CBD5E1" d="M72 427h342v22H72zM72 220h342v29H72z"/>
    <path d="M243 110.477c.477 0 .954.136 1.37.409h0L405.62 216.5H80.38l161.25-105.614a2.498 2.498 0 011.37-.409z" stroke="#94A3B8" stroke-width="5" fill="#CBD5E1"/>
    <path fill="#94A3B8" d="M72 418h342v9H72zM98 247h35v171H98z"/>
    <path fill="#CBD5E1" d="M95 249h35v169H95z"/>
    <path fill="#94A3B8" d="M161 247h35v171h-35z"/>
    <path fill="#CBD5E1" d="M158 249h35v169h-35z"/>
    <path fill="#94A3B8" d="M227 247h35v171h-35z"/>
    <path fill="#CBD5E1" d="M223 249h35v169h-35z"/>
    <path fill="#94A3B8" d="M353 247h35v171h-35z"/>
    <path fill="#CBD5E1" d="M350 249h35v169h-35z"/>
    <path fill="#94A3B8" d="M289 247h35v171h-35z"/>
    <path fill="#CBD5E1" d="M286 249h35v169h-35z"/>
    <path fill="#94A3B8" d="M95 247h35v22H95zM158 247h35v22h-35zM223 247h35v22h-35zM350 247h35v22h-35zM286 247h35v22h-35z"/>
    <g transform="translate(200.709 221)">
      <path d="M391.54 14.33a14.953 14.953 0 0111.382-1.498 14.953 14.953 0 019.108 6.989h0l81.037 140.36a14.953 14.953 0 011.498 11.382 14.953 14.953 0 01-6.988 9.109h0l-371.72 214.611a14.953 14.953 0 01-11.382 1.499 14.953 14.953 0 01-9.108-6.989h0L14.33 249.433a14.953 14.953 0 01-1.498-11.383 14.953 14.953 0 016.989-9.108h0z" stroke="#0D9488" stroke-width="10" fill="#99F6E4"/>
      <circle stroke="#5EEAD4" stroke-width="10" fill="#99F6E4" transform="rotate(-30 253.27 204.065)" cx="253.27" cy="204.065" r="57.506"/>
      <path d="M21.49 235.246l42.63-24.612c16.08 27.848 6.538 63.458-21.311 79.536l-24.612-42.63a9 9 0 013.294-12.294zM75.059 347.493c27.848-16.079 63.458-6.537 79.537 21.312l-42.63 24.612a9 9 0 01-12.295-3.294l-24.612-42.63zM351.801 43.809l42.63-24.612a9 9 0 0112.295 3.294l24.612 42.63c-27.848 16.078-63.458 6.537-79.537-21.312zM464.588 120.443l24.612 42.63a9 9 0 01-3.294 12.295l-42.63 24.612c-16.078-27.849-6.536-63.458 21.312-79.537z" fill="#5EEAD4"/>
      <path d="M257.532 181.162l-.66-4.575a2 2 0 00-2.503-1.645l-9.683 2.625-3.332-6.322a2.002 2.002 0 00-2.703-.838l-4.403 2.319a2 2 0 00-.8 2.77l3.707 6.42c-5.89 4.131-7.178 10.32-3.863 18.565 4.973 12.369 27.822 2.9 32.313 10.68 2.866 4.965-2.648 8.818-16.544 11.56a2 2 0 00-1.585 2.29l.988 5.953a2 2 0 002.474 1.609l11-2.848 3.746 6.488a2 2 0 002.732.732l4.067-2.348a2 2 0 00.732-2.732l-3.746-6.488c7.91-6.391 9.686-13.361 5.328-20.911-6.539-11.325-26.45-3.164-30.569-10.299-2.606-4.514 1.334-8.107 11.818-10.781a2 2 0 001.486-2.224z" fill="#2DD4BF"/>
      <path d="M120.676 359.716l71.187-41.1a4.281 4.281 0 114.28 7.415l-71.186 41.1a4.281 4.281 0 01-4.281-7.415zM212.626 306.628l22.987-13.271a4.281 4.281 0 114.281 7.415l-22.987 13.272a4.281 4.281 0 11-4.281-7.416zM267.503 108.842l71.187-41.1a4.281 4.281 0 014.281 7.415l-71.187 41.1a4.281 4.281 0 01-4.281-7.415zM359.453 55.754l22.987-13.271a4.281 4.281 0 014.282 7.415L363.734 63.17a4.281 4.281 0 01-4.281-7.416z" fill="#F0FDFA"/>
    </g>
    <g transform="translate(203.352 329.996)">
      <path d="M435.211 10.006a14.953 14.953 0 0111.382 1.499 14.953 14.953 0 016.99 9.108h0l41.947 156.552a14.953 14.953 0 01-1.498 11.382 14.953 14.953 0 01-9.108 6.989h0L70.325 306.627a14.953 14.953 0 01-11.382-1.498 14.953 14.953 0 01-6.989-9.109h0L10.006 139.468a14.953 14.953 0 011.499-11.382 14.953 14.953 0 019.108-6.989h0z" stroke="#0D9488" stroke-width="10" fill="#99F6E4"/>
      <circle stroke="#5EEAD4" stroke-width="10" fill="#99F6E4" transform="rotate(-15 252.546 157.49)" cx="252.546" cy="157.489" r="57.506"/>
      <path d="M19.18 127.17l47.548-12.741c8.323 31.06-10.11 62.988-41.171 71.31l-12.74-47.547a9 9 0 016.363-11.023zM43.286 249.905c31.06-8.322 62.987 10.11 71.31 41.172l-47.547 12.74a9 9 0 01-11.023-6.364l-12.74-47.548zM389.94 27.557l47.548-12.74a9 9 0 0111.022 6.363l12.74 47.548c-31.06 8.323-62.987-10.11-71.31-41.171zM477.98 131.894l12.74 47.547a9 9 0 01-6.364 11.023l-47.548 12.74c-8.322-31.06 10.11-62.988 41.172-71.31z" fill="#5EEAD4"/>
      <path d="M262.59 136.47l.547-4.59a2 2 0 00-1.992-2.237l-10.032.03-1.583-6.97a2.002 2.002 0 00-2.393-1.509l-4.853 1.1a2 2 0 00-1.49 2.468l1.919 7.161c-6.76 2.467-9.605 8.111-8.536 16.934 1.602 13.234 26.122 10.002 28.447 18.679 1.484 5.537-4.84 7.832-18.972 6.884a2 2 0 00-2.124 1.802l-.586 6.006a2 2 0 001.973 2.194l11.363.096 1.939 7.237a2 2 0 002.45 1.414l4.535-1.215a2 2 0 001.415-2.45l-1.94-7.237c9.295-4.125 12.815-10.398 10.558-18.82-3.384-12.63-24.728-9.901-26.86-17.858-1.35-5.035 3.386-7.487 14.205-7.356a2 2 0 002.01-1.763z" fill="#2DD4BF"/>
      <path d="M84.184 273.518l79.4-21.275a4.281 4.281 0 012.215 8.271L86.4 281.789a4.281 4.281 0 01-2.216-8.27zM186.741 246.038l25.64-6.87a4.281 4.281 0 012.216 8.27l-25.64 6.87a4.281 4.281 0 11-2.216-8.27zM290.94 69.194l79.398-21.275a4.281 4.281 0 012.217 8.271l-79.4 21.275a4.281 4.281 0 01-2.215-8.27zM393.496 41.714l25.64-6.87a4.281 4.281 0 012.216 8.27l-25.64 6.87a4.281 4.281 0 01-2.216-8.27z" fill="#F0FDFA"/>
    </g>
    <g transform="translate(204 449)">
      <rect stroke="#0D9488" stroke-width="10" fill="#99F6E4" x="5" y="5" width="459" height="192" rx="20"/>
      <circle stroke="#5EEAD4" stroke-width="10" fill="#99F6E4" cx="234.5" cy="100.5" r="57.5"/>
      <path d="M19 10h49c0 32.033-25.967 58-58 58V19a9 9 0 019-9zM10 134c32.033 0 58 25.967 58 58H19a9 9 0 01-9-9v-49zM401 10h49a9 9 0 019 9v49c-32.033 0-58-25.967-58-58zM459 134v49a9 9 0 01-9 9h-49c0-32.033 25.967-58 58-58z" fill="#5EEAD4"/>
      <path d="M249.681 82.094l1.73-4.317a2 2 0 00-1.346-2.678l-9.753-2.578.277-7.169a2.001 2.001 0 00-1.921-2.076l-5.017-.195a2 2 0 00-2.077 1.998v7.442c-7.202.635-11.432 5.365-12.69 14.19-1.886 13.238 22.754 16.472 22.754 25.482 0 5.752-6.738 6.332-20.215 1.741a2 2 0 00-2.517 1.19l-2.136 5.679a2 2 0 001.34 2.631l11.01 3.045V134a2 2 0 002 2h4.738a2 2 0 002-2v-7.521C247.953 124.895 253 119.73 253 110.987c0-13.116-21.426-16.013-21.426-24.276 0-5.23 5.236-6.374 15.71-3.435a2 2 0 002.397-1.182z" fill="#2DD4BF"/>
      <rect fill="#F0FDFA" x="37" y="168" width="91" height="9" rx="4.5"/>
      <rect fill="#F0FDFA" x="143" y="168" width="35" height="9" rx="4.5"/>
      <rect fill="#F0FDFA" x="290" y="25" width="91" height="9" rx="4.5"/>
      <rect fill="#F0FDFA" x="396" y="25" width="35" height="9" rx="4.5"/>
    </g>
  </g>
</svg>