<svg viewBox="0 0 800 800" xmlns="http://www.w3.org/2000/svg">
  <title>Title VI</title>
  <g fill="none" fill-rule="evenodd">
    <path d="M368.19 706c117.054 13.172 184.782 92.291 315.727 20.828C859.507 631 727.292 404.78 727.292 355c0-67.995 17.03-171-60.514-258-77.544-87-282.487-24.027-382.61 15.215C89.557 188.489 13.48 482 44.48 615.052 76.94 754.357 196.443 686.673 368.19 706z" fill-opacity=".11" fill="#C084FC"/>
    <rect stroke="#94A3B8" stroke-width="10" fill="#FFF" x="168" y="91" width="410" height="628" rx="20"/>
    <rect fill="#64748B" x="243" y="259" width="169" height="16" rx="8"/>
    <rect fill="#64748B" x="243" y="591" width="169" height="16" rx="8"/>
    <rect fill="#64748B" x="243" y="166" width="203" height="25" rx="8"/>
    <rect fill="#64748B" x="243" y="341" width="142" height="16" rx="8"/>
    <rect fill="#64748B" x="243" y="425" width="204" height="16" rx="8"/>
    <rect fill="#64748B" x="243" y="466" width="239" height="16" rx="8"/>
    <rect fill="#64748B" x="243" y="507" width="173" height="16" rx="8"/>
    <rect fill="#64748B" x="243" y="300" width="219" height="16" rx="8"/>
    <rect fill="#64748B" x="243" y="632" width="219" height="16" rx="8"/>
    <path d="M172.902 125.36c8.037 352.593 20.757 536.474 38.16 551.64 17.405 15.166 125.6 27.532 324.587 37.098H181.902a9 9 0 01-9-9V125.36z" fill="#E2E8F0"/>
    <circle stroke="#94A3B8" stroke-width="10" fill="#5EEAD4" cx="602.5" cy="405.5" r="104.5"/>
    <text font-family="STYuanti-TC-Bold, Yuanti TC" font-size="95" font-weight="bold" fill="#475569">
      <tspan x="559" y="439">VI</tspan>
    </text>
    <path d="M602.5 505c-55.98-17.595-83.971-51.09-83.971-100.485 0-49.395 27.99-82.233 83.971-98.515-54.952 0-99.5 44.548-99.5 99.5s44.548 99.5 99.5 99.5z" fill="#2DD4BF"/>
    <path d="M603 306c55.98 17.595 83.971 51.09 83.971 100.485 0 49.395-27.99 82.233-83.971 98.515 54.952 0 99.5-44.548 99.5-99.5S657.952 306 603 306z" fill="#99F6E4"/>
  </g>
</svg>