<svg xmlns="http://www.w3.org/2000/svg" viewBox="0 0 85 61">
  <defs/>
  <title>
    Let's work together - chat with us anytime.
  </title>
  <g fill="none" fill-rule="evenodd">
    <path fill="#64748B" d="M27.003 14.524C12.388 14.524.54 24.24.54 36.221c0 7.613 4.791 14.298 12.025 18.17-1.072 1.194-2.507 2.43-4.426 3.684-8.883 5.803 4.491 1.445 11.526-1.018 2.331.55 4.79.863 7.338.863 14.614 0 26.463-9.714 26.463-21.699 0-11.982-11.85-21.697-26.463-21.697z"/>
    <path fill="#F1F5F9" d="M81.84 57.052c-6.81-5.906-8.386-10.62-8.13-13.97 3.942-4.475 6.294-9.956 6.294-15.9C80.004 12.17 65.174 0 46.886 0 28.595 0 13.767 12.17 13.767 27.183c0 15.012 14.828 27.182 33.12 27.182 5.405 0 10.493-1.085 15-2.972 11.225 5.662 30.651 14.939 19.953 5.66z"/>
    <path fill="#C084FC" d="M58.68 31.521a3.957 3.957 0 01-3.963-3.947 3.957 3.957 0 013.964-3.951 3.959 3.959 0 013.964 3.95c0 2.18-1.777 3.948-3.964 3.948zm-11.776 0a3.957 3.957 0 01-3.964-3.947 3.957 3.957 0 013.964-3.951 3.957 3.957 0 013.963 3.95 3.957 3.957 0 01-3.963 3.948zm-11.778 0a3.957 3.957 0 01-3.962-3.947 3.957 3.957 0 013.962-3.951 3.958 3.958 0 013.966 3.95 3.957 3.957 0 01-3.966 3.948z"/>
  </g>
</svg>
