<svg xmlns="http://www.w3.org/2000/svg" xmlns:xlink="http://www.w3.org/1999/xlink" viewBox="0 0 128 150">
  <defs/>
  <title>
    File Icon
  </title>
  <defs>
    <filter id="a" width="247%" height="210.2%" x="-79.6%" y="-50.6%" filterUnits="objectBoundingBox">
      <feOffset dx="-4" dy="4" in="SourceAlpha" result="shadowOffsetOuter1"/>
      <feGaussianBlur in="shadowOffsetOuter1" result="shadowBlurOuter1" stdDeviation="15.5"/>
      <feColorMatrix in="shadowBlurOuter1" values="0 0 0 0 0.796078431 0 0 0 0 0.835294118 0 0 0 0 0.882352941 0 0 0 1 0"/>
    </filter>
    <path id="b" d="M60.898 88H5.075A5.076 5.076 0 010 82.923V5.077A5.077 5.077 0 015.075 0h38.907l21.99 22.121v60.802A5.076 5.076 0 0160.898 88z"/>
  </defs>
  <g fill="none" fill-rule="evenodd">
    <g transform="translate(35 27)">
      <use fill="#000" filter="url(#a)" xlink:href="#b"/>
      <use fill="#FFF" xlink:href="#b"/>
    </g>
    <path fill="#94A3B8" d="M100.858 49.005H83.339a4.357 4.357 0 01-4.356-4.36V27.004l21.875 22.002z"/>
    <path fill="#C084FC" d="M57.712 42.601c-2.125 0-4.216.435-6.27 1.305-.628.266-.942.727-.942 1.379 0 .385.132.712.4.978.265.266.579.4.942.4.12 0 .277-.025.47-.073.87-.29 1.662-.507 2.374-.653.713-.145 1.528-.217 2.447-.217 1.667 0 2.893.35 3.678 1.05.786.7 1.178 1.85 1.178 3.446v.289h-4.385c-2.73 0-4.802.532-6.217 1.595-1.412 1.064-2.12 2.49-2.12 4.278 0 1.089.266 2.05.798 2.882a5.137 5.137 0 002.157 1.905c.906.435 1.89.653 2.954.653 2.754 0 5.025-.919 6.813-2.756v.942c0 .46.156.847.472 1.161.313.314.7.47 1.16.47.457 0 .85-.156 1.177-.47.326-.314.49-.702.49-1.161v-10.26a7.653 7.653 0 00-.816-3.498c-.543-1.077-1.39-1.953-2.537-2.63-1.149-.676-2.556-1.015-4.223-1.015zm-1.305 16.316c-1.376 0-2.36-.266-2.953-.796-.593-.534-.887-1.235-.887-2.104 0-1.91 1.823-2.865 5.472-2.865h3.95v3.046c-.677.773-1.51 1.42-2.5 1.939-.991.52-2.018.78-3.082.78z"/>
    <path fill="#CBD5E1" d="M65.054 85.446H49.485a1.59 1.59 0 01-1.585-1.594c0-.88.71-1.594 1.585-1.594h15.569a1.59 1.59 0 011.585 1.594c0 .88-.71 1.594-1.585 1.594z"/>
    <path fill="#38BDF8" d="M65.054 106.992H49.485a1.59 1.59 0 01-1.585-1.594c0-.882.71-1.596 1.585-1.596h15.569a1.59 1.59 0 011.585 1.596c0 .879-.71 1.594-1.585 1.594z"/>
    <path fill="#CBD5E1" d="M79.003 73.348H49.485a1.589 1.589 0 01-1.585-1.592c0-.881.71-1.596 1.585-1.596h29.518c.876 0 1.586.715 1.586 1.596 0 .88-.71 1.592-1.586 1.592zM35.078 97.588V96.16H101v1.428zM79.003 78.67H49.485a1.59 1.59 0 01-1.585-1.593c0-.88.71-1.594 1.585-1.594h29.518a1.59 1.59 0 011.586 1.594c0 .88-.71 1.593-1.586 1.593z"/>
  </g>
</svg>
