<svg xmlns="http://www.w3.org/2000/svg" viewBox="0 0 326 326" role="image">
  <defs/>
  <title>
    Circle made up of yellow little dots
  </title>
  <g fill="#FDE047" fill-rule="evenodd">
    <circle cx="163" cy="321" r="5"/>
    <circle cx="163" cy="301" r="5"/>
    <circle cx="163" cy="281" r="5"/>
    <circle cx="163" cy="261" r="5"/>
    <circle cx="163" cy="241" r="5"/>
    <circle cx="163" cy="221" r="5"/>
    <circle cx="163" cy="201" r="5"/>
    <circle cx="163" cy="181" r="5"/>
    <circle cx="163" cy="161" r="5"/>
    <circle cx="163" cy="141" r="5"/>
    <circle cx="163" cy="121" r="5"/>
    <circle cx="163" cy="101" r="5"/>
    <circle cx="163" cy="81" r="5"/>
    <circle cx="163" cy="61" r="5"/>
    <circle cx="163" cy="41" r="5"/>
    <circle cx="163" cy="21" r="5"/>
    <circle cx="143" cy="320" r="5"/>
    <circle cx="143" cy="300" r="5"/>
    <circle cx="143" cy="280" r="5"/>
    <circle cx="143" cy="260" r="5"/>
    <circle cx="143" cy="240" r="5"/>
    <circle cx="143" cy="220" r="5"/>
    <circle cx="143" cy="200" r="5"/>
    <circle cx="143" cy="180" r="5"/>
    <circle cx="143" cy="160" r="5"/>
    <circle cx="143" cy="140" r="5"/>
    <circle cx="143" cy="120" r="5"/>
    <circle cx="143" cy="100" r="5"/>
    <circle cx="143" cy="80" r="5"/>
    <circle cx="143" cy="60" r="5"/>
    <circle cx="143" cy="40" r="5"/>
    <circle cx="143" cy="20" r="5"/>
    <circle cx="123" cy="316" r="5"/>
    <circle cx="123" cy="296" r="5"/>
    <circle cx="123" cy="276" r="5"/>
    <circle cx="123" cy="256" r="5"/>
    <circle cx="123" cy="236" r="5"/>
    <circle cx="123" cy="216" r="5"/>
    <circle cx="123" cy="196" r="5"/>
    <circle cx="123" cy="176" r="5"/>
    <circle cx="123" cy="156" r="5"/>
    <circle cx="123" cy="136" r="5"/>
    <circle cx="123" cy="116" r="5"/>
    <circle cx="123" cy="96" r="5"/>
    <circle cx="123" cy="76" r="5"/>
    <circle cx="123" cy="56" r="5"/>
    <circle cx="123" cy="36" r="5"/>
    <circle cx="118" cy="20" r="5"/>
    <circle cx="129" cy="8" r="5"/>
    <circle cx="103" cy="309" r="5"/>
    <circle cx="83" cy="299" r="5"/>
    <circle cx="63" cy="285" r="5"/>
    <circle cx="43" cy="266" r="5"/>
    <circle cx="83" cy="279" r="5"/>
    <circle cx="63" cy="265" r="5"/>
    <circle cx="44" cy="243" r="5"/>
    <circle cx="83" cy="259" r="5"/>
    <circle cx="83" cy="239" r="5"/>
    <circle cx="83" cy="219" r="5"/>
    <circle cx="83" cy="199" r="5"/>
    <circle cx="83" cy="179" r="5"/>
    <circle cx="83" cy="159" r="5"/>
    <circle cx="83" cy="139" r="5"/>
    <circle cx="83" cy="119" r="5"/>
    <circle cx="83" cy="99" r="5"/>
    <circle cx="83" cy="79" r="5"/>
    <circle cx="84" cy="59" r="5"/>
    <circle cx="77" cy="43" r="5"/>
    <circle cx="63" cy="245" r="5"/>
    <circle cx="61" cy="225" r="5"/>
    <circle cx="63" cy="205" r="5"/>
    <circle cx="63" cy="185" r="5"/>
    <circle cx="63" cy="165" r="5"/>
    <circle cx="63" cy="145" r="5"/>
    <circle cx="63" cy="125" r="5"/>
    <circle cx="63" cy="105" r="5"/>
    <circle cx="63" cy="85" r="5"/>
    <circle cx="62" cy="63" r="5"/>
    <circle cx="58" cy="44" r="5"/>
    <circle cx="36" cy="223" r="5"/>
    <circle cx="45" cy="206" r="5"/>
    <circle cx="43" cy="186" r="5"/>
    <circle cx="43" cy="166" r="5"/>
    <circle cx="43" cy="144" r="5"/>
    <circle cx="43" cy="122" r="5"/>
    <circle cx="42" cy="100" r="5"/>
    <circle cx="43" cy="82" r="5"/>
    <circle cx="40" cy="64" r="5"/>
    <circle cx="83" cy="26" r="5"/>
    <circle cx="25" cy="240" r="5"/>
    <circle cx="16" cy="220" r="5"/>
    <circle cx="26" cy="201" r="5"/>
    <circle cx="8" cy="197" r="5"/>
    <circle cx="19" cy="179" r="5"/>
    <circle cx="24" cy="160" r="5"/>
    <circle cx="24" cy="135" r="5"/>
    <circle cx="27" cy="109" r="5"/>
    <circle cx="23" cy="89" r="5"/>
    <circle cx="5" cy="166" r="5"/>
    <circle cx="6" cy="143" r="5"/>
    <circle cx="11" cy="120" r="5"/>
    <circle cx="103" cy="289" r="5"/>
    <circle cx="103" cy="269" r="5"/>
    <circle cx="103" cy="249" r="5"/>
    <circle cx="103" cy="229" r="5"/>
    <circle cx="103" cy="209" r="5"/>
    <circle cx="103" cy="189" r="5"/>
    <circle cx="103" cy="169" r="5"/>
    <circle cx="103" cy="149" r="5"/>
    <circle cx="103" cy="129" r="5"/>
    <circle cx="103" cy="109" r="5"/>
    <circle cx="103" cy="89" r="5"/>
    <circle cx="103" cy="69" r="5"/>
    <circle cx="106" cy="48" r="5"/>
    <circle cx="99" cy="33" r="5"/>
    <circle cx="102" cy="17" r="5"/>
    <circle cx="183" cy="320" r="5"/>
    <circle cx="183" cy="300" r="5"/>
    <circle cx="183" cy="280" r="5"/>
    <circle cx="183" cy="260" r="5"/>
    <circle cx="183" cy="240" r="5"/>
    <circle cx="183" cy="220" r="5"/>
    <circle cx="183" cy="200" r="5"/>
    <circle cx="183" cy="180" r="5"/>
    <circle cx="183" cy="160" r="5"/>
    <circle cx="183" cy="140" r="5"/>
    <circle cx="183" cy="120" r="5"/>
    <circle cx="183" cy="100" r="5"/>
    <circle cx="183" cy="80" r="5"/>
    <circle cx="183" cy="60" r="5"/>
    <circle cx="183" cy="40" r="5"/>
    <circle cx="183" cy="20" r="5"/>
    <circle cx="190" cy="7" r="5"/>
    <circle cx="203" cy="316" r="5"/>
    <circle cx="203" cy="296" r="5"/>
    <circle cx="203" cy="276" r="5"/>
    <circle cx="203" cy="256" r="5"/>
    <circle cx="203" cy="236" r="5"/>
    <circle cx="203" cy="216" r="5"/>
    <circle cx="203" cy="196" r="5"/>
    <circle cx="203" cy="176" r="5"/>
    <circle cx="203" cy="156" r="5"/>
    <circle cx="203" cy="136" r="5"/>
    <circle cx="203" cy="116" r="5"/>
    <circle cx="203" cy="96" r="5"/>
    <circle cx="203" cy="76" r="5"/>
    <circle cx="203" cy="56" r="5"/>
    <circle cx="203" cy="35" r="5"/>
    <circle cx="203" cy="16" r="5"/>
    <circle cx="223" cy="309" r="5"/>
    <circle cx="243" cy="299" r="5"/>
    <circle cx="265" cy="284" r="5"/>
    <circle cx="284" cy="265" r="5"/>
    <circle cx="243" cy="279" r="5"/>
    <circle cx="263" cy="265" r="5"/>
    <circle cx="283" cy="246" r="5"/>
    <circle cx="243" cy="259" r="5"/>
    <circle cx="243" cy="239" r="5"/>
    <circle cx="243" cy="219" r="5"/>
    <circle cx="243" cy="199" r="5"/>
    <circle cx="243" cy="179" r="5"/>
    <circle cx="243" cy="159" r="5"/>
    <circle cx="243" cy="139" r="5"/>
    <circle cx="243" cy="119" r="5"/>
    <circle cx="243" cy="99" r="5"/>
    <circle cx="243" cy="79" r="5"/>
    <circle cx="241" cy="59" r="5"/>
    <circle cx="243" cy="26" r="5"/>
    <circle cx="249" cy="44" r="5"/>
    <circle cx="172" cy="5" r="5"/>
    <circle cx="263" cy="245" r="5"/>
    <circle cx="263" cy="225" r="5"/>
    <circle cx="263" cy="205" r="5"/>
    <circle cx="263" cy="185" r="5"/>
    <circle cx="263" cy="165" r="5"/>
    <circle cx="263" cy="145" r="5"/>
    <circle cx="263" cy="125" r="5"/>
    <circle cx="263" cy="105" r="5"/>
    <circle cx="263" cy="85" r="5"/>
    <circle cx="263" cy="66" r="5"/>
    <circle cx="267" cy="44" r="5"/>
    <circle cx="151" cy="5" r="5"/>
    <circle cx="283" cy="226" r="5"/>
    <circle cx="283" cy="206" r="5"/>
    <circle cx="283" cy="186" r="5"/>
    <circle cx="283" cy="166" r="5"/>
    <circle cx="283" cy="146" r="5"/>
    <circle cx="283" cy="126" r="5"/>
    <circle cx="283" cy="106" r="5"/>
    <circle cx="282" cy="85" r="5"/>
    <circle cx="295" cy="76" r="5"/>
    <circle cx="283" cy="60" r="5"/>
    <circle cx="302" cy="238" r="5"/>
    <circle cx="299" cy="219" r="5"/>
    <circle cx="303" cy="197" r="5"/>
    <circle cx="314" cy="211" r="5"/>
    <circle cx="303" cy="177" r="5"/>
    <circle cx="303" cy="157" r="5"/>
    <circle cx="303" cy="137" r="5"/>
    <circle cx="303" cy="112" r="5"/>
    <circle cx="319" cy="187" r="5"/>
    <circle cx="321" cy="166" r="5"/>
    <circle cx="320" cy="146" r="5"/>
    <circle cx="317" cy="125" r="5"/>
    <circle cx="305" cy="94" r="5"/>
    <circle cx="223" cy="289" r="5"/>
    <circle cx="223" cy="269" r="5"/>
    <circle cx="223" cy="249" r="5"/>
    <circle cx="223" cy="229" r="5"/>
    <circle cx="223" cy="209" r="5"/>
    <circle cx="223" cy="189" r="5"/>
    <circle cx="223" cy="169" r="5"/>
    <circle cx="223" cy="149" r="5"/>
    <circle cx="223" cy="129" r="5"/>
    <circle cx="223" cy="109" r="5"/>
    <circle cx="223" cy="89" r="5"/>
    <circle cx="223" cy="69" r="5"/>
    <circle cx="223" cy="49" r="5"/>
    <circle cx="227" cy="33" r="5"/>
    <circle cx="220" cy="15" r="5"/>
  </g>
</svg>
