<svg xmlns="http://www.w3.org/2000/svg" viewBox="0 0 66 88">
  <defs/>
  <title>
    Federal and State Compliance Certificate
  </title>
  <g fill="none" fill-rule="evenodd">
    <path fill="#F1F5F9" d="M60.898 88H5.075A5.076 5.076 0 010 82.923V5.077A5.077 5.077 0 015.075 0h38.907l21.99 22.121v60.802A5.076 5.076 0 0160.898 88z"/>
    <path fill="#94A3B8" d="M65.858 22.005H48.339a4.357 4.357 0 01-4.356-4.36V.004l21.875 22.002z"/>
    <path fill="#FDE047" d="M24 34.789l-3.762 1.548-1.887-3.604-3.877-1.233.871-3.974-2.178-3.436 3.222-2.484.54-4.032 4.065.167L24 15l3.006 2.741 4.065-.167.54 4.032 3.222 2.484-2.178 3.436.871 3.974-3.877 1.233-1.887 3.604z"/>
    <path fill="#CBD5E1" d="M30.054 58.446H14.485a1.59 1.59 0 01-1.585-1.594c0-.88.71-1.594 1.585-1.594h15.569a1.59 1.59 0 011.585 1.594c0 .88-.71 1.594-1.585 1.594z"/>
    <path fill="#38BDF8" d="M30.054 79.992H14.485a1.59 1.59 0 01-1.585-1.594c0-.882.71-1.596 1.585-1.596h15.569a1.59 1.59 0 011.585 1.596c0 .879-.71 1.594-1.585 1.594z"/>
    <path fill="#CBD5E1" d="M44.003 46.348H14.485a1.589 1.589 0 01-1.585-1.592c0-.881.71-1.596 1.585-1.596h29.518c.876 0 1.586.715 1.586 1.596 0 .88-.71 1.592-1.586 1.592zM.078 70.588V69.16H66v1.428zM44.003 51.67H14.485a1.59 1.59 0 01-1.585-1.593c0-.88.71-1.594 1.585-1.594h29.518a1.59 1.59 0 011.586 1.594c0 .88-.71 1.593-1.586 1.593z"/>
  </g>
</svg>
