<svg viewBox="0 0 500 500" xmlns="http://www.w3.org/2000/svg"><g transform="translate(87 49.059)" fill="none" fill-rule="evenodd"><path d="M205.42 190.245c8.284 0 15.58-7.02 15.58-15.304s-6.716-17-15-17c-8.284 0-16.16 8.716-16.16 17 0 8.285 7.296 15.304 15.58 15.304Z" fill="#EAB308"/><path d="M207.42 188.245c8.284 0 15.58-7.02 15.58-15.304s-6.716-17-15-17c-8.284 0-16.16 8.716-16.16 17 0 8.285 7.296 15.304 15.58 15.304Z" fill="#FDE047"/><path d="M208.027 185.941c6.381 0 12-5.215 12-11.37 0-6.154-5.172-12.63-11.553-12.63-6.38 0-12.447 6.476-12.447 12.63 0 6.155 5.62 11.37 12 11.37Z" fill="#CA8A04"/><path d="M207.567 182.941c6.136 0 11.54-5.215 11.54-11.37 0-6.154-4.974-12.63-11.11-12.63-6.137 0-11.97 6.476-11.97 12.63 0 6.155 5.404 11.37 11.54 11.37Z" fill="#EAB308"/><path d="M205.385 163.724c1.26-.39 2.654-.425 4.182-.105 1.575.33 2.873.949 3.896 1.857a.668.668 0 0 0 1.023-.168.924.924 0 0 0-.31-1.24c-1.82-1.147-3.31-1.856-4.466-2.127-1.311-.306-2.741-.17-4.29.409l-.46.859a.361.361 0 0 0 .425.515ZM202 165.067h.282a.484.484 0 0 1 .449.666l-.12.297a1 1 0 0 1-.511.534l-.37.17a.516.516 0 0 1-.73-.47v-.197a1 1 0 0 1 1-1Z" fill="#FEF9C3"/><path d="M88.978 181.447c7.175 4.143 17.003 1.711 21.145-5.463 4.142-7.175 2.684-18.08-4.49-22.223-7.175-4.142-18.353-.532-22.495 6.643-4.143 7.174-1.334 16.901 5.84 21.043Z" fill="#EAB308"/><path d="M91.71 180.715c7.175 4.142 17.003 1.711 21.145-5.463 4.142-7.175 2.684-18.08-4.49-22.223-7.175-4.142-18.353-.532-22.495 6.643-4.143 7.174-1.334 16.901 5.84 21.043Z" fill="#FDE047"/><path d="M93.388 179.024c5.526 3.19 13 1.483 16.077-3.847 3.078-5.33 1.836-13.524-3.69-16.715-5.526-3.19-14.017-.615-17.094 4.715-3.078 5.33-.819 12.656 4.707 15.847Z" fill="#CA8A04"/><path d="M94.49 176.195c5.313 3.068 12.6 1.254 15.678-4.076 3.078-5.33 2.007-13.425-3.307-16.493-5.314-3.068-13.603-.377-16.68 4.953-3.078 5.33-1.006 12.548 4.308 15.616Z" fill="#EAB308"/><path d="M102.209 158.462c1.285.292 2.51.959 3.674 2 1.199 1.073 2.014 2.258 2.445 3.556a.668.668 0 0 0 .97.366.924.924 0 0 0 .352-1.229c-1.003-1.904-1.938-3.262-2.805-4.075-.982-.92-2.289-1.518-3.92-1.79l-.827.513a.361.361 0 0 0 .11.66ZM98.605 157.932l.244.141a.484.484 0 0 1 .056.802l-.252.197a1 1 0 0 1-.71.207l-.404-.038a.516.516 0 0 1-.398-.772l.098-.17a1 1 0 0 1 1.366-.367Z" fill="#FEF9C3"/><path d="M113.75 87.999c6.447 3.722 15.275 1.542 18.994-4.898 3.718-6.441 2.404-16.234-4.043-19.956-6.447-3.723-16.488-.485-20.206 5.956-3.718 6.44-1.192 15.176 5.255 18.898Z" fill="#EAB308"/><path d="M115.75 86.999c6.447 3.722 15.275 1.542 18.994-4.898 3.718-6.441 2.404-16.234-4.043-19.956-6.447-3.723-16.488-.485-20.206 5.956-3.718 6.44-1.192 15.176 5.255 18.898Z" fill="#FDE047"/><path d="M117.5 85.468c5.065 2.924 11.917 1.36 14.738-3.527 2.82-4.885 1.682-12.397-3.383-15.321-5.066-2.925-12.85-.564-15.67 4.321-2.821 4.886-.75 11.602 4.315 14.527Z" fill="#CA8A04"/><path d="M118 83.468c4.835 2.791 11.484 1.11 14.305-3.777 2.82-4.885 1.869-12.289-2.967-15.08-4.835-2.792-12.4-.305-15.22 4.58-2.821 4.886-.953 11.485 3.882 14.277Z" fill="#EAB308"/><path d="M125.398 66.92c1.11.234 2.156.805 3.138 1.713 1.02.942 1.7 1.998 2.043 3.168a.569.569 0 0 0 .848.321.907.907 0 0 0 .334-1.163c-.821-1.7-1.6-2.906-2.335-3.621-.838-.814-1.971-1.321-3.4-1.522l-.745.495a.336.336 0 0 0 .117.609ZM122.5 66.075l.244.141a.484.484 0 0 1 .056.801l-.252.197a1 1 0 0 1-.71.208l-.404-.039a.516.516 0 0 1-.398-.772l.098-.17a1 1 0 0 1 1.366-.366Z" fill="#FEF9C3"/><path d="M169.13 147.447c7.174-4.142 9.983-13.869 5.84-21.043-4.141-7.175-14.315-11.365-21.49-7.223-7.174 4.143-9.637 15.628-5.494 22.803 4.142 7.174 13.97 9.606 21.144 5.463Z" fill="#EAB308"/><path d="M169.862 144.715c7.175-4.142 9.983-13.869 5.84-21.043-4.141-7.175-14.315-11.365-21.49-7.223-7.174 4.142-9.637 15.628-5.494 22.803 4.142 7.174 13.97 9.605 21.144 5.463Z" fill="#FDE047"/><path d="M169.236 142.417c5.526-3.19 7.785-10.517 4.707-15.847-3.077-5.33-10.794-8.352-16.32-5.161-5.526 3.19-7.542 11.83-4.464 17.16 3.077 5.331 10.551 7.038 16.077 3.848Z" fill="#CA8A04"/><path d="M167.337 140.048c5.314-3.068 7.387-10.286 4.31-15.616-3.078-5.33-10.624-8.45-15.938-5.383-5.314 3.068-7.128 11.593-4.05 16.923 3.077 5.33 10.364 7.145 15.678 4.076Z" fill="#EAB308"/><path d="M155.84 124.497c.895-.968 2.085-1.695 3.568-2.182 1.53-.502 2.963-.615 4.302-.34a.668.668 0 0 0 .803-.657.924.924 0 0 0-.889-.919c-2.15-.083-3.794.047-4.931.392-1.289.39-2.459 1.223-3.51 2.498l.03.974a.361.361 0 0 0 .626.234ZM153.58 127.353l.243-.141a.484.484 0 0 1 .722.352l.044.317a1 1 0 0 1-.175.718l-.235.33a.516.516 0 0 1-.868-.04l-.098-.17a1 1 0 0 1 .366-1.366Z" fill="#FEF9C3"/><g transform="translate(187 34.941)" fill="#FFF"><rect x="3" width="4" height="10" rx="2"/><rect y="3" width="10" height="4" rx="2"/></g><g transform="translate(199 118.941)" fill="#FFF"><rect x="4" width="4" height="12" rx="2"/><rect y="4" width="12" height="4" rx="2"/></g><g transform="translate(169 174.941)" fill="#FFF"><rect x="4" width="3" height="11" rx="1.5"/><rect y="4" width="11" height="3" rx="1.5"/></g><g transform="translate(0 74.941)" fill="#FFF"><rect x="4" width="3" height="11" rx="1.5"/><rect y="4" width="11" height="3" rx="1.5"/></g><g transform="translate(58 167.941)" fill="#FFF"><rect x="4" width="2" height="9" rx="1"/><rect y="4" width="9" height="2" rx="1"/></g><g transform="translate(101 124.941)" fill="#CBD5E1"><rect x="3" width="2" height="8" rx="1"/><rect y="3" width="8" height="2" rx="1"/></g><g transform="translate(257 189.941)" fill="#CBD5E1"><rect x="3" width="2" height="8" rx="1"/><rect y="3" width="8" height="2" rx="1"/></g><path d="m41.617 249.891 21.17 130.028a5 5 0 0 0 3.962 4.1l88.147 17.485 13.224-143.557-126.503-8.056Z" fill="#E2E8F0"/><path d="m167.377 258.427-13.37 143.077 61.2-17.638a5 5 0 0 0 3.473-3.623l31.72-130.352-83.023 8.536Z" fill="#CBD5E1"/><g transform="translate(68 297.941)"><circle stroke="#64748B" stroke-width="2" fill="#FFF" cx="36.5" cy="36.5" r="35.5"/><circle stroke="#64748B" stroke-width="2" fill="#E2E8F0" cx="36.5" cy="36.5" r="16.5"/><path d="M22 4.035 29.601 21c2.399-1.076 4.66-1.615 6.785-1.615 2.124 0 3.983.351 5.577 1.052L47 2.58C42.42 1.365 38.134.85 34.146 1.037c-3.99.187-8.038 1.186-12.146 2.998ZM52.356 31.288 69.564 24c1.509 3.712 2.317 7.716 2.424 12.01.107 4.294-.494 8.624-1.802 12.99L52 43.25c.687-1.972 1.06-3.94 1.119-5.904.058-1.964-.196-3.983-.763-6.058ZM41.718 52.353 49 70.01C45.076 71.337 41.102 72 37.077 72s-8.05-.663-12.077-1.989L30.287 52c2.577.82 4.693 1.23 6.347 1.23 1.655 0 3.35-.292 5.084-.877ZM22 44.81 4.55 53c-1.83-4.254-2.958-8.42-3.382-12.5-.424-4.08-.044-8.246 1.141-12.5l18.3 4.641c-.527 2.251-.675 4.384-.445 6.397.23 2.014.842 3.938 1.836 5.773Z" stroke="#64748B" stroke-width="2" fill="#FB7185"/><path d="M33 21c-12.335 2.709-18.33 8.367-17.986 16.974C15.359 46.58 21.354 51.59 33 53c-7.66-2.11-11.962-7.12-12.908-15.026C19.147 30.067 23.45 24.409 33 21ZM42 2c14.189 12.82 21.283 24.805 21.283 35.956C63.283 49.107 56.19 60.456 42 72c19.825-5.993 29.824-17.724 29.998-35.194C72.172 19.336 62.172 7.735 42 2Z" fill-opacity=".3" fill="#64748B"/></g><path fill-opacity=".5" fill="#64748B" d="m167.378 258.427-27.404 52.945-90.5-13.272-7.857-48.21z"/><path fill="#64748B" d="m167.378 258.427-34.5 42.925-117.545-18.59 25.26-32.871z"/><path d="M198.2 331.19c-3.678-8.139-8.561-12.524-14.65-13.155-9.133-.948-15.622 13.997-5.712 21.318 6.606 4.88 14.082 12.594 22.426 23.143 4.64-9.814 10.291-17.707 16.954-23.679 9.993-8.957 2.09-25.405-6.86-23.703-5.965 1.135-10.018 6.494-12.158 16.075Z" fill="#FB7185"/><path d="m179.758 323.678-1.873 2.346a1.685 1.685 0 0 1-1.752.576.712.712 0 0 1-.367-1.139l1.917-2.344a1.655 1.655 0 0 1 1.71-.55.7.7 0 0 1 .365 1.111ZM178.527 331.97c1.075 2.482 1.988 4.12 2.739 4.917.752.798 2.39 2.057 4.913 3.778a1 1 0 0 1 .29 1.346.87.87 0 0 1-1.262.245c-2.53-1.881-4.243-3.218-5.138-4.01-.894-.794-1.88-2.538-2.957-5.234a1.122 1.122 0 0 1 .38-1.323.687.687 0 0 1 1.035.282ZM201.883 329.44c1.183-2.2 2.167-3.835 2.95-4.907.782-1.073 2.054-2.525 3.814-4.359l-.716-1.295c-2.183 2.08-3.691 3.706-4.526 4.878-.834 1.171-1.586 2.718-2.255 4.639l.733 1.043ZM214.271 317.866a.754.754 0 0 0-.533-.924l-.75-.2a.754.754 0 0 0-.39 1.457l.75.2a.754.754 0 0 0 .923-.533ZM191.371 351.565l8.598 10.852c4.204-8.48 8.293-14.692 12.267-18.634 5.961-5.912 7.817-6.689 9.353-12.42 1.024-3.822.112-7.912-2.737-12.27 1.263 3.246 1.75 6.698 1.462 10.355-.432 5.486-12.766 18.123-17.728 23.201-3.308 3.385-7.046 3.024-11.215-1.084Z" fill="#FDA4AF"/><path fill-opacity=".5" fill="#64748B" d="m167.378 258.427 32.188 53.588 38.358-10.663L250.4 249.89z"/><path fill="#64748B" d="m167.378 258.427 33.068 45.912 73.22-21.221L250.4 249.89z"/><path fill="#334155" d="m41.617 249.89 88.359-13.868v19.937z"/><path fill="#64748B" d="m41.617 249.89-22.152-15.287 88.608-11.008 22.464 13.148z"/><path fill="#475569" d="M129.976 236.022v19.847l37.402 2.558 83.022-8.536z"/><path fill="#64748B" d="m249.407 249.89 27.544-15.263-119.484-11.032-27.491 13.464z"/><g><path d="M106.327 238.124c3.722 6.447 12.457 8.974 18.898 5.255 6.44-3.718 10.199-12.857 6.477-19.303-3.722-6.447-14.037-8.664-20.477-4.945-6.44 3.718-8.62 12.546-4.898 18.993Z" fill="#EAB308"/><path d="M108.559 238.258c3.722 6.447 12.457 8.974 18.898 5.255 6.44-3.718 10.199-12.857 6.477-19.303-3.722-6.447-14.037-8.664-20.477-4.945-6.44 3.718-8.62 12.546-4.898 18.993Z" fill="#FDE047"/><path d="M110.84 237.807c2.924 5.066 9.64 7.136 14.526 4.315 4.886-2.82 7.656-9.895 4.731-14.96-2.925-5.065-10.845-6.913-15.731-4.092-4.886 2.82-6.45 9.672-3.526 14.737Z" fill="#CA8A04"/><path d="M112.273 236.325c2.791 4.835 9.39 6.703 14.276 3.882 4.886-2.82 7.763-9.708 4.972-14.543-2.792-4.835-10.586-6.464-15.472-3.643-4.886 2.82-6.568 9.47-3.776 14.304Z" fill="#EAB308"/><path d="M126.954 225.694c.844.757 1.464 1.774 1.86 3.052.412 1.326.474 2.58.186 3.765a.569.569 0 0 0 .574.703.907.907 0 0 0 .87-.84c.139-1.883.068-3.318-.211-4.305-.319-1.123-1.047-2.13-2.183-3.018l-.893.057a.336.336 0 0 0-.203.586ZM124.866 223.513l.14.244a.484.484 0 0 1-.351.722l-.317.044a1 1 0 0 1-.719-.175l-.33-.235a.516.516 0 0 1 .04-.868l.171-.098a1 1 0 0 1 1.366.366Z" fill="#FEF9C3"/></g><g><path d="M73.907 103.67c-5.66-6.908-11.51-9.88-17.556-8.914-9.067 1.449-11.466 17.564 0 22.07 7.645 3.004 16.862 8.521 27.653 16.55 1.941-10.68 5.357-19.767 10.247-27.259 7.335-11.239-4.557-25.081-12.76-21.12-5.469 2.64-7.997 8.865-7.584 18.674Z" fill="#FB7185"/><path d="m54.15 101.189-1.202 2.75a1.685 1.685 0 0 1-1.544 1.01.712.712 0 0 1-.65-1.005l1.246-2.76a1.655 1.655 0 0 1 1.509-.975.7.7 0 0 1 .64.98ZM55.107 109.518c1.68 2.118 2.986 3.464 3.917 4.039.934.576 2.842 1.369 5.724 2.378a1 1 0 0 1 .629 1.225.87.87 0 0 1-1.156.563c-2.931-1.162-4.932-2.01-6-2.544-1.07-.534-2.474-1.964-4.212-4.29a1.122 1.122 0 0 1 .026-1.376.687.687 0 0 1 1.072.005ZM77.011 101.027c.575-2.43 1.1-4.264 1.58-5.503.478-1.238 1.33-2.97 2.556-5.197l-1.027-1.066c-1.57 2.575-2.606 4.536-3.109 5.883-.503 1.348-.829 3.036-.977 5.065l.977.818ZM85.983 86.642a.754.754 0 0 0-.755-.754h-.776a.754.754 0 0 0 0 1.508h.776a.754.754 0 0 0 .755-.754ZM72.585 125.12l11.113 8.256c1.865-9.28 4.208-16.337 7.026-21.173 4.228-7.254 5.82-8.484 5.82-14.419 0-3.956-1.94-7.67-5.82-11.142 2.061 2.808 3.425 6.016 4.093 9.623 1.002 5.411-7.64 20.81-11.119 27-2.319 4.125-6.023 4.744-11.113 1.855Z" fill="#FDA4AF"/></g><g><path d="M199.315 71.025c-1.447-8.813-5.029-14.313-10.747-16.499-8.576-3.278-18.712 9.478-11.035 19.114 5.119 6.424 10.343 15.81 15.673 28.159 7.022-8.28 14.523-14.44 22.504-18.484 11.971-6.066 8.594-24-.49-24.67-6.057-.448-11.358 3.678-15.905 12.38Z" fill="#FB7185"/><path d="m183.445 58.996-2.416 1.781a1.685 1.685 0 0 1-1.842.103.712.712 0 0 1-.06-1.195l2.46-1.768a1.655 1.655 0 0 1 1.793-.09.7.7 0 0 1 .065 1.17ZM180.11 66.688c.396 2.674.854 4.493 1.373 5.457.52.966 1.776 2.606 3.768 4.922a1 1 0 0 1-.068 1.374.87.87 0 0 1-1.283-.09c-1.957-2.472-3.266-4.206-3.924-5.203-.66-.998-1.16-2.938-1.503-5.82-.06-.51.232-.996.71-1.18a.687.687 0 0 1 .927.54ZM203.325 70.287c1.712-1.817 3.085-3.143 4.119-3.976 1.033-.833 2.638-1.907 4.813-3.222l-.357-1.437c-2.646 1.445-4.524 2.625-5.634 3.54-1.11.916-2.235 2.215-3.379 3.898l.438 1.197ZM218.287 62.315a.754.754 0 0 0-.276-1.03l-.672-.389a.754.754 0 0 0-.754 1.307l.671.388a.754.754 0 0 0 1.03-.276ZM187.445 88.939l5.496 12.707c6.256-7.104 11.813-12.045 16.672-14.824 7.288-4.168 9.282-4.437 12.25-9.577 1.977-3.426 2.154-7.612.53-12.56.38 3.463-.042 6.924-1.267 10.381-1.838 5.187-17.022 14.202-23.129 17.822-4.07 2.414-7.588 1.098-10.552-3.95Z" fill="#FDA4AF"/></g><g><path d="M169.315 215.025c-1.447-8.813-5.029-14.313-10.747-16.499-8.576-3.278-18.712 9.478-11.035 19.114 5.119 6.424 10.343 15.81 15.673 28.159 7.022-8.28 14.523-14.44 22.504-18.484 11.971-6.066 8.594-24-.49-24.67-6.057-.448-11.358 3.678-15.905 12.38Z" fill="#FB7185"/><path d="m153.445 202.996-2.416 1.781a1.685 1.685 0 0 1-1.842.103.712.712 0 0 1-.06-1.195l2.46-1.768a1.655 1.655 0 0 1 1.793-.09.7.7 0 0 1 .065 1.17ZM150.11 210.688c.396 2.674.854 4.493 1.373 5.457.52.966 1.776 2.606 3.768 4.922a1 1 0 0 1-.068 1.374.87.87 0 0 1-1.283-.09c-1.957-2.472-3.266-4.206-3.924-5.203-.66-.998-1.16-2.938-1.503-5.82-.06-.51.232-.996.71-1.18a.687.687 0 0 1 .927.54ZM173.325 214.287c1.712-1.817 3.085-3.143 4.119-3.976 1.033-.833 2.638-1.907 4.813-3.222l-.357-1.437c-2.646 1.445-4.524 2.625-5.634 3.54-1.11.916-2.235 2.215-3.379 3.898l.438 1.197ZM188.287 206.315a.754.754 0 0 0-.276-1.03l-.672-.389a.754.754 0 0 0-.754 1.307l.671.388a.754.754 0 0 0 1.03-.276ZM157.445 232.939l5.496 12.707c6.256-7.104 11.813-12.045 16.672-14.824 7.288-4.168 9.282-4.437 12.25-9.577 1.977-3.426 2.154-7.612.53-12.56.38 3.463-.042 6.924-1.267 10.381-1.838 5.187-17.022 14.202-23.129 17.822-4.07 2.414-7.588 1.098-10.552-3.95Z" fill="#FDA4AF"/></g><circle fill="#E2E8F0" cx="66" cy="148.941" r="3"/><circle fill="#E2E8F0" cx="68" cy="65.941" r="3"/><circle fill="#E2E8F0" cx="223" cy="96.941" r="3"/><circle fill="#E2E8F0" cx="218" cy="205.941" r="2"/><circle fill="#E2E8F0" cx="78" cy="180.941" r="2"/><circle fill="#E2E8F0" cx="95" cy="217.941" r="2"/><circle fill="#E2E8F0" cx="20" cy="138.941" r="2"/><circle fill="#E2E8F0" cx="160" cy="172.941" r="1"/><circle fill="#E2E8F0" cx="30" cy="48.941" r="1"/><circle fill="#E2E8F0" cx="189" cy="192.941" r="1"/><circle fill="#E2E8F0" cx="143" cy="79.941" r="1"/><g transform="translate(336 151.941)" fill="#FFF"><rect x="4" width="4" height="12" rx="2"/><rect y="4" width="12" height="4" rx="2"/></g><g transform="translate(288 71.941)" fill="#CBD5E1"><rect x="3" width="2" height="8" rx="1"/><rect y="3" width="8" height="2" rx="1"/></g><circle fill="#E2E8F0" cx="316" cy="132.941" r="3"/><circle fill="#E2E8F0" cx="358" cy="119.941" r="2"/><circle fill="#E2E8F0" cx="299" cy="184.941" r="1"/><circle fill="#E2E8F0" cx="267" cy="90.941" r="1"/><circle fill="#E2E8F0" cx="228" cy="44.941" r="1"/><g><path d="M66.717 202.597c-3.07-3.802-6.245-5.437-9.525-4.905-4.92.797-6.222 9.664 0 12.143 4.148 1.653 9.15 4.689 15.004 9.106 1.053-5.876 2.907-10.876 5.56-14.998 3.98-6.184-2.473-13.8-6.924-11.62-2.967 1.452-4.339 4.877-4.115 10.274Z" fill="#FB7185"/><path d="m56.782 201.391-.526 1.086a.823.823 0 0 1-.74.464.319.319 0 0 1-.285-.46l.545-1.092a.809.809 0 0 1 .724-.448.313.313 0 0 1 .282.45ZM56.93 205.38c.968 1.377 1.72 2.253 2.257 2.626.532.37 1.613.879 3.244 1.525a.691.691 0 0 1 .415.816.52.52 0 0 1-.716.344c-1.662-.744-2.797-1.287-3.406-1.63-.617-.348-1.426-1.278-2.427-2.79a.787.787 0 0 1 .016-.893.378.378 0 0 1 .617.003ZM68.574 201.941c.336-1.446.645-2.537.926-3.273.28-.737.78-1.768 1.5-3.093l-.603-.634c-.92 1.532-1.528 2.699-1.823 3.5-.296.802-.487 1.807-.574 3.014l.574.486ZM74 194.441a.5.5 0 0 0-.5-.5h-1a.5.5 0 1 0 0 1h1a.5.5 0 0 0 .5-.5ZM66 214.525l6.494 4.416c1.09-4.964 2.458-8.74 4.105-11.326 2.47-3.88 3.401-4.539 3.401-7.713 0-2.116-1.134-4.103-3.4-5.96a11.871 11.871 0 0 1 2.39 5.147c.586 2.895-4.464 11.132-6.496 14.443-1.355 2.207-3.52 2.538-6.494.993Z" fill="#FDA4AF"/></g><g><path d="M268.11 134.087c-.758-4.828-2.69-7.831-5.796-9.01-4.66-1.77-10.22 5.258-6.072 10.516 2.766 3.505 5.58 8.634 8.44 15.388 3.851-4.563 7.956-7.966 12.315-10.21 6.538-3.365 4.759-13.187-.185-13.525-3.297-.225-6.197 2.055-8.701 6.84Z" fill="#FB7185"/><path d="m260.109 128.075-.999.677c-.26.177-.6.19-.873.032a.319.319 0 0 1-.016-.542l1.018-.672a.809.809 0 0 1 .85-.026.313.313 0 0 1 .02.53ZM258.242 131.604c.15 1.676.364 2.81.642 3.402.276.587.958 1.568 2.048 2.943a.691.691 0 0 1-.05.914.52.52 0 0 1-.792-.06c-1.066-1.475-1.778-2.514-2.134-3.116-.36-.609-.596-1.818-.707-3.629a.787.787 0 0 1 .46-.765.378.378 0 0 1 .533.31ZM270.046 134.447c1.014-1.084 1.828-1.874 2.439-2.372.611-.497 1.56-1.14 2.845-1.928l-.205-.85c-1.563.866-2.673 1.572-3.33 2.119-.656.547-1.324 1.321-2.003 2.323l.254.708ZM278.495 130.665a.5.5 0 0 0-.183-.683l-.866-.5a.5.5 0 1 0-.5.866l.866.5a.5.5 0 0 0 .683-.183ZM261.525 144.058l3.416 7.072c3.426-3.754 6.499-6.34 9.218-7.757 4.08-2.125 5.215-2.23 6.802-4.979 1.058-1.833 1.07-4.12.035-6.862a11.871 11.871 0 0 1-.503 5.654c-.94 2.799-9.432 7.408-12.848 9.259-2.277 1.234-4.317.438-6.12-2.387Z" fill="#FDA4AF"/></g><g><path d="M99.446 41.75c-1.982-4.466-4.626-6.868-7.931-7.203-4.958-.503-8.51 7.724-3.143 11.73 3.579 2.67 7.624 6.896 12.136 12.679 2.538-5.404 5.622-9.754 9.252-13.049 5.445-4.943 1.183-13.97-3.68-13.017-3.242.636-5.453 3.589-6.634 8.86Z" fill="#FB7185"/><path d="m90.161 38.014-.789.913a.823.823 0 0 1-.835.257.319.319 0 0 1-.156-.52l.81-.913a.809.809 0 0 1 .814-.245.313.313 0 0 1 .156.508ZM89.272 41.906c.578 1.58 1.078 2.62 1.5 3.12.418.496 1.331 1.266 2.74 2.313.28.208.36.592.188.895a.52.52 0 0 1-.78.147c-1.412-1.148-2.368-1.967-2.868-2.457-.505-.495-1.046-1.602-1.622-3.322a.787.787 0 0 1 .246-.858.378.378 0 0 1 .596.162ZM101.409 41.597c.7-1.31 1.28-2.283 1.742-2.922.462-.639 1.212-1.505 2.25-2.599l-.419-.768c-1.286 1.24-2.175 2.21-2.667 2.909-.493.698-.938 1.618-1.334 2.762l.428.618ZM108.591 35.757a.5.5 0 0 0-.353-.612l-.966-.259a.5.5 0 1 0-.259.966l.966.259a.5.5 0 0 0 .612-.354ZM95.666 53.086l5.13 5.947c2.337-4.513 4.636-7.806 6.897-9.878 3.39-3.109 4.46-3.504 5.28-6.57.548-2.044-.032-4.257-1.741-6.638.774 1.763 1.1 3.627.977 5.592-.183 2.947-7.193 9.597-10.013 12.269-1.88 1.78-4.057 1.54-6.53-.722Z" fill="#FDA4AF"/></g><g><path d="M159.11 16.087c-.758-4.828-2.69-7.831-5.796-9.01-4.66-1.77-10.22 5.258-6.072 10.516 2.766 3.505 5.58 8.634 8.44 15.388 3.851-4.563 7.956-7.966 12.315-10.21 6.538-3.365 4.759-13.187-.185-13.525-3.297-.225-6.197 2.055-8.701 6.84Z" fill="#FB7185"/><path d="m151.109 10.075-.999.677c-.26.177-.6.19-.873.032a.319.319 0 0 1-.016-.542l1.018-.672a.809.809 0 0 1 .85-.026.313.313 0 0 1 .02.53ZM149.242 13.604c.15 1.676.364 2.81.642 3.402.276.587.958 1.568 2.048 2.943a.691.691 0 0 1-.05.914.52.52 0 0 1-.792-.06c-1.066-1.475-1.778-2.514-2.134-3.116-.36-.609-.596-1.818-.707-3.629a.787.787 0 0 1 .46-.765.378.378 0 0 1 .533.31ZM161.046 16.447c1.014-1.084 1.828-1.874 2.439-2.372.611-.497 1.56-1.14 2.845-1.928l-.205-.85c-1.563.866-2.673 1.572-3.33 2.119-.656.547-1.324 1.321-2.003 2.323l.254.708ZM169.495 12.665a.5.5 0 0 0-.183-.683l-.866-.5a.5.5 0 1 0-.5.866l.866.5a.5.5 0 0 0 .683-.183ZM152.525 26.058l3.416 7.072c3.426-3.754 6.499-6.34 9.218-7.757 4.08-2.125 5.215-2.23 6.802-4.979 1.058-1.833 1.07-4.12.035-6.862a11.871 11.871 0 0 1-.503 5.654c-.94 2.799-9.432 7.408-12.848 9.259-2.277 1.234-4.317.438-6.12-2.387Z" fill="#FDA4AF"/></g></g></svg>