<svg xmlns="http://www.w3.org/2000/svg" viewBox="0 0 128 80">
  <defs/>
  <title>
    Meet the team at HEC Partners
  </title>
  <g fill="none" fill-rule="evenodd">
    <path fill="#EFBE85" d="M40.57 38.662c.277-1.42.571-3.405.787-5.72h.027s.794.42 1.105 1.3c.326.922-1.242 3.523-1.865 4.42h-.054M16.962 32.941c.219 2.311.51 4.293.785 5.711l-.05.01c-.623-.897-2.19-3.498-1.865-4.42.312-.88 1.105-1.3 1.105-1.3h.025M29.21 48.582c1.048.053 3.08-.67 4.22-1.25-.822 2.107-11.263 8.02-12.57 9.01-1.202.915-3.625 3.075-5.35 2.397l-1.14-.454c.87-.568 1.587-1.084 2.044-1.502 2.63-2.404 3.715-5.091 3.645-8.204-.041-1.702-.005-4.076-.494-5.683l.02.028c1.247 1.69 3.69 3.47 4.939 4.209 1.005.594 3.414 1.51 4.588 1.449h.097"/>
    <path fill="#FFE0B4" d="M55.602 64.842l2.631 6.083H0l2.634-6.083s7.607-3.86 11.735-6.557l1.14.454c1.726.678 4.149-1.482 5.352-2.398 1.306-.99 11.747-6.902 12.568-9.009.137-.07.262-.137.369-.2 1.21-.715 3.54-2.408 4.817-4.05-.431 1.6-.404 3.86-.44 5.497-.071 3.113 1.012 5.8 3.646 8.204 2.632 2.402 13.78 8.06 13.78 8.06"/>
    <path fill="#FED5A5" d="M19.687 42.896c-.624-.813-1.118-1.598-1.371-2.244-.152-.38-.332-1.066-.521-1.99l-.003-.01c-.287-1.418-.59-3.4-.818-5.71-.306-3.083-.465-7.043.054-10.722 1.283-9.089 12.662-8.192 12.662-8.192v34.554c-1.224.06-3.786-.855-4.834-1.45-1.302-.738-3.848-2.517-5.148-4.208l-.021-.028"/>
    <path fill="#FFE0B4" d="M33.43 47.332c-1.14.58-3.22 1.303-4.269 1.25V14.028s10.915-.897 12.146 8.192c.498 3.679.346 7.64.05 10.721-.216 2.316-.51 4.302-.787 5.721-.18.924-.355 1.61-.498 1.99-.246.653-.728 1.45-1.336 2.272l-.12.158c-1.278 1.642-3.608 3.335-4.818 4.05-.107.063-.232.13-.369.2"/>
    <path fill="#9C6746" d="M19.683 2.53l-.125.004.125-.004"/>
    <path fill="#6B4732" d="M33.955 3.653A5.356 5.356 0 0135.327.445c-.032 2.02.268 3.333 1.665 4.659.468.445.928.933 1.444 1.4.94.849 2.005 1.897 2.737 3.332 1.449 2.843 2.364 6.027 2.725 9.21.276 2.443.29 4.997-.367 7.357-.526 1.89-.862 4.82-2.147 6.405-.875-3.792.25-8.008-.747-11.607-.436-1.578-3.041-2.648-3.604-4.09-.13-.33-.205-.841-.44-1.039-.154-.133-.612-.076-.82-.158-.362-.142-2.646-1.058-2.603-1.293-.113.635-1.868.329-2.354.33-.745.004-1.375-.67-2.098-.66-.648.01-1.201.687-1.865.78-.63.086-1.262-.167-1.779.421-.56.638-.879 1.294-1.63 1.554-.953.328-1.91.376-2.899.872-1.373.686-3.54 3.235-3.57 5.397-.045 3.11.156 6.316-.038 9.459-.248-.47-1.15-1.542-1.833-3.86-.43-1.458-.919-3.193-1.13-4.708-.187-1.336.1-2.715.4-4.083.262-1.197.8-2.459 1.003-3.79.232-1.517.111-3.414-.55-4.34.677-.292 1.068.176 1.605.033a6.232 6.232 0 00-.054-.578c-.128-.903-.414-1.593-.369-2.698.04-.973.225-1.965.319-2.912.18.964.63 2.755 1.658 2.449-.373-.583-.255-1.44-.023-2.384.209-.846.323-1.745.701-2.47.161.85-.38 1.922.525 2.243.725.257 1.627-.125 2.298-.333.9-.28.857-.99.178-1.722-.44-.474-1.973-1.09-1.973-1.09 0-.002 3.403.314 4.754 1.303-.052-1.455-3.525-3.792-3.525-3.792s2.102.062 3.13-.026c1.436-.125 3.22.523 4.485 1.24.917.52 2.525 1.863 2.537 2.899.237-.667.5-1.744-.11-2.409.514.283 1.127.489 1.627.77.537.302.841.864 1.364 1.137"/>
    <path fill="#9C6746" d="M35.005 15.525c-.57-.871-.903-1.913-1.076-2.876a9.928 9.928 0 01-.11-2.723c.094.845.161 1.736.333 2.68.165.946.439 1.943.853 2.919M34.328 14.44a13.132 13.132 0 01-.886-1.526 14.83 14.83 0 01-.675-1.534c-.185-.508-.34-1.011-.413-1.51-.073-.496-.086-1.001.11-1.446-.05.231-.066.467-.045.703.013.237.051.476.107.715.111.48.267.965.454 1.46.182.499.396 1.004.618 1.529.111.262.23.527.353.793.117.272.247.54.377.816M30.756 14.9c-.264-.066-.508-.222-.728-.406a4.11 4.11 0 01-.582-.65c-.347-.473-.607-1-.809-1.522-.194-.526-.334-1.055-.372-1.574-.036-.512.004-1.039.289-1.454-.098.223-.147.46-.155.701-.015.241.002.488.04.735a7.45 7.45 0 00.41 1.506c.19.505.434 1.011.735 1.49.151.24.322.468.515.67.19.21.41.382.657.504"/>
    <path fill="#9C6746" d="M31.363 14.537a2.272 2.272 0 01-.903-.51 2.88 2.88 0 01-.646-.878 3.604 3.604 0 01-.315-2.025c.092.64.219 1.302.516 1.912.146.305.335.59.563.843.229.25.493.47.785.658M25.433 15.047c-.321.23-.683.382-1.055.481-.374.092-.758.11-1.14-.055-.766-.332-1.515-1.187-2.218-1.786a3.134 3.134 0 00-1.954-.803c-.59-.04-1.128-.035-1.51-.317.231.07.48.1.756.093.27.003.558-.015.86-.016.604-.002 1.251.204 1.936.816.682.615 1.404 1.447 2.142 1.814.735.364 1.494.132 2.183-.227M25.27 5.44c1.086.174 2.174.44 3.135.935.962.487 1.74 1.238 2.128 2.166.182.466.267.956.397 1.445.13.495.264 1.005.416 1.53.154.523.34 1.063.6 1.584.252.52.598 1.036 1.09 1.34-.518-.252-.898-.77-1.188-1.28a9.77 9.77 0 01-.67-1.593c-.18-.526-.308-1.042-.45-1.535-.137-.499-.23-.983-.41-1.427-.169-.44-.455-.846-.793-1.2-.342-.357-.761-.653-1.214-.908a8.24 8.24 0 00-1.465-.623 17.393 17.393 0 00-1.577-.433"/>
    <path fill="#9C6746" d="M38.944 10.295c-.081.023-.185-.034-.26-.1a1.699 1.699 0 01-.207-.22 5.18 5.18 0 01-.328-.479c-.199-.32-.371-.638-.534-.95-.16-.312-.308-.62-.444-.926-.07-.153-.124-.31-.192-.456a3.528 3.528 0 00-.232-.425A4.586 4.586 0 0035.33 5.37a7.585 7.585 0 00-1.887-.826 10.027 10.027 0 00-2.088-.389c-.71-.064-1.43-.011-2.147.033-.714.055-1.426.157-2.114.335a6.075 6.075 0 00-1 .338c-.321.135-.58.358-.826.58.228-.235.472-.473.797-.625.313-.159.65-.28.995-.384.69-.2 1.409-.322 2.13-.396.362-.039.724-.063 1.088-.076a10.152 10.152 0 013.24.399 7.8 7.8 0 011.936.87c.583.38 1.1.863 1.444 1.447.085.147.164.294.228.451.067.155.113.309.177.46.125.307.264.616.411.93.146.316.303.637.484.96.091.162.19.325.303.482.057.079.12.157.192.225.07.067.165.128.25.11"/>
    <path fill="#9C6746" d="M23.293 6.151c.271-.03.547-.083.825-.143.28-.054.562-.1.847-.135a7.619 7.619 0 011.731-.016c.29.036.57.078.854.163.278.086.543.206.77.36.46.306.81.682 1.222 1.017-.237-.137-.452-.298-.67-.452a6.203 6.203 0 00-.656-.446 3.124 3.124 0 00-.736-.308 5.29 5.29 0 00-.814-.145 9.662 9.662 0 00-1.682-.028c-.564.036-1.126.153-1.69.133"/>
    <path fill="#9C6746" d="M28.97 14.367a8.19 8.19 0 01-1.083-.923 10.166 10.166 0 01-.914-1.086 9.306 9.306 0 01-1.25-2.369c-.259-.806-.388-1.583-.669-2.301a4.01 4.01 0 00-.244-.524 1.701 1.701 0 00-.354-.464c-.288-.278-.709-.445-1.163-.549.457.061.913.213 1.244.484.167.138.296.302.401.474.108.172.2.348.28.53.323.727.452 1.51.722 2.29.254.78.668 1.565 1.174 2.324.51.76 1.138 1.486 1.856 2.114M23.888 16.573c-.252.06-.448.204-.642.33a1.477 1.477 0 01-.306.168c-.11.038-.22.066-.336.088-.457.077-.959.032-1.486-.056-.525-.08-1.066-.193-1.544-.226a3.504 3.504 0 01-1.244-.291c-.688-.355-1.148-.89-1.457-1.656-.303-.775-.475-1.731-.435-2.854.027.518.091 1.002.198 1.434.1.439.234.836.403 1.187.337.698.788 1.228 1.46 1.56a3.2 3.2 0 001.165.333c.444.052.944.173 1.442.286.5.112.99.183 1.45.14.114-.01.23-.025.34-.05.108-.028.21-.077.313-.13.202-.108.421-.233.679-.263M19.08 5.722c.242.058.492.099.746.145.256.043.518.106.792.19.272.088.557.193.843.277.286.081.577.133.838.093-.202.113-.512.11-.83.037-.32-.068-.638-.178-.93-.262-.293-.087-.565-.142-.811-.206a1.94 1.94 0 01-.648-.274"/>
    <path fill="#EBF3EF" d="M29.145 65.66s12.451.332 14.521-7.212c.428.247.883.495 1.357.748l-.07.28c-4.321 8.31-15.724 7.455-15.724 7.455h-.107V65.66h.023"/>
    <path fill="#D0D9D4" d="M29.122 66.93h.107s11.403.855 15.724-7.453l.07-.28c3.322 1.762 7.559 3.657 9.326 5.648 1.066 1.2 2.498 6.08 2.498 6.08H29.122v-3.994"/>
    <path fill="#D8E0DB" d="M29.04 66.93s-11.403.855-15.723-7.453l-.431-.093c.603-.316 1.181-.63 1.716-.936 2.07 7.544 14.52 7.212 14.52 7.212v1.27h-.082"/>
    <path fill="#D0D9D4" d="M29.122 66.93v3.995h-27.7s1.433-4.88 2.499-6.08c1.703-1.919 5.702-3.749 8.965-5.46l.43.092c4.321 8.308 15.724 7.454 15.724 7.454h.082"/>
    <path fill="#1C2942" d="M55.323 64.289a1.924 1.924 0 00-.235-.28c-1.08-.972-2.633-1.556-3.954-2.164-1.503-.694-2.913-1.239-4.328-2.059-1.446-.839-2.89-1.676-4.242-2.644-.037.061-.414 6.396-5.991 13.78h21.469c0-.8-1.85-5.426-2.719-6.633"/>
    <path fill="#39475E" d="M48.319 61.265c-.015-.8-.23-1.112-.941-1.525-1.447-.839-3.462-1.63-4.814-2.598-.037.061-.414 6.396-5.991 13.78h8.638l.392.003-.005-.003c-.45-.397-.635-2.592-1.072-3.006 1.16-.355 3.547-1.091 3.559-1.131.06-.216.264-3.88.234-5.52"/>
    <path fill="#1C2942" d="M11.511 59.786c-1.414.82-2.824 1.365-4.327 2.059-1.32.608-2.874 1.192-3.953 2.164a1.876 1.876 0 00-.236.28C2.126 65.496.276 70.123.276 70.922h21.469c-5.577-7.384-5.955-13.719-5.991-13.78-1.352.968-2.796 1.805-4.243 2.644"/>
    <path fill="#39475E" d="M10.94 59.74c-.711.413-.927.725-.94 1.525-.031 1.64.173 5.304.234 5.52.01.04 2.397.776 3.558 1.13-.437.415-.623 2.61-1.072 3.007l-.005.003.392-.003h8.638c-5.577-7.384-5.955-13.719-5.991-13.78-1.352.968-3.367 1.759-4.814 2.598"/>
    <path fill="#9C6746" d="M35.42 64.428c1.57-3.347 2.182-7.281 2.639-10.149.199-1.248.27-4.64.104-5.994 1.34.103 2.766 1.568 2.651 3.054 4.032-.522 2.737 14.095.118 19.442v.143H29.888c1.336-1.434 4.28-3.826 5.531-6.496"/>
    <path fill="#D48F5E" d="M50.985 59.463c1.346.357 1.32.913 1.707 2.122.094.293.094.64.225 1.117-.925-.306-1.807-.857-2.868-1.333-.679-.306-1.598.476-2.101.964-.915.885-1.721 1.89-2.717 2.688-.936.75-2.093 1.273-3.164 1.79-5.628 2.721-12.35 4.066-18.431 2.166-1.676-.523-3.423-1.26-4.93-2.18-2.526-1.54-3.198-4.412-3.352-7.215-.104-1.9-.385-6.258.944-7.784.072-.084 1.121-.77 1.145-.459-.114-1.486 1.314-2.953 2.654-3.054-.087.007-.372 4.125-.39 4.459-.172 3.21 1.314 5.687 4.127 7.004 2.528 1.184 5.503 1.94 8.294 1.684 1.411-.13 3.014-.503 4.286-1.168 1.865-.977 9.036-5.245 10.764-4.812 1.685.421 1.107 2.165 2.042 3.229.444.505 1.121.61 1.765.782"/>
    <g>
      <path fill="#A37555" d="M91.912 8.336c-3.541 3.28-6.908 8.797-7.653 13.68-.583 3.818.32 7.598-.038 11.45-.262 2.837-1.65 5.254-1.95 8.03a4.386 4.386 0 00-.037.268c-.288 2.516.505 4.468.96 6.788.48 2.466-2.486 5.573-3.186 8.005-.67 2.331.295 3.77.512 5.986l.075-.007c.863-.09 12.187-.267 23.142-.326V4.1c-4.586.094-10.148 2.686-11.825 4.237"/>
      <path fill="#D4996E" d="M125.238 56.557c-.7-2.432-3.666-5.54-3.184-8.005.455-2.32 1.248-4.272.958-6.788l-.025-.18-.007-.06c-.293-2.789-1.691-5.213-1.956-8.058-.355-3.852.547-7.632-.038-11.45-.744-4.883-4.192-10.308-7.65-13.68-.387-.377-2.263-2.492-3.773-1.7l-.078-.044c-1.155-1.889-3.314-2.542-5.748-2.493V62.21c10.342-.055 20.353-.005 20.916.326l.073.005c.217-2.216 1.183-3.653.512-5.984"/>
      <path fill="#FFE1B5" d="M126.606 63.67l.925 6.34h-49.83l.926-6.34s7.5-4.216 11.245-7.148c.47-.37.882-.718 1.212-1.04h.003c.137-.012 4.282-.442 7.15-3.4 2.004-2.062 3.725-6.914 8.016-11.064.516-.385.853-.804 1.246-1.106a24.806 24.806 0 002.728-2.404l.03.03c-.45 1.812-.375 5.847-.39 7.563-.03 3.502 1.51 7.292 3.909 10 2.4 2.708 12.83 8.569 12.83 8.569"/>
      <path fill="#F0BF86" d="M114.486 25.336s.77.542 1.005 1.56c.238 1.027-1.467 3.661-2.233 4.706.396-1.554.83-3.666 1.129-6.28l.1.014"/>
      <path fill="#FFE1B5" d="M106.253 41.018c-.698.522-1.718.98-3.637.979V5.942l.005-.197c2.176.003 11.7 1.294 12.073 10.724a58.177 58.177 0 01-.308 8.854 47.168 47.168 0 01-1.128 6.279c-.28 1.1-.537 1.92-.71 2.447-.393 1.195-1.295 2.397-2.32 3.46a24.806 24.806 0 01-2.73 2.403c-.392.302-.73.721-1.245 1.106"/>
      <path fill="#FFD6A6" d="M90.54 16.47c.372-9.438 9.91-10.725 12.076-10.725h.005l-.005.197v36.055c-3.323.002-3.956-1.376-4.882-2.085a24.806 24.806 0 01-2.728-2.404c-1.025-1.062-1.928-2.264-2.32-3.459a37.435 37.435 0 01-.71-2.447 47.168 47.168 0 01-1.13-6.28 58.177 58.177 0 01-.307-8.853"/>
      <path fill="#F0BF86" d="M95.006 37.508c.908.94 1.905 1.776 2.728 2.404.926.709 1.559 2.087 4.882 2.085 1.92.002 2.94-.457 3.637-.979-4.292 4.15-6.012 9.002-8.016 11.065-2.868 2.957-7.013 3.387-7.15 3.4a6.75 6.75 0 00.37-.382c2.399-2.708 3.939-6.498 3.909-10-.015-1.716.06-5.751-.39-7.562l.03-.03M90.846 25.323a47.168 47.168 0 001.13 6.279c-.769-1.045-2.472-3.679-2.235-4.705.233-1.019 1.006-1.561 1.006-1.561l.1-.013"/>
      <path fill="#D4996E" d="M101.86 4.096c-4.064.552-8.19 2.518-9.948 4.24-3.45 3.38-6.908 8.797-7.653 13.68-.583 3.818.32 7.598-.038 11.45-.262 2.837-1.65 5.254-1.95 8.03.375-2.396 1.936-3.125 3.24-5.012 1.462-2.12 1.975-4.77 3.213-6.926a5.954 5.954 0 011.132-1.414v-.391c.744-.93.797-2.91 1.025-3.75.432-1.587 1.228-2.628 2.594-3.52 2.89-1.886 6.346-1.768 9.554-2.799 3.803-1.221 5.455-4.514 5.725-8.277.013-.191.035-.394.07-.6.022-.144.05-.288.083-.432a5.94 5.94 0 01.242-.832c.103-.292.227-.595.375-.912-2.536-3.257-6.498-2.694-7.664-2.535"/>
      <path fill="#D4996E" d="M109.149 7.543a5.94 5.94 0 00-.242.832c.06-.268.14-.544.242-.832"/>
      <path fill="#D4996E" d="M109.128 7.534c-.847 2.129-1.1 4.531.238 6.578.942 1.44 2.008 2.416 2.595 4.056.535 1.492.63 3.087 1.3 4.544.674 1.464 1.915 2.364 2.975 3.54.45.5 1.173-2.514 1.18-2.711.048-1.1-.21-1.798-.645-2.757-1.198-2.636-1.477-5.303-2.258-8.06-.386-1.362-1.174-2.635-2.1-3.681-.799-.904-1.885-1.758-2.876-2.43-.147.3-.285.607-.41.921"/>
      <path fill="#EDB892" d="M107.237 7.528c-1.257-.36-2.611-.52-3.975-.548a16.713 16.713 0 00-4.098.441c-1.338.334-2.628.842-3.765 1.527-.567.344-1.1.723-1.592 1.133-.485.415-.937.855-1.334 1.322a14.918 14.918 0 013.066-2.288 14.343 14.343 0 013.702-1.435c1.303-.33 2.658-.473 4.004-.493.674-.012 1.346.014 2.013.072.668.052 1.33.141 1.98.27"/>
      <path fill="#EDB892" d="M106.998 8c-1.402.084-2.8.313-4.174.622a25.853 25.853 0 00-4.014 1.261c-1.279.544-2.509 1.198-3.567 2.013A11.1 11.1 0 0093.8 13.22a8.07 8.07 0 00-1.07 1.52c.69-1.021 1.61-1.931 2.68-2.696a17.292 17.292 0 013.538-1.924c1.26-.537 2.587-.95 3.934-1.302.674-.176 1.356-.33 2.043-.464A31.466 31.466 0 01106.998 8M107.09 9.066c-.349.29-.703.57-1.08.83-.37.266-.754.519-1.15.757-.793.475-1.616.916-2.479 1.289-.867.375-1.752.73-2.635 1.084-.442.176-.888.347-1.339.504-.45.156-.902.328-1.383.382.242.011.487-.037.725-.085.239-.051.475-.111.709-.174.466-.134.925-.284 1.381-.438a38.96 38.96 0 002.685-1.038 15.662 15.662 0 002.486-1.365c.77-.52 1.489-1.096 2.08-1.746"/>
      <path fill="#578393" d="M120.343 70.01h-5.627c1.376-2.13 1.823-2.922 2.5-5.187.413-1.377.868-6.23.868-6.23.651.433 1.324.866 1.994 1.289 0 0-.86 1.503-1.11 4.687-.25 3.176 1.375 5.44 1.375 5.44M90.33 70.01h-5.626s1.625-2.265 1.375-5.441c-.25-3.184-1.11-4.687-1.11-4.687.67-.423 1.343-.856 1.993-1.289 0 0 .455 4.853.868 6.23.678 2.265 1.126 3.057 2.5 5.186"/>
      <path fill="#D4996E" d="M111.45 49.807c2.526 5.687 1.614 13.035-1.434 18.179 1.863.841 4.987-2.162 5.943-3.685-.152 1.032-.427 2.242-1.284 3.004 1.7-.474 3.29-2.774 4.073-4.24.114 1.574-.114 3.22 1.338 4.215.17-2.217.27-2.896 1.488-4.775 1.6-2.467 1.876-3.848-.454-6.076l-9.67-6.622"/>
      <path fill="#52331D" d="M113.538 26.1c-.01.03-.03.112-.046.183a2.07 2.07 0 01-.053.2l-.056.185a4.94 4.94 0 01-.122.432l-.013.075a.852.852 0 01-.07.203c-.04.09-.118.277-.174.415a2.387 2.387 0 01-.124.276c-.011.013-.05.093-.084.176-.124.296-.537.707-.838.832a5.924 5.924 0 00-.233.102 3.172 3.172 0 01-.73.235l-.107.022c-.002.003-.233.02-.513.04-.494.034-.519.034-.828-.012a4.09 4.09 0 00-.486-.045c-.356.003-1.046-.117-1.22-.214a1.134 1.134 0 00-.19-.066.923.923 0 01-.219-.092 2.269 2.269 0 00-.266-.132c-.23-.099-.467-.228-.557-.306l-.106-.056-.037-.017-.1-.082-.1-.086-.116-.11c-.19-.144-.829-.715-.95-.851a2.491 2.491 0 01-.587-1.054l-.067-.219a2.207 2.207 0 01-.062-.277.756.756 0 00-.03-.15c-.019-.027.04-.415.085-.566a.981.981 0 01.142-.324l.051-.093c0-.007.042-.08.094-.162a.991.991 0 00.095-.166l.025-.02.121-.113.177-.163.141-.138.1-.09.07-.04.175-.107.094-.037c.031-.02.124-.06.207-.09.083-.03.177-.07.21-.09.048-.028.678-.172.761-.174.352-.008.833-.027.944-.037.08-.006.288-.014.462-.014l.494-.006c.319-.007.552-.007.809-.002.14.003.314.003.39.001.074-.001.15 0 .168.005.048.013.397.047.528.053.065.002.175.014.246.026.07.012.17.022.222.022l.132.013.089-.004.052.003.07.03.091.02.106.013.092.02.047.018.065.026.183.051.05.03.015.004-.002-.027.043.024c.077.065.126.091.143.08l.05.028.051.035.119.07.055.045.056.042.03.005.036.042.024.042.02.008.033.02.093.1.06.102.022.035.048.075c.076.067.181.22.186.267l.037.07.034.043.044.075c.052.065.053.067.082.432.03.383.04.811.017.88zm-12.773-.393a.756.756 0 00-.03.15 1.98 1.98 0 01-.061.277l-.068.219c-.134.444-.279.705-.587 1.054-.121.136-.759.707-.95.85l-.115.11-.1.087-.101.082-.037.017-.104.056c-.092.078-.328.207-.56.306a2.192 2.192 0 00-.264.132.942.942 0 01-.22.092c-.077.02-.162.05-.19.066-.174.097-.863.217-1.22.214-.092 0-.31.019-.486.045-.31.046-.333.046-.828.012a14.16 14.16 0 01-.512-.04l-.108-.022a3.172 3.172 0 01-.73-.235 5.486 5.486 0 00-.233-.102c-.3-.125-.714-.536-.837-.832a1.367 1.367 0 00-.085-.176 2.53 2.53 0 01-.123-.276 24.258 24.258 0 00-.175-.415.832.832 0 01-.07-.203l-.013-.075a5.305 5.305 0 01-.122-.432l-.055-.184a2.588 2.588 0 01-.054-.201 2.316 2.316 0 00-.046-.184c-.02-.069-.012-.497.018-.88.029-.365.03-.367.082-.432l.044-.075.034-.043.037-.07c.004-.048.11-.2.185-.267l.048-.075.022-.035.06-.102.093-.1.032-.02.022-.008.023-.042.035-.042.032-.005.056-.042.055-.044.118-.07.05-.036.052-.028c.016.011.065-.015.142-.08l.043-.024-.002.027.015-.005.05-.029.184-.05.065-.027.046-.018.092-.02.106-.012.091-.021.07-.03.053-.003.089.004.131-.013a1.6 1.6 0 00.222-.022c.071-.012.182-.024.246-.026.132-.006.48-.04.529-.053.017-.004.093-.006.168-.005.075.002.251.002.39-.001.257-.005.49-.005.809.002l.493.006c.174 0 .382.008.463.014.11.01.592.029.943.037.084.002.714.146.762.174.032.02.127.06.21.09.083.03.176.07.207.09l.093.037.175.107.07.04.1.09.142.138.176.163.122.112.025.02c-.001.01.042.086.095.167.051.082.094.155.093.162l.05.093c.07.103.094.16.144.324.045.151.103.54.084.566zm14.407-2.5c-.043-.387-.748-.232-1.028-.263-.104-.01-.298-.026-.431-.033a21.688 21.688 0 01-.444-.03c-.399-.031-.798.032-1.198.01a5.542 5.542 0 00-.337-.008c-.098 0-.259-.006-.358-.016a10.76 10.76 0 00-.39-.025 10.656 10.656 0 01-.35-.02c-.075-.006-.202-.016-.282-.02a6.098 6.098 0 01-.297-.03l-.184-.024-.184.004a.365.365 0 01-.182-.044 5.1 5.1 0 00-.925-.014 5.192 5.192 0 01-.523.015c-.121-.01-.214-.001-.435.041-.438.083-.69.14-.745.168a2.905 2.905 0 01-.513.101l-.134.03-.16.055c-.298.089-.61.232-.97.444-.122.072-.23.132-.238.133-.015.001-.135.104-.43.367-.212.19-.391.328-.425.331l-.055.036-.053.035-.027.02-.085.04-.108.04c-.04.038-.246.128-.327.143-.046.008-.215.032-.375.053-.183.024-.389.08-.403.07-.027-.02-.152-.046-.335-.07-.16-.02-.33-.045-.375-.053a1.128 1.128 0 01-.327-.143l-.108-.04-.085-.04-.028-.02-.053-.035-.054-.036c-.035-.003-.214-.142-.425-.331-.295-.263-.416-.366-.43-.367-.01-.001-.117-.06-.24-.133a4.358 4.358 0 00-.969-.444l-.16-.054-.133-.03a2.914 2.914 0 01-.514-.102c-.055-.028-.306-.085-.745-.168-.22-.042-.314-.05-.434-.041-.085.006-.32-.001-.523-.015-.444-.032-.778-.014-1.476.077a6.01 6.01 0 01-.296.03l-.283.02c-.076.007-.233.016-.349.02-.115.006-.291.018-.39.026-.099.01-.26.016-.359.016-.508-.001-1.028-.041-1.534-.002-.11.009-.31.023-.445.03-.132.007-.327.023-.43.033-.099.01-1.002-.042-.954.126l-.033.143c-.036.1-.038.124-.017.196.03.101.047.275.034.356l.005.16.018.195c.004.164.019.287.036.314l.013.043.05.189c.05.054.266.135.418.158a.59.59 0 01.203.063c.06.041.168.257.164.325l.017.033c.024.003.063.163.083.336.043.375.074.576.116.772.065.31.101.559.087.6-.006.018.007.063.075.262l.032.15c.01.092.03.15.17.51.048.127.11.302.14.39.05.16.106.294.146.35l.079.163.028.04.054.089c.04.104.207.347.282.411.03.026.118.121.196.21.078.092.15.166.162.167l.046.032c.054.062.193.131.434.215.226.078.31.102.596.169.187.044 1.143.062 1.43.027.092-.01.22-.022.284-.024a6.33 6.33 0 00.634-.06c.077-.011.249-.032.382-.047.135-.013.261-.034.282-.044l.066-.015a.878.878 0 00.157-.041c.071-.023.195-.053.276-.066.172-.027.65-.163.756-.214l.133-.03c.084.005.458-.133.71-.263.443-.228.658-.374.925-.63l.28-.267.301-.285c.094-.086.19-.195.215-.244l.066-.076.036-.023.08-.103c.075-.077.182-.25.186-.302l.076-.15c.055-.08.098-.192.155-.393.147-.518.193-.717.211-.903a.755.755 0 01.036-.199c.01-.008.18-.005.377.008.198.012.43.016.516.009a.789.789 0 01.198-.001l.086-.004.085.004a.789.789 0 01.199 0c.086.008.318.004.515-.008.198-.013.368-.016.377-.008.01.01.027.098.036.2.019.185.065.384.212.902.057.2.1.314.154.394l.076.15c.004.051.111.224.186.301l.08.103.036.023.066.076c.025.049.122.158.215.244l.302.285.279.267c.267.256.483.402.925.63.253.13.627.268.71.262l.133.03c.105.052.585.188.756.215.082.013.206.043.277.066.07.023.142.041.157.04l.065.016c.021.01.148.03.282.044.133.015.306.036.382.048.18.027.49.056.634.06.065 0 .192.012.286.023.285.035 1.241.017 1.429-.027.285-.067.37-.091.595-.17.242-.083.38-.152.435-.214l.045-.032c.012-.001.085-.075.163-.166a3.31 3.31 0 01.195-.21c.075-.065.242-.308.283-.412l.054-.09.028-.04.079-.162c.04-.056.095-.19.146-.35.029-.088.092-.263.14-.39.14-.36.16-.418.17-.51l.03-.15c.07-.199.083-.244.077-.262-.015-.041.022-.29.087-.6.042-.196.072-.397.115-.772.02-.173.06-.333.084-.336l.017-.033c-.005-.068.104-.284.164-.325a.59.59 0 01.203-.063c.152-.023.367-.104.419-.158l.048-.189.013-.043c.017-.027.032-.15.036-.314l.019-.196.005-.159c-.013-.08.002-.255.033-.356a.5.5 0 00.025-.202z"/>
    </g>
    <g>
      <path fill="#6B4732" d="M87.564 66.546c-.181-.633.408-1.709.022-2.41-.344-.626-1.607-.763-1.965-1.41-.372-.668.196-1.77-.038-2.424-.271-.755-1.364-1.41-1.232-2.096.115-.584 1.232-.92 1.365-1.473.139-.57-.705-1.357-.594-1.924.111-.563 1.192-.998 1.23-1.59.045-.706-.827-1.076-1.113-1.635-.513-1 .908-1.513.627-2.577-.179-.676-1.356-1.048-1.568-1.715-.212-.665.543-1.62.37-2.302-.172-.67-1.294-1.176-1.36-1.887-.089-.968.904-1.968.93-2.93.025-.967-.919-1.975-.864-2.939.054-.965 1.107-1.902 1.104-2.868-.003-.961-1.057-1.842-1.204-2.806-.193-1.271.405-2.851-.095-4.157-.471-1.23-1.962-2.008-2.634-3.185-.67-1.174-.594-2.88-1.394-3.92-.854-1.106-2.493-1.412-3.412-2.268-.676-.628-.952-2.053-1.892-2.56-.866-.465-2.187.09-3.145-.201-.988-.301-1.825-1.5-2.773-1.542-.533-.024-1.137.274-1.564.586-.353.257-.514.771-.93.942-1.217.497-1.958-1.673-3.312-1.592-.89.053-1.638 1.267-2.566 1.592-.887.31-2.175-.21-2.982.265-.864.508-1.062 1.914-1.704 2.51-.918.856-2.558 1.162-3.412 2.268-.8 1.039-.724 2.745-1.395 3.92-.672 1.177-2.164 1.954-2.635 3.185-.5 1.306.098 2.886-.095 4.156-.147.965-1.2 1.847-1.202 2.808-.003.965 1.049 1.902 1.104 2.868.054.964-.889 1.971-.864 2.938.025.962 1.017 1.962.928 2.931-.065.708-1.187 1.212-1.357 1.88-.172.68.584 1.632.374 2.295-.212.665-1.389 1.034-1.567 1.707-.192.724.688 1.365.693 2.067.007.9-1.242 1.28-1.186 2.167.038.592 1.12 1.026 1.231 1.59.112.567-.732 1.354-.594 1.924.134.552 1.25.888 1.365 1.473.133.684-.961 1.34-1.233 2.095-.235.654.333 1.757-.039 2.424-.359.647-1.62.784-1.965 1.41-.386.701.203 1.776.022 2.41-.156.547-1.21.89-1.219 1.36-.01.534 1.05.942 1.147 1.436.097.493-.758 1.2-.642 1.714.173.77 1.045.628.898 1.654 1.106.456 2.18-.216 3.236-.462.75-.175 1.512.066 2.276.206 1.823.334 3.634.506 5.488.506 5.538 0 5.538-1.03 11.076-1.03s5.538 1.03 11.077 1.03c1.373 0 3.033.09 4.372-.298 1.494-.434 2.55-.263 4.089-.005a8.661 8.661 0 001.76.128c.695-.03.452-.25.717-.679.225-.364.865-.634.96-1.054.116-.515-.739-1.221-.643-1.714.096-.493 1.157-.9 1.147-1.434-.01-.47-1.063-.812-1.22-1.358"/>
      <path fill="#E39D69" d="M88.796 73.59l.931 6.41h-50.11l.93-6.41s7.543-4.261 11.308-7.226a15.78 15.78 0 001.22-1.05h.003c.138-.013 4.305-.448 7.19-3.438 2.015-2.086 3.745-6.992 8.06-11.187.52-.388.858-.813 1.254-1.117a25.064 25.064 0 002.743-2.43l.03.03c-.452 1.831-.376 5.91-.392 7.645-.03 3.542 1.52 7.373 3.931 10.11 2.415 2.738 12.902 8.663 12.902 8.663"/>
      <path fill="#E39D69" d="M68.329 50.69c-.702.528-1.728.99-3.657.989v-36.45l.005-.2c2.188.004 11.766 1.309 12.14 10.842a59.133 59.133 0 01-.309 8.951 47.924 47.924 0 01-1.135 6.348 37.28 37.28 0 01-.714 2.475c-.394 1.207-1.302 2.423-2.334 3.497a25.064 25.064 0 01-2.743 2.43c-.396.304-.735.73-1.253 1.117"/>
      <path fill="#D48F5E" d="M52.527 25.87c.375-9.54 9.967-10.84 12.145-10.84h.005l-.005.198v36.45c-3.342.003-3.979-1.39-4.91-2.106a25.067 25.067 0 01-2.744-2.43c-1.03-1.074-1.938-2.29-2.334-3.497a38.194 38.194 0 01-.714-2.475 47.94 47.94 0 01-1.134-6.348 59.125 59.125 0 01-.31-8.951"/>
      <path fill="#C78554" d="M57.018 47.142c.913.95 1.917 1.794 2.745 2.43.93.716 1.567 2.109 4.909 2.107 1.93.002 2.955-.46 3.657-.99-4.316 4.195-6.046 9.1-8.061 11.187-2.885 2.99-7.052 3.425-7.19 3.438.138-.134.263-.263.372-.386 2.412-2.738 3.961-6.57 3.93-10.11-.014-1.736.061-5.815-.392-7.646l.03-.03M52.836 34.822a47.94 47.94 0 001.134 6.348c-.772-1.056-2.485-3.719-2.246-4.756a2.844 2.844 0 011.012-1.58l.1-.012M76.524 34.835s.838.548 1.094 1.579c.259 1.037-1.598 3.7-2.43 4.756.43-1.571.903-3.706 1.228-6.348l.108.013"/>
      <path fill="#E39D69" d="M89.322 73.59c.903 1.33.931 6.41.931 6.41h-50.11s.027-5.079.93-6.41c.734-1.081 2-1.13 4.455-2.632 2.312-1.413 5.027-3.156 6.853-4.594.473-.373.888-.726 1.22-1.05h.002c.138-.013 4.306-.448 7.19-3.438 2.015-2.086 3.745-6.992 8.062-11.187.517-.388.857-.813 1.252-1.117a25.064 25.064 0 002.744-2.43l.03.03c-.453 1.831-.377 5.91-.392 7.645-.03 3.542 1.519 7.373 3.93 10.11 1.335 1.513 5.133 3.998 8.266 5.92 2.537 1.557 3.874 1.617 4.637 2.743"/>
      <path fill="#E39D69" d="M68.855 50.69c-.702.528-1.729.99-3.657.989v-36.45l.005-.2c2.188.004 11.765 1.309 12.14 10.842a59.133 59.133 0 01-.309 8.951 47.924 47.924 0 01-1.135 6.348 37.732 37.732 0 01-.714 2.475c-.395 1.207-1.303 2.423-2.334 3.497a25.064 25.064 0 01-2.744 2.43c-.395.304-.735.73-1.252 1.117"/>
      <path fill="#D48F5E" d="M53.052 25.87c.375-9.54 9.968-10.84 12.146-10.84h.005l-.005.198v36.45c-3.343.003-3.979-1.39-4.91-2.106a25.064 25.064 0 01-2.744-2.43c-1.03-1.074-1.939-2.29-2.334-3.497a38.094 38.094 0 01-.714-2.475 48.06 48.06 0 01-1.135-6.348 59.133 59.133 0 01-.309-8.951"/>
      <path fill="#C78554" d="M57.544 47.142c.913.95 1.917 1.794 2.744 2.43.931.716 1.567 2.109 4.91 2.107 1.928.002 2.955-.46 3.657-.99-4.317 4.195-6.047 9.1-8.061 11.187-2.885 2.99-7.053 3.425-7.19 3.438.137-.134.263-.263.372-.386 2.41-2.738 3.96-6.57 3.93-10.11-.015-1.736.06-5.815-.392-7.646l.03-.03M53.361 34.822a48.06 48.06 0 001.135 6.348c-.772-1.056-2.485-3.719-2.246-4.756a2.84 2.84 0 011.01-1.58l.101-.012M77.05 34.835s.837.548 1.093 1.579c.26 1.037-1.597 3.7-2.43 4.756.43-1.571.904-3.706 1.228-6.348l.108.013"/>
      <path fill="#6B4732" d="M51.21 25.59c-.024.681.006 1.357.061 1.978.153 1.757 1.394 3.428 1.288 5.17-.02.33-.31 1.888.09 2.084.477.233 1.327-2.113 1.392-2.47.24-1.322-.443-2.692-.23-3.047.366-.61 1.595-.521 2.113-1.023.504-.49.45-1.737 1.052-2.13.59-.387 1.697.173 2.339-.128.648-.305.942-1.524 1.598-1.747.695-.237 1.653.562 2.306.41.553-.13.962-1.256 1.606-1.385.591-.118 1.42.76 2.026.609.61-.152.913-1.31 1.476-1.528.603-.233 1.63.384 2.11.04.468-.333.252-.94.326-1.408.105-.661.576-.166.97-.56.299-.296.374-.682.432-1.086.058-.406.186-.636.325-1.017.253-.698.294-1.584-.346-2.077-.522-.4-1.134-.232-1.714-.37-.733-.175-1.418-.486-2.168-.63-1.14-.221-2.204-.539-3.38-.41-.956.105-1.922.293-2.887.379-.976.087-1.736.428-2.612.827-4.014 1.833-8 4.49-8.173 9.518"/>
      <path fill="#6B4732" d="M72.578 17.278a3.073 3.073 0 00-.438.407c-.357.404-.928 1.017-.845 1.621.06.447.61.378.605.875-.007.515-.369.884-.113 1.438.141.303 1.19.132 1.377.453.169.289-.492 1.139-.287 1.448.186.281 1.223-.019 1.463.3.215.285-.349 1.215-.117 1.517.225.293 1.25-.033 1.468.265.225.31-.387 1.205-.196 1.508.212.336 1.277.173 1.415.487.141.32-.708 1.049-.628 1.546.052.32.376.322.567.47.232.183.281.46.284.751.002.252-.076.481-.215.68-.138.195-.424.343-.412.624.014.317.392.46.456.743.074.325-.065.936-.052 1.302.018.55.07.713.613 1.02.188-.406.113-1.084.201-1.536.063-.32.157-.645.143-.973-.013-.306-.156-.558-.204-.857-.072-.461-.09-1.042.093-1.481.118-.282.394-.456.515-.732.192-.44-.09-.728-.295-1.093-.271-.485-.234-1.036-.119-1.562.044-.204.083-.429.168-.616.109-.24.311-.404.3-.698-.028-.788-1.116-1.384-1.268-2.06-.171-.76.53-1.793.235-2.426-.325-.693-1.562-.77-1.995-1.33-.461-.594-.25-1.831-.784-2.298-.588-.515-1.365-.23-1.935.207"/>
      <path fill="#CDD6D1" d="M83.148 79.622V80H47.46v-.378c1.33-3.574.677-6.837.176-9.915a77.976 77.976 0 003.68-2.471c.84.785 4.952 4.145 13.982 4.145h.015c9.029 0 13.141-3.36 13.979-4.145a79.46 79.46 0 003.679 2.471c-.5 3.078-1.152 6.34.177 9.915"/>
      <path fill="#E4FAED" d="M77.395 65.757a28.34 28.34 0 001.897 1.479c-.838.785-4.95 4.145-13.98 4.145h-.014c-9.03 0-13.142-3.36-13.982-4.145a28.1 28.1 0 001.899-1.479s4.369 3.22 12.083 2.705h.015c7.714.514 12.082-2.705 12.082-2.705"/>
      <path fill="#6B4732" d="M49.741 58.273l-.042.08a.652.652 0 01-.204.181c-.206.12-.54.224-.948.338-.199.06-.434.129-.607.25l-.095.093-.01.022-.006.01-.004.004.01-.025-.001.006-.022.1.012.033.019.077.064.176c.11.25.279.518.446.832.081.162.166.331.22.562a.9.9 0 010 .43l-.02.065-.01.032-.007.016-.033.059-.037.058-.018.03-.048.051-.11.101c-.248.177-.444.22-.646.284-.2.056-.393.099-.579.145a2.65 2.65 0 00-.482.155c-.144.077-.037.052-.038.012.014.076.09.258.185.43.095.178.209.368.322.585.057.11.114.227.167.365.024.078.052.136.068.234l.025.137.006.172a.69.69 0 01-.029.195l-.029.104-.009.026-.046.092-.011.019-.045.075-.155.172c-.2.169-.323.214-.463.278-.267.11-.501.171-.723.234-.216.06-.43.126-.548.19l-.056.035.012-.007.028-.038.013-.03c.013-.043-.025.082.028-.098l-.002.012-.004.022-.009.045.002.014.01-.092.006.008c.018.072.137.278.264.46.13.194.279.396.428.66.073.125.15.29.208.501.022.13.048.247.018.431l-.023.125c-.064.176-.02.055-.036.097l-.005.01-.01.021-.018.043-.014.027-.034.057a1.513 1.513 0 01-.16.21l-.115.104c-.081.075-.144.107-.218.16-.135.083-.264.15-.385.208-.24.116-.464.21-.646.305-.093.046-.17.093-.214.126-.041.027-.023.052.02-.092-.009.108.01-.162.009-.128V68.99l.002.046-.034-.183.013.008c.032.04.113.112.191.176.169.137.37.28.581.459.104.086.22.194.34.33.065.088.125.152.19.298l.043.099.033.142.018.145c.003-.008-.018.226-.01.131l-.002.012-.005.022-.009.046-.048.147a.947.947 0 01-.129.233l-.103.126-.093.092a3.324 3.324 0 01-.34.276c-.212.15-.41.277-.569.397-.082.06-.139.116-.176.151l-.008.009.013-.03.015-.09-.001-.029-.003-.014a1.544 1.544 0 01-.018-.105l.01.043.01.03-.018-.067-.036-.056-.002-.005.012.016.036.03c.054.044.138.097.225.148l.6.333c.111.067.221.131.347.232.058.044.129.112.195.185l.104.149.049.088.04.122.027.127c.002-.007.002.193 0 .112v.01l-.003.021-.005.042-.001.01-.007.034-.017.066-.046.13-.052.1-.083.118a2.09 2.09 0 01-.311.303c-.195.156-.376.275-.542.394-.16.112-.321.238-.382.31l-.018.019v-.008l.007-.048-.002-.014c-.005-.036.008.07-.013-.082l.002.01.008.037.007.038v-.018l-.023-.045.046.061c.09.1.24.216.388.324.15.11.31.22.468.346.08.063.16.13.24.214l.123.144.059.089.054.117.031.149.005.08v.02c-.02.13-.007.041-.012.072l-.005.016-.02.063-.077.145c-.121.164-.202.194-.296.258-.353.19-.653.263-.926.367-.263.093-.528.22-.52.314a.717.717 0 00.067.26c.045.104.096.203.147.296.21.375.387.683.45.918a.57.57 0 01.02.275l-.04.084.02-.087a.547.547 0 00-.067-.245c-.097-.207-.321-.456-.59-.802a3.966 3.966 0 01-.208-.29c-.062-.112-.149-.226-.162-.449v-.05l.001-.012v-.006l.006-.038.014-.04.075-.145c.06-.083.125-.135.191-.189.132-.1.266-.17.403-.246.269-.143.573-.276.792-.439l.064-.058.02-.025.01-.01-.013.012-.005.036.013-.065.003-.016c-.004.025.012-.069-.008.055l-.003.004-.003.015.001.019-.024-.021-.061-.055a1.696 1.696 0 00-.185-.13c-.14-.088-.3-.177-.47-.275-.171-.102-.35-.202-.55-.375l-.155-.162-.099-.176-.034-.086-.01-.037-.01-.037-.002-.01c-.022-.157-.006-.058-.01-.1l.001-.053a.821.821 0 01.036-.199l.063-.148.07-.11c.188-.257.364-.387.534-.535.169-.14.335-.27.47-.397.066-.062.122-.125.147-.164l.01-.019-.015.027-.014.052v.041l.002-.01.002-.042v-.02l.001-.011c0-.088.002.104 0 .091l.005.045.016.043.004.016.006.014-.055-.039a1.999 1.999 0 00-.223-.129l-.609-.296c-.114-.06-.23-.121-.364-.215l-.102-.075-.114-.107-.061-.068-.086-.131-.067-.14-.017-.054-.013-.043c.016.092-.025-.135-.02-.127l-.001-.036.002-.074a.778.778 0 01.055-.262c.058-.156.121-.234.186-.324.12-.142.237-.248.342-.333.213-.175.413-.311.586-.446a2.21 2.21 0 00.217-.182l.035-.035.011-.017-.036.078-.008.065.007-.046.005-.022.002-.011-.009.108v.056l.017.051.003.016-.01-.006a1.868 1.868 0 00-.19-.172l-.577-.442c-.11-.092-.219-.177-.348-.323a1.398 1.398 0 01-.203-.292 1.139 1.139 0 01-.098-.357l-.001-.046v-.024l-.001-.012c-.004.027.02-.251.013-.15.022-.086.051-.174.087-.256.036-.069.076-.124.119-.184l.122-.135.118-.104c.074-.055.15-.11.215-.147.07-.044.134-.079.197-.11.253-.128.482-.22.683-.316.1-.047.188-.093.262-.138L45 67.39l.022-.017-.044.067-.004.02.007-.013.02-.043.01-.02.004-.011c-.013.035.035-.094-.027.076l-.01.032v.063c-.01-.027-.026-.093-.076-.179-.089-.167-.223-.365-.36-.579a6.768 6.768 0 01-.212-.35c-.07-.135-.144-.27-.198-.475-.013-.06-.026-.09-.036-.171a1.45 1.45 0 01-.002-.274l.011-.075.01-.044.005-.022.003-.01c.055-.187.022-.069.038-.118l.058-.11a.766.766 0 01.134-.18l.142-.13c.083-.056.177-.117.249-.147.307-.141.55-.19.782-.248.228-.055.443-.101.603-.159l.104-.04.03-.016v.005l-.029.056.048-.07.012-.018-.038.072-.003.006-.008.02-.002.027h.003l-.004-.033-.02-.094a2.487 2.487 0 00-.096-.258l-.276-.6c-.092-.223-.201-.441-.237-.794l.006-.193.015-.1.015-.05.013-.037.006-.02.003-.009.031-.078.102-.149.112-.112.114-.085c.067-.036.144-.082.205-.101a2.92 2.92 0 01.676-.16c.202-.029.39-.05.562-.08a1.55 1.55 0 00.398-.105c.033-.013.058.01.05-.123a2.116 2.116 0 00-.118-.425c-.112-.306-.252-.603-.347-.926a1.824 1.824 0 01-.055-.254l-.012-.14.02-.18.037-.104.002-.006.016-.036.012-.017.023-.033.048-.061a.738.738 0 01.214-.151c.282-.13.521-.146.737-.177.427-.052.755-.078.967-.156a.661.661 0 00.218-.124l.058-.07M52.556 65.08l-.062.048a.6.6 0 01-.23.015c-.2-.015-.49-.07-.844-.137-.089-.014-.183-.03-.275-.037h-.13l-.037.009.055-.044c.022-.071.013-.022.038.01l.074.13c.06.093.131.192.206.295l.238.325c.082.12.168.233.25.405.02.047.042.091.057.17l.009.068-.004.089a.397.397 0 01-.126.243l-.013.011-.069.046-.074.031-.037.01-.126.015-.166-.013c-.19-.03-.34-.075-.497-.121-.15-.043-.301-.088-.456-.134a3.073 3.073 0 00-.212-.05l-.085-.011.006.002c.025-.006.075-.006.164-.082l.027-.03.048-.07-.007.014.011-.02.019-.045.016-.091c-.001-.094-.007-.071.003-.063l.1.157c.09.127.2.265.313.411.114.152.23.29.358.522.032.067.067.127.098.267.009.08.035.176-.034.361l-.03.064-.066.094-.011.014-.203.147c-.17.069-.248.063-.324.071a2.14 2.14 0 01-.194 0c-.23-.012-.421-.04-.612-.065a3.722 3.722 0 00-.499-.048h-.001l.062-.021.05-.028.073-.057.08-.099.031-.061c.069-.205.018-.051.033-.094l-.002.008.006-.022.004-.175-.01-.053-.008-.025-.018-.046-.019-.038-.003-.01.062.056c.115.097.28.213.445.332.084.06.171.123.262.195.093.074.185.144.307.278.033.037.063.072.105.139.034.055.093.15.119.318l.002.163c-.014.066.018-.029-.037.167l-.003.01c.017-.037-.054.145-.136.228l-.063.062-.056.047-.085.059c-.191.108-.298.133-.416.175-.225.072-.425.122-.613.176a3.69 3.69 0 00-.253.081l-.076.032.009-.005.033-.027.067-.077.05-.086.037-.118.011-.075c-.005-.074.016.058-.016-.183l.005.019.009.039.005.02.002.01-.002-.02-.07-.159-.011-.014-.001-.003-.003-.005-.005-.001.012.007.023.016.087.045c.14.067.327.134.526.207.205.08.407.14.697.321l.115.083.136.133.075.1.07.128.014.032c.016.056-.017-.08.04.135l.003.019.006.04.003.02.005.038.002.134a1.02 1.02 0 01-.03.228 1.602 1.602 0 01-.082.244c-.116.276-.237.46-.35.645-.11.178-.216.35-.275.475-.034.06-.035.115-.032.045l-.015-.086-.025-.072-.02-.034-.01-.014c.01.012-.151-.18-.08-.094l.056.054-.121-.093-.037-.011v-.002l.013.004.083.004c.068.002.155-.005.245-.014l.597-.07.168-.014.184-.006c.14.008.268 0 .492.08.056.023.1.035.173.087l.096.074.044.04c.035.044-.047-.068.082.103l.005.009.036.065c.032.063.067.157.085.239.045.277.01.373-.007.513-.045.247-.11.442-.17.626a6.821 6.821 0 00-.148.498l-.02.096-.008.042v.021l-.015-.011-.034-.06-.014-.011-.067-.06.007.005.026.022c.068.058-.011-.028-.047-.02l.044.01.089.005.106-.003c.152-.009.317-.032.486-.05.17-.018.345-.037.536-.041.094-.002.196 0 .313.02.067.015.115.016.198.054l.11.054.118.103.028.029.013.014c.02.033-.028-.052.048.077l.01.028.024.064.03.168.003.084-.008.047c-.018.132-.055.223-.09.31-.073.172-.153.302-.232.432-.155.25-.312.477-.404.678-.093.244-.11.208.06.335.17.098.363.17.532.236.344.126.62.25.784.378a.465.465 0 01.145.186l.016.079-.033-.07a.443.443 0 00-.167-.132c-.172-.084-.449-.131-.81-.194-.182-.035-.382-.063-.617-.143l-.092-.04-.105-.059-.108-.099-.028-.034-.014-.018-.021-.04-.003-.01-.006-.019c-.074-.222-.021-.383.015-.524.084-.29.21-.539.32-.803.052-.13.114-.261.144-.378l.024-.138v-.012l-.001.025.02.05-.022-.045-.015-.025c.074.124.022.037.038.066l.002.005.005.009.03.025v.008h-.034c-.04.001-.1.005-.168.016-.134.02-.286.055-.449.094-.163.04-.336.078-.53.108-.1.014-.207.026-.33.026a1.453 1.453 0 01-.22-.023.992.992 0 01-.29-.127l-.028-.019-.008-.004-.078-.074-.03-.04-.105-.178a1.06 1.06 0 01-.062-.283l-.006-.119.005-.098a1.6 1.6 0 01.018-.182c.033-.227.08-.42.123-.61.043-.186.084-.366.1-.507l.007-.089-.004-.018.005.03.05.096-.04-.063-.006-.008.069.092.014.019.037.03.041.025-.089.006-.112.011-.127.017-.591.097c-.11.016-.224.032-.358.037-.142 0-.262.02-.54-.072a1.053 1.053 0 01-.262-.157l-.056-.053c.067.081-.098-.116-.09-.11l-.018-.032-.035-.069-.055-.144c-.027-.096-.025-.159-.03-.241.01-.28.081-.427.133-.556.113-.255.23-.441.335-.624.102-.177.204-.352.25-.468l.02-.057-.005.07.011.055h.002l-.003-.02-.007-.04-.003-.02.03.118.005.015.03.058.028.037.024.024-.015-.008a2.798 2.798 0 00-.446-.19c-.194-.073-.401-.145-.638-.26a3.515 3.515 0 01-.19-.104l-.106-.073-.053-.038-.062-.055-.06-.06-.03-.03-.037-.044a1.107 1.107 0 01-.155-.292l-.012-.036-.003-.01-.004-.019-.009-.039-.004-.02c-.033-.248-.01-.122-.014-.203l.013-.094a.633.633 0 01.051-.156l.068-.119.12-.135.096-.075.144-.084c.083-.04.146-.063.212-.088.124-.042.234-.072.341-.1.212-.055.414-.1.582-.149.077-.02.168-.057.156-.05l-.021.014-.026.022-.035.036c-.067.062-.119.225-.096.163l.004-.009c-.054.19-.023.089-.036.148l.003.123c.016.117.055.163.06.177l.011.014a1.202 1.202 0 00-.144-.14l-.22-.178c-.158-.127-.32-.247-.505-.416l-.152-.157-.095-.127-.057-.103-.031-.081-.014-.044-.015-.07a.732.732 0 010-.213l.009-.042.002-.01.037-.112.042-.077.103-.127.102-.081.084-.043.13-.045c.141-.031.217-.025.292-.025.272.017.458.063.654.1.188.036.371.078.517.098l.086.01c.017.006.034-.008-.049.026l-.143.11.012-.012-.056.08-.023.047c-.05.142-.03.188-.025.222l.001.002a3.166 3.166 0 00-.237-.41c-.096-.153-.198-.304-.299-.476-.05-.089-.1-.175-.152-.306-.023-.072-.06-.133-.059-.314l.02-.124.02-.062.017-.034.008-.014.056-.085.04-.04c.118-.108.213-.12.278-.133.128-.015.194.001.256.012l.16.043c.095.03.179.063.26.096l.445.194c.139.06.277.117.382.148l.056.016-.017.005-.01.004-.049.02-.044.035.009-.006-.078.146v.034l.003.012-.005-.04a2.237 2.237 0 00-.148-.343l-.184-.353c-.06-.118-.119-.233-.172-.354a1.419 1.419 0 01-.073-.195l-.024-.124v-.085l.035-.113a.26.26 0 01.188-.13l.121-.003c.068.008.124.021.178.036a3.2 3.2 0 01.285.097c.348.133.606.256.793.31a.647.647 0 00.213.038l.066-.03"/>
      <path fill="#6B4732" d="M50.852 61.53l-.023.08-.059.092-.11.096c-.178.128-.475.251-.84.387-.177.07-.391.151-.539.267l-.04.041-.016.019.001.01-.001.004-.002.002c.004-.016-.01.034.008-.034v.006l-.005.048.012.045.004.008.015.033.033.067.094.15c.144.21.338.426.534.69.097.136.202.274.278.516.022.05.027.15.03.226l-.029.153-.012.039-.006.019-.04.07-.018.025-.044.06-.124.107-.065.043-.043.02-.089.04c-.222.081-.405.102-.59.129l-.529.064c-.162.023-.34.054-.404.09v-.001l.047-.048.039-.089-.005.018-.01.034-.005.027.018-.038.006-.042v-.02l.022.056c.046.11.143.27.245.43.104.165.22.335.335.545.058.111.116.22.166.389l.033.132.01.186a.78.78 0 01-.04.233l-.021.06-.011.03c-.105.177-.033.053-.057.095l-.023.032-.022.032-.083.086-.1.083-.088.057c-.077.04-.165.083-.229.101a1.634 1.634 0 01-.196.06l-.18.043c-.23.048-.44.08-.632.117a2.258 2.258 0 00-.257.06c-.075.016-.126.054-.09.03l.048-.047.04-.057.012-.031.005-.016.028-.118-.006.073-.004-.175-.005-.017h.002v-.001l.013.018.023.031.037.044c.103.121.259.271.42.43.081.082.167.17.255.265.09.102.18.204.279.37l.072.135.065.191c.019.061.026.177.025.265l-.003.07c-.05.232-.015.07-.028.124l-.002.01-.013.04-.007.021-.026.061-.074.134-.086.12-.052.053-.104.1-.093.075c-.241.183-.443.288-.632.402-.183.106-.366.224-.435.293l-.015.01.03-.062.02-.125-.004-.035c-.026-.171-.006-.04-.01-.077l.001.01.003.011-.012-.05-.047-.108-.05-.07-.023-.024.03.018c.121.069.336.154.544.242.216.095.439.179.713.369.07.05.147.113.227.2.08.091.18.225.228.427l.015.076c.01.28.002.084.004.149l-.001.01-.004.043-.028.134-.064.174-.04.073-.022.033-.047.065-.049.063-.04.045c-.224.235-.406.36-.58.5-.169.13-.34.26-.429.355l-.037.04.007-.02.008-.03v-.015l.008-.036v-.077l-.008-.037c-.076-.25-.019-.063-.035-.117l.004.01.016.038.005.011-.015-.044-.052-.078-.042-.037.004.004c.034.02.103.054.188.085.082.031.176.062.273.093.195.064.402.123.635.218.113.046.248.107.403.223.089.083.182.155.261.351l.025.066c-.012-.083.028.152.023.13v.078l-.002.032-.02.138-.037.132-.034.072-.064.117-.123.169a3.78 3.78 0 01-.234.257l-.42.412-.165.179-.056.07-.01.016-.005.006.005-.015v-.052l-.007-.053-.01-.024a2.4 2.4 0 01-.042-.087l.004.008.032.056-.061-.08.092.037c.276.08.642.104.997.173l.14.03.15.043c.108.05.227.066.377.255l.046.069c.032.066.01.023.018.039l.003.007.004.015.006.018.012.044.015.084c.006.08 0 .15-.01.207-.022.116-.057.205-.091.289-.143.324-.305.566-.434.803-.065.116-.124.23-.16.328l-.033.113-.01.001-.007-.004-.03-.026.005.004.009.007.034.03h.009-.007l.043.005.132-.017c.093-.022.187-.054.276-.09.355-.144.645-.276.854-.331a.762.762 0 01.243-.032l.081.02h-.08a.808.808 0 00-.22.082c-.186.091-.426.28-.768.493-.087.053-.18.106-.292.155a.9.9 0 01-.19.06l-.127.009-.092-.02-.072-.03-.038-.023-.01-.005-.005-.003-.037-.035-.032-.042-.064-.175a.82.82 0 01.02-.264c.033-.151.082-.286.133-.421.101-.266.226-.541.298-.803l.028-.169-.003-.034.014.056-.04.015-.09-.015-.107-.01c-.15-.01-.316-.013-.493-.017-.177-.006-.363-.01-.584-.046-.119-.026-.221-.034-.418-.154l-.171-.164-.043-.062-.005-.008-.046-.103-.015-.06-.016-.123c-.008-.094.008-.128.02-.192l.02-.085.024-.059.053-.113.105-.168c.069-.098.138-.184.205-.265l.388-.449c.059-.07.113-.14.156-.202l.05-.082.005-.019-.001.002-.017.06.001.062.004.015-.001-.01-.002-.02-.003-.038V74c-.005-.03.03.201.016.112l.007.03c.045.097.057.102.07.115-.012-.002-.063-.032-.143-.057-.152-.051-.349-.098-.556-.151a5.62 5.62 0 01-.33-.092 2.103 2.103 0 01-.397-.163l-.13-.085-.102-.091-.108-.137-.044-.073-.011-.025-.018-.037-.004-.01c-.018-.059.034.121-.04-.135l-.009-.078.002-.159.009-.077.015-.054.036-.107c.029-.08.055-.12.082-.164.059-.1.108-.155.161-.219.204-.228.383-.364.556-.51a4.16 4.16 0 00.418-.372l.015-.016.001-.005.002-.003h.003l-.021.035-.03.098-.002.055.003-.042.001-.01c.003.058-.004-.145.006.127l.005.034c.022.092.058.129.063.137l-.026-.017a3.305 3.305 0 00-.48-.229c-.202-.085-.408-.155-.68-.301-.072-.042-.147-.085-.248-.172l-.083-.083c-.036-.044-.06-.07-.1-.139l-.066-.146-.021-.07-.002-.01-.002-.01c-.007-.043.01.08-.015-.098v-.077a.95.95 0 01.152-.509 1.42 1.42 0 01.207-.245c.262-.239.472-.346.674-.468.196-.113.39-.222.507-.311l.038-.03.018-.016.008-.006-.037.05-.025.065-.005.026.008-.02.013-.04.004-.01c-.01.047.028-.121-.022.104l-.005.027.01.096.01.031-.008-.015c-.013-.029-.066-.1-.123-.166a6.67 6.67 0 00-.204-.222c-.15-.158-.314-.315-.49-.536l-.065-.086-.07-.107-.069-.125-.034-.076-.016-.038-.02-.056a1.118 1.118 0 01-.04-.336l.013-.092c-.024.102.034-.148.035-.137l.015-.034.033-.068.08-.128c.058-.073.107-.108.167-.158.212-.15.368-.187.5-.222.138-.036.255-.053.37-.07l.617-.078.128-.022.104-.023.059-.018-.024.016-.036.036-.02.04.024-.03.024-.032c-.022.036.057-.091-.047.08l-.006.01-.01.023-.013.08.005.028-.004-.02a.865.865 0 00-.063-.185c-.07-.156-.167-.331-.263-.514-.095-.186-.199-.37-.283-.631a1.434 1.434 0 01-.052-.228l-.006-.092.005-.114.017-.11.014-.045.012-.034.007-.017.043-.096.015-.021.138-.158a.927.927 0 01.247-.138c.286-.098.479-.093.675-.101l.533-.003c.16-.002.322-.01.419-.033l.028-.008.016-.003-.013.008-.021.037.035-.035.02-.024-.034.056-.003.003-.003.008-.002.033.001-.018c-.008-.074-.072-.215-.14-.34-.139-.257-.305-.507-.44-.776a1.972 1.972 0 01-.093-.214l-.037-.119-.016-.06-.01-.09.009-.146.011-.046.001-.006c.02-.071.008-.025.014-.043l.01-.02.023-.036.048-.068.052-.044.1-.069c.26-.132.472-.157.668-.2.387-.075.686-.121.873-.207l.117-.064.07-.067.04-.073M57.226 54.909l-.03.078-.069.084-.119.084c-.19.109-.498.199-.876.295-.183.05-.405.107-.563.207l-.043.036-.019.017v.011l-.001.004h-.003l.013-.032-.002.006-.01.047.007.046.004.01.011.033.026.07.078.16c.122.223.293.46.46.743.084.147.173.295.224.543.017.052.011.153.008.229l-.046.15-.016.036-.008.018-.047.065-.02.024-.05.055-.135.092-.07.036-.044.016-.092.03c-.229.057-.413.057-.6.065l-.533.006c-.163.005-.344.017-.411.046h.001l.051-.043.048-.085-.007.017-.013.034-.008.025.022-.036.01-.04.002-.02.017.057c.034.114.113.284.199.454.086.175.184.358.277.579.045.116.093.232.125.405l.019.135-.008.185a.79.79 0 01-.065.227l-.027.059-.015.027-.066.089-.026.03-.025.029-.092.077-.106.07-.095.048a1.868 1.868 0 01-.439.115c-.065.011-.124.018-.182.023-.234.023-.447.033-.642.048a2.226 2.226 0 00-.262.031c-.075.01-.13.041-.09.022l.05-.042.045-.052.017-.03.006-.016c-.005.016.076-.22.04-.114l-.013.072.014-.174-.003-.017h.001l.002-.001.01.018.019.034.032.047c.09.133.23.298.374.475.072.09.149.185.227.29.077.11.158.222.239.398l.057.141a1.005 1.005 0 01.043.463l-.01.07c-.073.225-.022.068-.04.12l-.005.01-.016.04-.009.019-.033.058-.087.125-.097.11-.057.047-.114.088-.1.064c-.26.156-.47.239-.67.332a2.754 2.754 0 00-.463.245l-.016.008.036-.058.034-.122v-.035c-.009-.173-.002-.042-.005-.078l.002.01.001.01-.006-.05-.036-.113-.042-.074-.021-.026.028.02c.113.082.318.19.516.3.206.117.418.224.672.444.064.057.133.127.205.223.07.1.155.243.182.45l.007.076-.01.148-.003.01-.008.042-.041.13-.083.166-.047.07-.025.03-.053.059-.054.057-.046.04c-.246.21-.44.316-.628.436-.181.11-.364.222-.463.307l-.042.037.01-.019.01-.028.003-.016.01-.034.01-.076-.005-.038a2.455 2.455 0 01-.023-.122l.003.01.011.039.005.015-.01-.045-.044-.083-.038-.045.003.005c.031.023.097.065.178.105.078.04.168.08.262.122.187.085.386.166.609.285.108.058.234.133.377.264.08.092.165.173.225.377l.017.067c-.003-.085.013.157.01.133v.01l-.004.039-.002.019-.001.01-.005.03-.034.135-.05.128-.042.07-.076.11-.14.154c-.09.088-.176.161-.259.23l-.46.365c-.068.055-.13.11-.182.16l-.063.064-.011.015-.007.005.007-.014.005-.052-.002-.053-.007-.025a2.192 2.192 0 01-.033-.092l.004.008.026.06-.053-.085.088.045c.127.054.292.099.457.142.168.042.338.083.516.138l.136.045.144.06c.103.06.22.089.35.291l.038.074.014.042.002.008.003.014.004.018.008.045.006.087a.819.819 0 01-.032.203 1.311 1.311 0 01-.12.278c-.175.307-.36.53-.514.753a2.523 2.523 0 00-.194.308l-.043.11h-.01l-.006-.006-.027-.029.004.004.008.009.03.033.01.002-.008-.002.043.01.132-.002c.096-.012.193-.034.285-.06.368-.106.67-.205.883-.237a.74.74 0 01.245-.006l.08.028-.081-.01a.829.829 0 00-.226.059c-.196.07-.454.233-.816.407-.092.044-.19.087-.306.123a.855.855 0 01-.196.04l-.126-.005-.09-.03-.068-.037-.036-.027-.01-.006-.004-.004-.034-.038-.028-.046-.043-.18a.81.81 0 01.045-.261c.049-.147.112-.275.177-.404.127-.254.28-.515.378-.768l.046-.163v-.035l.009.057-.041.01-.09-.024-.104-.021c-.148-.027-.313-.047-.489-.07-.176-.025-.36-.049-.576-.109-.116-.039-.217-.056-.4-.198l-.154-.183-.035-.065-.005-.008a.982.982 0 01-.036-.11l-.008-.06-.002-.125c.002-.094.022-.125.038-.188l.031-.081.03-.056.064-.107.121-.155c.078-.09.156-.169.232-.242l.431-.405c.066-.064.126-.126.176-.184l.057-.075.008-.019-.002.004-.023.057-.005.062.002.013v-.029l.001-.039v-.01c0-.03.01.207.006.115l.004.032c.035.1.046.105.059.12-.013-.003-.061-.04-.139-.072-.145-.068-.336-.136-.536-.21-.1-.039-.206-.079-.32-.128a2.09 2.09 0 01-.378-.206l-.121-.098-.092-.103-.093-.149-.036-.077-.008-.023-.013-.039-.004-.01c.021.106-.031-.151-.026-.141v-.08l.018-.157.018-.075.02-.051.047-.102c.037-.077.067-.112.098-.154.069-.093.124-.141.183-.2.226-.205.418-.321.604-.449.18-.117.366-.24.454-.323l.017-.015.001-.004.004-.003.001-.001-.024.034-.04.093-.007.055.008-.042.001-.01c-.003.058.011-.145-.008.127l.002.034c.013.095.045.136.05.144l-.025-.02a3.269 3.269 0 00-.453-.279c-.193-.107-.39-.199-.646-.374-.067-.049-.137-.1-.23-.197l-.073-.092c-.032-.047-.052-.076-.086-.147l-.05-.153-.014-.072v-.01l-.002-.012c-.002-.042.003.082-.005-.098l.008-.078a.993.993 0 01.08-.285c.035-.07.079-.143.124-.204a1.4 1.4 0 01.231-.221c.286-.209.505-.293.719-.392.207-.092.411-.18.536-.254l.041-.026.019-.015.008-.004-.041.045-.032.062-.007.025.01-.02.017-.038.005-.01c-.015.047.04-.117-.033.102l-.008.026v.097l.008.032-.008-.015a1.068 1.068 0 00-.104-.18 6.71 6.71 0 00-.18-.242c-.133-.173-.28-.347-.432-.586l-.056-.093-.059-.113-.056-.133-.026-.079-.012-.04-.013-.056c-.02-.11-.021-.231-.005-.34l.022-.089c-.035.098.048-.144.047-.133l.019-.032.04-.064.094-.118c.064-.067.117-.097.181-.14.227-.126.385-.145.52-.167.141-.02.26-.025.375-.029l.622-.011.13-.008.105-.013.06-.01-.025.013-.038.033-.026.036.028-.028.027-.027-.055.073-.007.01-.012.021-.021.078.002.03-.002-.02a.87.87 0 00-.044-.192c-.053-.163-.131-.347-.208-.539-.077-.196-.16-.39-.217-.659a1.376 1.376 0 01-.028-.231l.003-.092.017-.114.029-.108.018-.042.015-.033.008-.016.055-.091.016-.02.154-.142c.085-.05.194-.1.258-.11.295-.066.487-.04.683-.028l.53.055c.16.015.321.024.42.012l.03-.005.015-.001-.015.006-.023.035.038-.032.023-.02-.04.05-.003.004-.005.008-.004.032.003-.018a1.3 1.3 0 00-.106-.352c-.11-.272-.25-.538-.357-.82a1.949 1.949 0 01-.07-.223l-.025-.122-.009-.062v-.09l.022-.144.016-.044.002-.006c.027-.07.011-.025.019-.042l.012-.018.026-.034.055-.063.056-.038.107-.058c.271-.103.485-.106.684-.128.393-.031.695-.045.889-.11l.123-.052.077-.057.047-.07M80.77 58.273l.042.08c.033.05.103.12.204.181.206.12.54.224.948.338.2.06.434.129.607.25l.095.093.01.022.007.01.003.004-.01-.025.001.006.022.1-.012.033-.019.077-.064.176c-.109.25-.279.518-.445.832a2.364 2.364 0 00-.221.562.91.91 0 000 .43l.02.065.011.032.006.016.033.059.037.058.019.03.047.051.11.101c.248.177.445.22.647.284.2.056.392.099.578.145.18.046.363.095.483.155.144.077.036.052.038.012a1.956 1.956 0 01-.186.43c-.095.178-.209.368-.322.585a3.52 3.52 0 00-.166.365c-.025.078-.052.136-.07.234l-.024.137-.005.172a.686.686 0 00.027.195l.03.104.01.026.045.092.011.019.046.075.155.172c.2.169.322.214.463.278.266.11.5.171.722.234.216.06.43.126.55.19l.054.035-.011-.007-.029-.038-.013-.03c-.012-.043.025.082-.028-.098l.002.012.005.022.008.045-.001.014-.01-.092-.007.008c-.018.072-.137.278-.264.46-.13.194-.279.396-.427.66-.074.125-.152.29-.209.501-.021.13-.048.247-.018.431l.023.125.036.097.005.01.01.021.02.043.013.027.033.057c.046.074.101.146.16.21l.115.104c.082.075.144.107.219.16.135.083.264.15.384.208.24.116.464.21.647.305.092.046.169.093.213.126.041.027.023.052-.02-.092.009.108-.01-.162-.008-.128v.012l-.001.024-.001.046.034-.183-.014.008c-.032.04-.113.112-.191.176-.168.137-.369.28-.58.459-.105.086-.221.194-.34.33-.066.088-.125.152-.19.298l-.044.099-.033.142-.017.145c-.004-.008.017.226.01.131l.002.012.004.022.008.046.05.147c.038.1.105.21.129.233l.102.126.093.092c.124.116.234.198.34.276.212.15.41.277.569.397.082.06.14.116.176.151l.008.009-.013-.03-.015-.09.002-.029.002-.014.019-.105-.012.043-.01.03.019-.067.036-.056.003-.005-.012.016-.037.03a1.885 1.885 0 01-.225.148l-.6.333c-.11.067-.22.131-.346.232a1.464 1.464 0 00-.195.185l-.105.149-.048.088-.04.122-.027.127c-.003-.007-.003.193-.002.112l.002.01.002.021.005.042.002.01.006.034.017.066.046.13.052.1.084.118c.11.135.213.223.31.303.195.156.376.275.542.394.161.112.322.238.382.31l.018.019v-.008l-.007-.048.003-.014c.005-.036-.009.07.012-.082l-.002.01-.007.037-.007.038-.001-.018.024-.045-.047.061c-.09.1-.24.216-.388.324-.15.11-.31.22-.468.346a2.37 2.37 0 00-.24.214l-.123.144-.059.089-.053.117-.032.149-.005.08v.02c.02.13.008.041.013.072l.004.016.02.063.078.145c.121.164.201.194.296.258.352.19.652.263.925.367.263.093.528.22.521.314a.732.732 0 01-.067.26 3.867 3.867 0 01-.148.296c-.21.375-.386.683-.45.918a.56.56 0 00-.02.275l.04.084-.02-.087a.55.55 0 01.068-.245c.097-.207.32-.456.59-.802.068-.087.137-.182.207-.29.062-.112.15-.226.162-.449v-.068l-.007-.038-.014-.04-.074-.145c-.06-.083-.126-.135-.191-.189-.132-.1-.266-.17-.404-.246-.268-.143-.572-.276-.79-.439l-.066-.058-.02-.025-.01-.01.012.012.007.036-.014-.065-.003-.016.009.055.001.004.005.015-.002.019.025-.021.06-.055c.049-.04.114-.086.185-.13.14-.088.3-.177.47-.275.172-.102.35-.202.55-.375l.155-.162.099-.176.034-.086.01-.037.01-.037.003-.01c.021-.157.005-.058.01-.1l-.002-.053a.788.788 0 00-.036-.199l-.063-.148-.069-.11c-.189-.257-.365-.387-.534-.535-.169-.14-.336-.27-.47-.397a1.054 1.054 0 01-.148-.164l-.01-.019.015.027.014.052v.041-.01l-.003-.042-.002-.02v-.011l-.001.091-.003.045-.017.043-.004.016-.006.014.055-.039c.051-.037.137-.084.223-.129l.61-.296c.114-.06.23-.121.364-.215l.101-.075.114-.107.061-.068.086-.131.067-.14.018-.054.013-.043c-.016.092.025-.135.02-.127v-.036l-.002-.074a.778.778 0 00-.054-.262c-.058-.156-.122-.234-.186-.324a2.477 2.477 0 00-.343-.333c-.213-.175-.412-.311-.586-.446a2.19 2.19 0 01-.216-.182l-.036-.035-.01-.017.036.078.008.065-.008-.046-.004-.022-.002-.011a2.43 2.43 0 00.008.108l-.001.056-.016.051-.003.016.01-.006a1.89 1.89 0 01.192-.172l.576-.442c.11-.092.219-.177.347-.323.061-.066.131-.158.203-.292.052-.108.089-.252.098-.357l.002-.046V68.984c.004.027-.019-.251-.013-.15a1.528 1.528 0 00-.086-.256c-.036-.069-.076-.124-.119-.184l-.122-.135-.119-.104a2.19 2.19 0 00-.214-.147 2.18 2.18 0 00-.198-.11c-.253-.128-.481-.22-.682-.316a3.011 3.011 0 01-.263-.138l-.079-.055-.022-.017.044.067.005.02-.008-.013-.02-.043-.009-.02-.005-.011.027.076.011.032-.001.063c.01-.027.027-.093.077-.179.088-.167.223-.365.36-.579.07-.108.14-.224.212-.35.07-.135.143-.27.198-.475.013-.06.025-.09.035-.171.01-.09.01-.184.002-.274l-.011-.075-.01-.044-.005-.022-.002-.01c-.056-.187-.023-.069-.04-.118l-.057-.11a.746.746 0 00-.134-.18l-.142-.13a1.565 1.565 0 00-.248-.147c-.308-.141-.55-.19-.782-.248-.228-.055-.443-.101-.604-.159l-.104-.04-.03-.016v.005l.029.056-.048-.07-.012-.018.039.072.003.006.008.02.002.027h-.005l.006-.033.02-.094c.023-.076.056-.166.096-.258.093-.202.184-.403.276-.6.092-.223.2-.441.237-.794l-.007-.193-.016-.1-.014-.05-.012-.037-.007-.02-.003-.009-.031-.078-.102-.149-.111-.112-.115-.085c-.066-.036-.144-.082-.205-.101a2.906 2.906 0 00-.675-.16c-.202-.029-.392-.05-.563-.08a1.55 1.55 0 01-.398-.105c-.033-.013-.059.01-.05-.123a2.07 2.07 0 01.119-.425c.112-.306.252-.603.346-.926.024-.079.042-.166.055-.254l.012-.14-.02-.18-.036-.104-.003-.006-.016-.036-.012-.017-.023-.033-.048-.061a.746.746 0 00-.214-.151c-.282-.13-.521-.146-.736-.177-.428-.052-.756-.078-.968-.156a.666.666 0 01-.218-.124l-.058-.07M77.955 65.08l.062.048c.051.018.13.023.23.015.2-.015.49-.07.845-.137.088-.014.182-.03.274-.037h.13l.037.009-.054-.044c-.023-.071-.014-.022-.039.01l-.074.13c-.06.093-.131.192-.206.295a358.4 358.4 0 01-.238.325c-.082.12-.167.233-.25.405-.02.047-.041.091-.057.17l-.008.068.003.089a.402.402 0 00.127.243l.012.011.07.046.073.031.038.01.126.015.166-.013c.189-.03.34-.075.497-.121l.455-.134c.074-.02.148-.038.213-.05l.084-.011-.006.002c-.025-.006-.074-.006-.164-.082l-.027-.03-.048-.07.007.014-.011-.02-.019-.045-.015-.091c0-.094.007-.071-.004-.063l-.1.157c-.09.127-.2.265-.313.411-.113.152-.23.29-.357.522-.033.067-.068.127-.099.267-.009.08-.035.176.034.361l.03.064.066.094.011.014.204.147c.169.069.247.063.323.071.075.004.136.002.194 0 .23-.012.422-.04.612-.065.184-.025.381-.052.5-.048l-.062-.021-.05-.028-.073-.057-.08-.099-.031-.061c-.069-.205-.018-.051-.033-.094l.002.008-.005-.022-.005-.175.011-.053.007-.025.018-.046.02-.038.003-.01-.062.056c-.116.097-.28.213-.446.332-.084.06-.17.123-.262.195-.092.074-.185.144-.306.278-.033.037-.064.072-.105.139-.034.055-.093.15-.119.318l-.003.163c.014.066-.018-.029.037.167l.003.01c-.016-.037.055.145.137.228l.062.062.056.047.086.059c.191.108.297.133.415.175.226.072.426.122.614.176.092.027.18.055.252.081l.077.032-.01-.005-.033-.027-.067-.077-.048-.086-.039-.118-.01-.075c.005-.074-.017.058.015-.183l-.005.019-.009.039-.004.02-.003.01.002-.02.07-.159.012-.014v-.003l.004-.005.005-.001-.013.007-.023.016-.087.045c-.14.067-.327.134-.525.207-.205.08-.407.14-.698.321l-.114.083-.137.133-.074.1-.07.128-.015.032c-.016.056.017-.08-.04.135l-.003.019-.006.04-.003.02-.004.038-.002.134c.001.081.02.203.03.228.024.09.052.182.081.244.117.276.238.46.35.645.11.178.216.35.276.475.034.06.035.115.032.045l.015-.086.025-.072.02-.034.01-.014.078-.094-.054.054.121-.093.037-.011v-.002h-.001l-.012.004-.084.004a2.205 2.205 0 01-.245-.014l-.597-.07-.168-.014-.184-.006c-.14.008-.267 0-.492.08-.055.023-.099.035-.173.087l-.095.074-.045.04c-.034.044.047-.068-.082.103l-.005.009-.036.065a1.115 1.115 0 00-.084.239c-.045.277-.011.373.006.513.045.247.11.442.17.626.059.182.115.355.148.498l.02.096.008.042.001.021.014-.011.035-.06.013-.011.067-.06-.006.005-.027.022c-.067.058.011-.028.047-.02l-.043.01-.09.005-.106-.003c-.151-.009-.316-.032-.485-.05-.17-.018-.346-.037-.536-.041-.095-.002-.197 0-.314.02-.067.015-.114.016-.197.054l-.11.054-.12.103-.026.029-.013.014c-.02.033.028-.052-.048.077l-.01.028-.025.064-.03.168-.002.084.007.047c.018.132.056.223.09.31.073.172.153.302.232.432.155.25.313.477.404.678.094.244.11.208-.06.335-.17.098-.363.17-.532.236-.343.126-.62.25-.783.378a.465.465 0 00-.145.186l-.017.079.033-.07a.455.455 0 01.167-.132c.172-.084.45-.131.81-.194.182-.035.382-.063.618-.143l.091-.04.105-.059.108-.099.042-.052.021-.04.004-.01.006-.019c.073-.222.02-.383-.016-.524-.083-.29-.21-.539-.32-.803-.052-.13-.113-.261-.144-.378l-.023-.138-.002-.012.003.025-.02.05.022-.045.014-.025c-.073.124-.021.037-.038.066l-.002.005-.005.009-.03.025v.008h.034c.04.001.101.005.168.016.134.02.287.055.449.094.164.04.336.078.53.108a1.47 1.47 0 00.55.003.992.992 0 00.291-.127l.028-.019.007-.004.078-.074.032-.04.104-.178c.032-.095.062-.216.061-.283l.007-.119-.005-.098a1.782 1.782 0 00-.019-.182c-.033-.227-.08-.42-.123-.61a5.571 5.571 0 01-.1-.507l-.006-.089.003-.018-.005.03-.049.096.04-.063.005-.008-.068.092-.015.019-.037.03-.041.025.09.006.11.011.128.017.591.097c.11.016.224.032.359.037.141 0 .262.02.54-.072.094-.038.194-.1.261-.157l.056-.053c-.067.081.099-.116.09-.11l.019-.032.034-.069.055-.144c.028-.096.025-.159.03-.241-.01-.28-.08-.427-.133-.556-.113-.255-.23-.441-.334-.624a4.252 4.252 0 01-.25-.468l-.02-.057.004.07-.01.055h-.002l.003-.02.006-.04.004-.02-.03.118-.005.015-.03.058-.03.037-.022.024.014-.008c.064-.045.262-.123.447-.19.193-.073.4-.145.638-.26.062-.032.124-.066.189-.104l.107-.073.052-.038.062-.055.06-.06.03-.03.037-.044c.065-.087.12-.19.155-.292l.013-.036.006-.029.01-.039.004-.02c.033-.248.009-.122.013-.203l-.013-.094a.665.665 0 00-.05-.156l-.069-.119-.12-.135-.095-.075-.144-.084c-.083-.04-.147-.063-.212-.088a5.058 5.058 0 00-.343-.1c-.21-.055-.413-.1-.58-.149-.077-.02-.17-.057-.156-.05l.021.014.026.022.034.036c.068.062.12.225.097.163l-.004-.009c.052.19.022.089.035.148l-.003.123c-.016.117-.054.163-.06.177l-.011.014a1.17 1.17 0 01.145-.14l.22-.178c.157-.127.32-.247.504-.416l.153-.157.095-.127.056-.103.032-.081.013-.044.015-.07a.708.708 0 000-.213l-.008-.042-.002-.01-.038-.112-.041-.077-.103-.127-.103-.081-.083-.043-.131-.045c-.141-.031-.217-.025-.291-.025-.273.017-.459.063-.654.1-.188.036-.371.078-.517.098l-.086.01c-.018.006-.035-.008.048.026l.143.11-.012-.012.056.08.024.047c.049.142.029.188.025.222l-.002.002c.042-.103.144-.265.237-.41.097-.153.198-.304.299-.476.05-.089.101-.175.153-.306.022-.072.06-.133.059-.314l-.02-.124-.022-.062-.016-.034-.008-.014-.056-.085-.04-.04c-.118-.108-.213-.12-.278-.133-.127-.015-.193.001-.256.012l-.16.043c-.095.03-.179.063-.258.096l-.447.194c-.138.06-.277.117-.382.148l-.055.016.016.005.01.004.05.02.043.035-.009-.006.078.146.001.034-.003.012.004-.04c.027-.097.09-.226.148-.343l.184-.353c.06-.118.12-.233.173-.354.026-.061.051-.122.072-.195l.025-.124v-.085l-.036-.113a.261.261 0 00-.188-.13l-.121-.003c-.068.008-.124.021-.178.036a3.28 3.28 0 00-.285.097c-.348.133-.606.256-.792.31a.65.65 0 01-.213.038l-.067-.03"/>
      <path fill="#6B4732" d="M79.66 61.53l.022.08.06.092.11.096c.178.128.475.251.84.387.177.07.391.151.538.267l.04.041.016.019v.01l.001.004.002.002-.01-.034.002.006.004.048-.01.045-.006.008-.014.033-.033.067-.094.15c-.145.21-.339.426-.535.69-.097.136-.2.274-.278.516-.021.05-.026.15-.03.226l.03.153.011.039.006.019.04.07.019.025.043.06.124.107.066.043.043.02.088.04c.222.081.405.102.59.129l.53.064c.16.023.34.054.404.09l-.001-.001-.047-.048-.038-.089.004.018.01.034.005.027-.018-.038-.005-.042v-.02l-.023.056a3.34 3.34 0 01-.245.43c-.103.165-.22.335-.334.545-.058.111-.117.22-.167.389l-.032.132-.011.186a.758.758 0 00.04.233l.022.06.011.03c.104.177.032.053.057.095l.022.032.023.032.083.086.098.083.09.057c.077.04.165.083.228.101.07.027.137.047.196.06l.18.043c.23.048.44.08.633.117.095.018.188.037.257.06.074.016.126.054.088.03l-.046-.047-.04-.057-.013-.031-.005-.016-.028-.118.006.073.004-.175.005-.017-.003-.001-.012.018-.022.031-.037.044c-.104.121-.259.271-.42.43a7.421 7.421 0 00-.256.265c-.089.102-.18.204-.279.37l-.071.135-.065.191c-.02.061-.027.177-.026.265l.003.07c.05.232.016.07.028.124l.003.01.013.04.007.021.026.061.073.134.086.12.052.053.104.1.093.075c.242.183.443.288.632.402.183.106.366.224.435.293l.016.01-.03-.062-.021-.125.004-.035c.026-.171.006-.04.011-.077l-.002.01-.003.011.012-.05.047-.108.05-.07.024-.024-.03.018c-.122.069-.336.154-.545.242-.216.095-.438.179-.713.369-.07.05-.147.113-.227.2a.967.967 0 00-.227.427l-.015.076c-.011.28-.003.084-.005.149v.01l.005.043.028.134.065.174.039.073.023.033.046.065.049.063.041.045c.223.235.405.36.58.5.169.13.339.26.429.355l.036.04-.006-.02-.008-.03v-.015l-.009-.036v-.077l.009-.037c.075-.25.019-.063.034-.117l-.004.01-.015.038-.006.011.016-.044.052-.078.041-.037-.004.004a1.27 1.27 0 01-.187.085 5.183 5.183 0 01-.273.093c-.196.064-.403.123-.636.218a1.722 1.722 0 00-.402.223c-.09.083-.182.155-.262.351l-.025.066a1.215 1.215 0 00-.023.13v.077l.002.033.02.138.038.132.034.072.063.117.124.169c.08.097.158.18.233.257l.42.412.165.179.055.07.01.016.006.006-.005-.015v-.052l.008-.053.01-.024c-.033.07.053-.11.041-.087l-.004.008-.032.056.061-.08-.092.037c-.276.08-.641.104-.997.173l-.14.03-.15.043c-.108.05-.226.066-.376.255l-.047.069c-.032.066-.01.023-.018.039l-.002.007-.005.015-.006.018-.011.044-.016.084c-.006.08 0 .15.011.207.021.116.056.205.09.289.144.324.305.566.435.803.064.116.123.23.16.328l.032.113.01.001.007-.004.03-.026-.005.004-.009.007-.033.03h-.01.008l-.044.005-.131-.017a2.027 2.027 0 01-.277-.09c-.355-.144-.645-.276-.853-.331a.764.764 0 00-.244-.032l-.081.02h.08c.053.01.128.033.22.082.186.091.426.28.77.493.085.053.18.106.29.155a.873.873 0 00.191.06l.126.009.092-.02.072-.03.04-.023.008-.005.005-.003.038-.035.032-.042.063-.175a.817.817 0 00-.02-.264 2.874 2.874 0 00-.133-.421c-.1-.266-.226-.541-.297-.803l-.03-.169.005-.034-.015.056.04.015.09-.015.107-.01c.15-.01.317-.013.493-.017.178-.006.364-.01.585-.046.118-.026.221-.034.417-.154l.171-.164.043-.062.005-.008.047-.103.014-.06.017-.123c.007-.094-.01-.128-.02-.192l-.021-.085-.024-.059-.053-.113-.104-.168a4.024 4.024 0 00-.206-.265l-.387-.449a2.863 2.863 0 01-.156-.202l-.05-.082-.006-.019.001.002.017.06-.001.062-.003.015v-.01l.002-.02.004-.038V74l-.017.112-.007.03c-.045.097-.057.102-.071.115.013-.002.064-.032.144-.057.153-.051.349-.098.556-.151a5.47 5.47 0 00.33-.092c.116-.035.244-.081.398-.163l.13-.085.101-.091.108-.137.044-.073.012-.025.017-.037.004-.01c.018-.059-.034.121.042-.135l.007-.078-.002-.159-.009-.077-.014-.054-.036-.107c-.029-.08-.056-.12-.083-.164-.058-.1-.108-.155-.161-.219-.204-.228-.383-.364-.555-.51a4.08 4.08 0 01-.418-.372l-.015-.016-.002-.005-.002-.003h-.002l.02.035.031.098.002.055-.004-.042v-.01c-.003.058.004-.145-.006.127l-.006.034c-.022.092-.058.129-.063.137l.027-.017c.092-.062.285-.15.479-.229.202-.085.408-.155.68-.301.072-.042.147-.085.249-.172l.083-.083c.036-.044.059-.07.1-.139l.065-.146.021-.07.003-.01.002-.01c.007-.043-.011.08.015-.098v-.077a.973.973 0 00-.05-.293 1.556 1.556 0 00-.102-.216 1.42 1.42 0 00-.208-.245c-.262-.239-.472-.346-.673-.468-.197-.113-.392-.222-.508-.311l-.038-.03-.017-.016-.009-.006.037.05.026.065.004.026-.007-.02-.014-.04-.003-.01c.01.047-.028-.121.022.104l.004.027-.009.096-.011.031.008-.015c.014-.029.066-.1.124-.166.06-.07.13-.145.204-.222.148-.158.313-.315.489-.536l.065-.086.07-.107.07-.125.033-.076.017-.038.019-.056c.03-.107.044-.227.04-.336l-.013-.092c.024.102-.033-.148-.034-.137l-.015-.034-.034-.068-.08-.128c-.058-.073-.107-.108-.166-.158-.213-.15-.368-.187-.5-.222-.138-.036-.256-.053-.37-.07l-.618-.078-.127-.022-.104-.023-.059-.018.024.016.035.036.02.04-.023-.03-.024-.032c.02.036-.057-.091.046.08l.006.01.01.023.014.08-.005.028.003-.02a.921.921 0 01.064-.185c.07-.156.166-.331.262-.514.096-.186.199-.37.284-.631.021-.057.038-.149.051-.228l.007-.092-.005-.114-.018-.11-.014-.045-.012-.034-.006-.017-.044-.096-.015-.021-.138-.158a.938.938 0 00-.246-.138c-.287-.098-.48-.093-.676-.101l-.532-.003a2.22 2.22 0 01-.42-.033l-.028-.008-.015-.003.013.008.02.037-.034-.035-.02-.024.033.056.003.003.004.008v.033-.018c.01-.074.073-.215.14-.34.14-.257.306-.507.44-.776.034-.068.066-.138.094-.214l.036-.119.016-.06.01-.09-.009-.146-.01-.046-.002-.006c-.02-.071-.008-.025-.014-.043l-.01-.02-.023-.036-.048-.068-.051-.044-.1-.069c-.26-.132-.473-.157-.669-.2-.386-.075-.686-.121-.872-.207l-.118-.064-.07-.067-.04-.073M73.285 54.909l.031.078.068.084.12.084c.19.109.498.199.875.295.183.05.405.107.563.207l.044.036.018.017v.011l.002.004h.002l-.012-.032v.006l.01.047-.006.046-.004.01-.011.033-.026.07-.079.16c-.12.223-.292.46-.46.743-.083.147-.172.295-.223.543a.81.81 0 00-.007.229l.045.15.016.036.009.018.047.065.02.024.05.055.134.092.07.036.044.016.092.03c.229.057.413.057.6.065l.532.006c.164.005.345.017.412.046l-.052-.043-.047-.085.006.017.013.034.008.025-.022-.036-.01-.04-.002-.02-.016.057a3.338 3.338 0 01-.199.454c-.086.175-.184.358-.277.579-.046.116-.094.232-.126.405l-.019.135.009.185c0 .052.034.153.065.227l.026.059.015.027.066.089.026.03.025.029.092.077.107.07.094.048a1.804 1.804 0 00.44.115c.065.011.124.018.182.023.233.023.447.033.641.048.096.008.191.016.262.031.076.01.131.041.092.022l-.052-.042-.045-.052-.017-.03-.006-.016c.005.016-.076-.22-.04-.114l.014.072-.015-.174.004-.017h-.001l-.002-.001-.01.018-.02.034-.032.047c-.09.133-.23.298-.373.475-.073.09-.15.185-.227.29-.078.11-.159.222-.24.398l-.057.141a1.033 1.033 0 00-.043.463l.01.07c.073.225.023.068.04.12l.005.01.017.04.009.019.032.058.087.125.097.11.057.047.114.088.1.064c.26.156.47.239.67.332.193.086.388.184.463.245l.017.008-.037-.058-.033-.122v-.035l.004-.078-.002.01v.01l.006-.05.035-.113.042-.074.021-.026-.028.02c-.113.082-.317.19-.516.3-.206.117-.418.224-.672.444a1.479 1.479 0 00-.205.223.982.982 0 00-.181.45l-.008.076c.018.278.006.084.011.148l.002.01.008.042.042.13.082.166.047.07.025.03.054.059.054.057.045.04c.247.21.44.316.628.436.181.11.364.222.464.307l.04.037-.007-.019-.012-.028-.002-.016-.012-.034-.007-.076.004-.038.023-.122-.003.01-.012.039-.005.015.011-.045.043-.083.04-.045-.004.005c-.031.023-.097.065-.179.105-.078.04-.168.08-.261.122-.188.085-.387.166-.61.285a1.755 1.755 0 00-.376.264c-.08.092-.166.173-.225.377l-.017.067c.002-.085-.014.157-.011.133v.01l.005.039.001.019.002.01.005.03.033.135.052.128.04.07.077.11.14.154c.09.088.175.161.258.23l.46.365c.068.055.13.11.183.16l.063.064.011.015.007.005-.008-.014-.005-.052.003-.053.007-.025.033-.092-.004.008-.027.06.053-.085-.087.045a3.484 3.484 0 01-.458.142c-.167.042-.338.083-.516.138l-.136.045-.144.06c-.103.06-.218.089-.35.291l-.038.074-.014.042-.002.008-.003.014-.004.018-.007.045-.007.087a.79.79 0 00.032.203c.033.114.077.2.12.278.175.307.361.53.514.753.076.108.147.214.194.308l.043.11h.01l.006-.006.027-.029-.004.004-.008.009-.03.033-.01.002.008-.002-.043.01-.132-.002a1.967 1.967 0 01-.284-.06c-.369-.106-.671-.205-.883-.237a.74.74 0 00-.246-.006l-.079.028.08-.01c.055.006.13.02.227.059.195.07.453.233.816.407.091.044.19.087.305.123a.863.863 0 00.196.04l.126-.005.09-.03.069-.037.036-.027.009-.006.005-.004.033-.038.028-.046.044-.18a.83.83 0 00-.046-.261 2.965 2.965 0 00-.176-.404c-.128-.254-.28-.515-.38-.768l-.045-.163v-.035l-.008.057.041.01.089-.024.105-.021c.147-.027.313-.047.488-.07.176-.025.36-.049.577-.109.115-.039.216-.056.4-.198l.153-.183.036-.065.004-.008a.838.838 0 00.036-.11l.008-.06.003-.125c-.002-.094-.022-.125-.04-.188l-.03-.081-.03-.056-.063-.107-.121-.155a3.886 3.886 0 00-.232-.242l-.432-.405a2.72 2.72 0 01-.175-.184l-.058-.075-.008-.019.003.004.022.057.005.062-.002.013V67.034l-.001-.039v-.01a7.41 7.41 0 00-.006.115l-.003.032c-.036.1-.047.105-.06.12.013-.003.062-.04.139-.072.146-.068.337-.136.537-.21.1-.039.206-.079.319-.128.112-.048.234-.107.38-.206l.12-.098.092-.103.092-.149.036-.077.008-.023.014-.039.003-.01c-.02.106.031-.151.026-.141v-.08l-.018-.157-.018-.075-.02-.051-.046-.102c-.037-.077-.067-.112-.099-.154-.069-.093-.123-.141-.183-.2-.226-.205-.418-.321-.604-.449a4.026 4.026 0 01-.453-.323l-.018-.015-.001-.004-.003-.003-.002-.001.024.034.04.093.007.055-.007-.042-.002-.01c.004.058-.011-.145.008.127l-.002.034c-.013.095-.044.136-.05.144l.026-.02c.086-.072.268-.18.453-.279.192-.107.39-.199.646-.374.067-.049.137-.1.228-.197l.075-.092c.03-.047.05-.076.085-.147l.05-.153.014-.072.001-.01.001-.012c.002-.042-.002.082.005-.098l-.008-.078a.97.97 0 00-.08-.285 1.468 1.468 0 00-.123-.204 1.458 1.458 0 00-.232-.221c-.285-.209-.505-.293-.719-.392-.206-.092-.411-.18-.536-.254l-.04-.026-.02-.015-.009-.004.043.045.031.062.007.025-.009-.02-.018-.038-.004-.01c.015.047-.04-.117.032.102l.008.026.001.097-.009.032.008-.015c.01-.031.055-.107.105-.18a6.65 6.65 0 01.18-.242c.132-.173.28-.347.431-.586l.056-.093.059-.113.056-.133.026-.079.012-.04.013-.056c.02-.11.021-.231.005-.34l-.021-.089c.034.098-.049-.144-.048-.133l-.019-.032-.04-.064-.094-.118c-.064-.067-.117-.097-.18-.14-.228-.126-.386-.145-.52-.167-.141-.02-.26-.025-.376-.029l-.622-.011-.129-.008-.106-.013-.06-.01.025.013.04.033.024.036-.027-.028-.028-.027c.025.033-.065-.086.054.073l.008.01.013.021.02.078-.001.03.001-.02c0-.034.02-.115.044-.192.053-.163.132-.347.209-.539.076-.196.159-.39.216-.659a1.46 1.46 0 00.028-.231l-.003-.092-.017-.114-.028-.108-.018-.042-.016-.033-.008-.016-.054-.091-.017-.02-.153-.142a.93.93 0 00-.26-.11c-.294-.066-.485-.04-.681-.028l-.53.055c-.16.015-.321.024-.42.012l-.03-.005-.015-.001.014.006.024.035-.039-.032-.022-.02.04.05.002.004.005.008.005.032-.003-.018c.001-.075.05-.221.105-.352.111-.272.251-.538.357-.82.027-.071.05-.144.07-.223l.025-.122.01-.062v-.09l-.023-.144-.015-.044-.003-.006c-.027-.07-.01-.025-.018-.042l-.012-.018-.026-.034-.056-.063-.055-.038-.108-.058c-.27-.103-.485-.106-.684-.128-.392-.031-.695-.045-.889-.11l-.123-.052-.076-.057-.048-.07"/>
    </g>
  </g>
</svg>
